<?xml version="1.0" encoding="utf-8" standalone="no"?>
<!DOCTYPE svg PUBLIC "-//W3C//DTD SVG 1.1//EN"
  "http://www.w3.org/Graphics/SVG/1.1/DTD/svg11.dtd">
<svg xmlns:xlink="http://www.w3.org/1999/xlink" width="519.482188pt" height="320.074984pt" viewBox="0 0 519.482188 320.074984" xmlns="http://www.w3.org/2000/svg" version="1.1">
 <metadata>
  <rdf:RDF xmlns:dc="http://purl.org/dc/elements/1.1/" xmlns:cc="http://creativecommons.org/ns#" xmlns:rdf="http://www.w3.org/1999/02/22-rdf-syntax-ns#">
   <cc:Work>
    <dc:type rdf:resource="http://purl.org/dc/dcmitype/StillImage"/>
    <dc:date>2026-07-12T01:22:13.851039</dc:date>
    <dc:format>image/svg+xml</dc:format>
    <dc:creator>
     <cc:Agent>
      <dc:title>Matplotlib v3.11.0, https://matplotlib.org/</dc:title>
     </cc:Agent>
    </dc:creator>
   </cc:Work>
  </rdf:RDF>
 </metadata>
 <defs>
  <style type="text/css">*{stroke-linejoin: round; stroke-linecap: butt}</style>
 </defs>
 <g id="figure_1">
  <g id="patch_1">
   <path d="M 0 320.074984 
L 519.482188 320.074984 
L 519.482188 0 
L 0 0 
z
" style="fill: #ffffff"/>
  </g>
  <g id="axes_1">
   <g id="patch_2">
    <path d="M 77.042187 281.874203 
L 512.282188 281.874203 
L 512.282188 37.938203 
L 77.042187 37.938203 
z
" style="fill: #ffffff"/>
   </g>
   <g id="patch_3">
    <path d="M 77.042187 281.874203 
L 204.532842 281.874203 
L 204.532842 37.938203 
L 77.042187 37.938203 
z
" clip-path="url(#p6f0032636d)" style="fill: #8a8a8a; opacity: 0.12; stroke: #8a8a8a; stroke-linejoin: miter"/>
   </g>
   <g id="matplotlib.axis_1">
    <g id="xtick_1">
     <g id="line2d_1">
      <defs>
       <path id="m1a1b99530a" d="M 0 0 
L 0 3.5 
" style="stroke: #444444; stroke-width: 0.8"/>
      </defs>
      <g>
       <use xlink:href="#m1a1b99530a" x="77.042187" y="281.874203" style="fill: #444444; stroke: #444444; stroke-width: 0.8"/>
      </g>
     </g>
     <g id="text_1">
      <!-- 0.00 -->
      <g style="fill: #444444" transform="translate(65.909375 296.471859) scale(0.1 -0.1)">
       <defs>
        <path id="DejaVuSans-13" d="M 2034 4250 
Q 1547 4250 1301 3770 
Q 1056 3291 1056 2328 
Q 1056 1369 1301 889 
Q 1547 409 2034 409 
Q 2525 409 2770 889 
Q 3016 1369 3016 2328 
Q 3016 3291 2770 3770 
Q 2525 4250 2034 4250 
z
M 2034 4750 
Q 2819 4750 3233 4129 
Q 3647 3509 3647 2328 
Q 3647 1150 3233 529 
Q 2819 -91 2034 -91 
Q 1250 -91 836 529 
Q 422 1150 422 2328 
Q 422 3509 836 4129 
Q 1250 4750 2034 4750 
z
" transform="scale(0.015625)"/>
        <path id="DejaVuSans-11" d="M 684 794 
L 1344 794 
L 1344 0 
L 684 0 
L 684 794 
z
" transform="scale(0.015625)"/>
       </defs>
       <use xlink:href="#DejaVuSans-13"/>
       <use xlink:href="#DejaVuSans-11" transform="translate(63.625 0)"/>
       <use xlink:href="#DejaVuSans-13" transform="translate(95.40625 0)"/>
       <use xlink:href="#DejaVuSans-13" transform="translate(159.03125 0)"/>
      </g>
     </g>
    </g>
    <g id="xtick_2">
     <g id="line2d_2">
      <g>
       <use xlink:href="#m1a1b99530a" x="154.075816" y="281.874203" style="fill: #444444; stroke: #444444; stroke-width: 0.8"/>
      </g>
     </g>
     <g id="text_2">
      <!-- 0.02 -->
      <g style="fill: #444444" transform="translate(142.943003 296.471859) scale(0.1 -0.1)">
       <defs>
        <path id="DejaVuSans-15" d="M 1228 531 
L 3431 531 
L 3431 0 
L 469 0 
L 469 531 
Q 828 903 1448 1529 
Q 2069 2156 2228 2338 
Q 2531 2678 2651 2914 
Q 2772 3150 2772 3378 
Q 2772 3750 2511 3984 
Q 2250 4219 1831 4219 
Q 1534 4219 1204 4116 
Q 875 4013 500 3803 
L 500 4441 
Q 881 4594 1212 4672 
Q 1544 4750 1819 4750 
Q 2544 4750 2975 4387 
Q 3406 4025 3406 3419 
Q 3406 3131 3298 2873 
Q 3191 2616 2906 2266 
Q 2828 2175 2409 1742 
Q 1991 1309 1228 531 
z
" transform="scale(0.015625)"/>
       </defs>
       <use xlink:href="#DejaVuSans-13"/>
       <use xlink:href="#DejaVuSans-11" transform="translate(63.625 0)"/>
       <use xlink:href="#DejaVuSans-13" transform="translate(95.40625 0)"/>
       <use xlink:href="#DejaVuSans-15" transform="translate(159.03125 0)"/>
      </g>
     </g>
    </g>
    <g id="xtick_3">
     <g id="line2d_3">
      <g>
       <use xlink:href="#m1a1b99530a" x="231.109444" y="281.874203" style="fill: #444444; stroke: #444444; stroke-width: 0.8"/>
      </g>
     </g>
     <g id="text_3">
      <!-- 0.04 -->
      <g style="fill: #444444" transform="translate(219.976632 296.471859) scale(0.1 -0.1)">
       <defs>
        <path id="DejaVuSans-17" d="M 2419 4116 
L 825 1625 
L 2419 1625 
L 2419 4116 
z
M 2253 4666 
L 3047 4666 
L 3047 1625 
L 3713 1625 
L 3713 1100 
L 3047 1100 
L 3047 0 
L 2419 0 
L 2419 1100 
L 313 1100 
L 313 1709 
L 2253 4666 
z
" transform="scale(0.015625)"/>
       </defs>
       <use xlink:href="#DejaVuSans-13"/>
       <use xlink:href="#DejaVuSans-11" transform="translate(63.625 0)"/>
       <use xlink:href="#DejaVuSans-13" transform="translate(95.40625 0)"/>
       <use xlink:href="#DejaVuSans-17" transform="translate(159.03125 0)"/>
      </g>
     </g>
    </g>
    <g id="xtick_4">
     <g id="line2d_4">
      <g>
       <use xlink:href="#m1a1b99530a" x="308.143072" y="281.874203" style="fill: #444444; stroke: #444444; stroke-width: 0.8"/>
      </g>
     </g>
     <g id="text_4">
      <!-- 0.06 -->
      <g style="fill: #444444" transform="translate(297.01026 296.471859) scale(0.1 -0.1)">
       <defs>
        <path id="DejaVuSans-19" d="M 2113 2584 
Q 1688 2584 1439 2293 
Q 1191 2003 1191 1497 
Q 1191 994 1439 701 
Q 1688 409 2113 409 
Q 2538 409 2786 701 
Q 3034 994 3034 1497 
Q 3034 2003 2786 2293 
Q 2538 2584 2113 2584 
z
M 3366 4563 
L 3366 3988 
Q 3128 4100 2886 4159 
Q 2644 4219 2406 4219 
Q 1781 4219 1451 3797 
Q 1122 3375 1075 2522 
Q 1259 2794 1537 2939 
Q 1816 3084 2150 3084 
Q 2853 3084 3261 2657 
Q 3669 2231 3669 1497 
Q 3669 778 3244 343 
Q 2819 -91 2113 -91 
Q 1303 -91 875 529 
Q 447 1150 447 2328 
Q 447 3434 972 4092 
Q 1497 4750 2381 4750 
Q 2619 4750 2861 4703 
Q 3103 4656 3366 4563 
z
" transform="scale(0.015625)"/>
       </defs>
       <use xlink:href="#DejaVuSans-13"/>
       <use xlink:href="#DejaVuSans-11" transform="translate(63.625 0)"/>
       <use xlink:href="#DejaVuSans-13" transform="translate(95.40625 0)"/>
       <use xlink:href="#DejaVuSans-19" transform="translate(159.03125 0)"/>
      </g>
     </g>
    </g>
    <g id="xtick_5">
     <g id="line2d_5">
      <g>
       <use xlink:href="#m1a1b99530a" x="385.176701" y="281.874203" style="fill: #444444; stroke: #444444; stroke-width: 0.8"/>
      </g>
     </g>
     <g id="text_5">
      <!-- 0.08 -->
      <g style="fill: #444444" transform="translate(374.043888 296.471859) scale(0.1 -0.1)">
       <defs>
        <path id="DejaVuSans-1b" d="M 2034 2216 
Q 1584 2216 1326 1975 
Q 1069 1734 1069 1313 
Q 1069 891 1326 650 
Q 1584 409 2034 409 
Q 2484 409 2743 651 
Q 3003 894 3003 1313 
Q 3003 1734 2745 1975 
Q 2488 2216 2034 2216 
z
M 1403 2484 
Q 997 2584 770 2862 
Q 544 3141 544 3541 
Q 544 4100 942 4425 
Q 1341 4750 2034 4750 
Q 2731 4750 3128 4425 
Q 3525 4100 3525 3541 
Q 3525 3141 3298 2862 
Q 3072 2584 2669 2484 
Q 3125 2378 3379 2068 
Q 3634 1759 3634 1313 
Q 3634 634 3220 271 
Q 2806 -91 2034 -91 
Q 1263 -91 848 271 
Q 434 634 434 1313 
Q 434 1759 690 2068 
Q 947 2378 1403 2484 
z
M 1172 3481 
Q 1172 3119 1398 2916 
Q 1625 2713 2034 2713 
Q 2441 2713 2670 2916 
Q 2900 3119 2900 3481 
Q 2900 3844 2670 4047 
Q 2441 4250 2034 4250 
Q 1625 4250 1398 4047 
Q 1172 3844 1172 3481 
z
" transform="scale(0.015625)"/>
       </defs>
       <use xlink:href="#DejaVuSans-13"/>
       <use xlink:href="#DejaVuSans-11" transform="translate(63.625 0)"/>
       <use xlink:href="#DejaVuSans-13" transform="translate(95.40625 0)"/>
       <use xlink:href="#DejaVuSans-1b" transform="translate(159.03125 0)"/>
      </g>
     </g>
    </g>
    <g id="xtick_6">
     <g id="line2d_6">
      <g>
       <use xlink:href="#m1a1b99530a" x="462.210329" y="281.874203" style="fill: #444444; stroke: #444444; stroke-width: 0.8"/>
      </g>
     </g>
     <g id="text_6">
      <!-- 0.10 -->
      <g style="fill: #444444" transform="translate(451.077517 296.471859) scale(0.1 -0.1)">
       <defs>
        <path id="DejaVuSans-14" d="M 794 531 
L 1825 531 
L 1825 4091 
L 703 3866 
L 703 4441 
L 1819 4666 
L 2450 4666 
L 2450 531 
L 3481 531 
L 3481 0 
L 794 0 
L 794 531 
z
" transform="scale(0.015625)"/>
       </defs>
       <use xlink:href="#DejaVuSans-13"/>
       <use xlink:href="#DejaVuSans-11" transform="translate(63.625 0)"/>
       <use xlink:href="#DejaVuSans-14" transform="translate(95.40625 0)"/>
       <use xlink:href="#DejaVuSans-13" transform="translate(159.03125 0)"/>
      </g>
     </g>
    </g>
    <g id="text_7">
     <!-- minimum reachable 120-pair conditional dependency error  (lower = better) -->
     <g style="fill: #222222" transform="translate(103.3575 310.472641) scale(0.1 -0.1)">
      <defs>
       <path id="DejaVuSans-50" d="M 3328 2828 
Q 3544 3216 3844 3400 
Q 4144 3584 4550 3584 
Q 5097 3584 5394 3201 
Q 5691 2819 5691 2113 
L 5691 0 
L 5113 0 
L 5113 2094 
Q 5113 2597 4934 2840 
Q 4756 3084 4391 3084 
Q 3944 3084 3684 2787 
Q 3425 2491 3425 1978 
L 3425 0 
L 2847 0 
L 2847 2094 
Q 2847 2600 2669 2842 
Q 2491 3084 2119 3084 
Q 1678 3084 1418 2786 
Q 1159 2488 1159 1978 
L 1159 0 
L 581 0 
L 581 3500 
L 1159 3500 
L 1159 2956 
Q 1356 3278 1631 3431 
Q 1906 3584 2284 3584 
Q 2666 3584 2933 3390 
Q 3200 3197 3328 2828 
z
" transform="scale(0.015625)"/>
       <path id="DejaVuSans-4c" d="M 603 3500 
L 1178 3500 
L 1178 0 
L 603 0 
L 603 3500 
z
M 603 4863 
L 1178 4863 
L 1178 4134 
L 603 4134 
L 603 4863 
z
" transform="scale(0.015625)"/>
       <path id="DejaVuSans-51" d="M 3513 2113 
L 3513 0 
L 2938 0 
L 2938 2094 
Q 2938 2591 2744 2837 
Q 2550 3084 2163 3084 
Q 1697 3084 1428 2787 
Q 1159 2491 1159 1978 
L 1159 0 
L 581 0 
L 581 3500 
L 1159 3500 
L 1159 2956 
Q 1366 3272 1645 3428 
Q 1925 3584 2291 3584 
Q 2894 3584 3203 3211 
Q 3513 2838 3513 2113 
z
" transform="scale(0.015625)"/>
       <path id="DejaVuSans-58" d="M 544 1381 
L 544 3500 
L 1119 3500 
L 1119 1403 
Q 1119 906 1312 657 
Q 1506 409 1894 409 
Q 2359 409 2629 706 
Q 2900 1003 2900 1516 
L 2900 3500 
L 3475 3500 
L 3475 0 
L 2900 0 
L 2900 538 
Q 2691 219 2414 64 
Q 2138 -91 1772 -91 
Q 1169 -91 856 284 
Q 544 659 544 1381 
z
M 1991 3584 
L 1991 3584 
z
" transform="scale(0.015625)"/>
       <path id="DejaVuSans-3" transform="scale(0.015625)"/>
       <path id="DejaVuSans-55" d="M 2631 2963 
Q 2534 3019 2420 3045 
Q 2306 3072 2169 3072 
Q 1681 3072 1420 2755 
Q 1159 2438 1159 1844 
L 1159 0 
L 581 0 
L 581 3500 
L 1159 3500 
L 1159 2956 
Q 1341 3275 1631 3429 
Q 1922 3584 2338 3584 
Q 2397 3584 2469 3576 
Q 2541 3569 2628 3553 
L 2631 2963 
z
" transform="scale(0.015625)"/>
       <path id="DejaVuSans-48" d="M 3597 1894 
L 3597 1613 
L 953 1613 
Q 991 1019 1311 708 
Q 1631 397 2203 397 
Q 2534 397 2845 478 
Q 3156 559 3463 722 
L 3463 178 
Q 3153 47 2828 -22 
Q 2503 -91 2169 -91 
Q 1331 -91 842 396 
Q 353 884 353 1716 
Q 353 2575 817 3079 
Q 1281 3584 2069 3584 
Q 2775 3584 3186 3129 
Q 3597 2675 3597 1894 
z
M 3022 2063 
Q 3016 2534 2758 2815 
Q 2500 3097 2075 3097 
Q 1594 3097 1305 2825 
Q 1016 2553 972 2059 
L 3022 2063 
z
" transform="scale(0.015625)"/>
       <path id="DejaVuSans-44" d="M 2194 1759 
Q 1497 1759 1228 1600 
Q 959 1441 959 1056 
Q 959 750 1161 570 
Q 1363 391 1709 391 
Q 2188 391 2477 730 
Q 2766 1069 2766 1631 
L 2766 1759 
L 2194 1759 
z
M 3341 1997 
L 3341 0 
L 2766 0 
L 2766 531 
Q 2569 213 2275 61 
Q 1981 -91 1556 -91 
Q 1019 -91 701 211 
Q 384 513 384 1019 
Q 384 1609 779 1909 
Q 1175 2209 1959 2209 
L 2766 2209 
L 2766 2266 
Q 2766 2663 2505 2880 
Q 2244 3097 1772 3097 
Q 1472 3097 1187 3025 
Q 903 2953 641 2809 
L 641 3341 
Q 956 3463 1253 3523 
Q 1550 3584 1831 3584 
Q 2591 3584 2966 3190 
Q 3341 2797 3341 1997 
z
" transform="scale(0.015625)"/>
       <path id="DejaVuSans-46" d="M 3122 3366 
L 3122 2828 
Q 2878 2963 2633 3030 
Q 2388 3097 2138 3097 
Q 1578 3097 1268 2742 
Q 959 2388 959 1747 
Q 959 1106 1268 751 
Q 1578 397 2138 397 
Q 2388 397 2633 464 
Q 2878 531 3122 666 
L 3122 134 
Q 2881 22 2623 -34 
Q 2366 -91 2075 -91 
Q 1284 -91 818 406 
Q 353 903 353 1747 
Q 353 2603 823 3093 
Q 1294 3584 2113 3584 
Q 2378 3584 2631 3529 
Q 2884 3475 3122 3366 
z
" transform="scale(0.015625)"/>
       <path id="DejaVuSans-4b" d="M 3513 2113 
L 3513 0 
L 2938 0 
L 2938 2094 
Q 2938 2591 2744 2837 
Q 2550 3084 2163 3084 
Q 1697 3084 1428 2787 
Q 1159 2491 1159 1978 
L 1159 0 
L 581 0 
L 581 4863 
L 1159 4863 
L 1159 2956 
Q 1366 3272 1645 3428 
Q 1925 3584 2291 3584 
Q 2894 3584 3203 3211 
Q 3513 2838 3513 2113 
z
" transform="scale(0.015625)"/>
       <path id="DejaVuSans-45" d="M 3116 1747 
Q 3116 2381 2855 2742 
Q 2594 3103 2138 3103 
Q 1681 3103 1420 2742 
Q 1159 2381 1159 1747 
Q 1159 1113 1420 752 
Q 1681 391 2138 391 
Q 2594 391 2855 752 
Q 3116 1113 3116 1747 
z
M 1159 2969 
Q 1341 3281 1617 3432 
Q 1894 3584 2278 3584 
Q 2916 3584 3314 3078 
Q 3713 2572 3713 1747 
Q 3713 922 3314 415 
Q 2916 -91 2278 -91 
Q 1894 -91 1617 61 
Q 1341 213 1159 525 
L 1159 0 
L 581 0 
L 581 4863 
L 1159 4863 
L 1159 2969 
z
" transform="scale(0.015625)"/>
       <path id="DejaVuSans-4f" d="M 603 4863 
L 1178 4863 
L 1178 0 
L 603 0 
L 603 4863 
z
" transform="scale(0.015625)"/>
       <path id="DejaVuSans-10" d="M 313 2009 
L 1997 2009 
L 1997 1497 
L 313 1497 
L 313 2009 
z
" transform="scale(0.015625)"/>
       <path id="DejaVuSans-53" d="M 1159 525 
L 1159 -1331 
L 581 -1331 
L 581 3500 
L 1159 3500 
L 1159 2969 
Q 1341 3281 1617 3432 
Q 1894 3584 2278 3584 
Q 2916 3584 3314 3078 
Q 3713 2572 3713 1747 
Q 3713 922 3314 415 
Q 2916 -91 2278 -91 
Q 1894 -91 1617 61 
Q 1341 213 1159 525 
z
M 3116 1747 
Q 3116 2381 2855 2742 
Q 2594 3103 2138 3103 
Q 1681 3103 1420 2742 
Q 1159 2381 1159 1747 
Q 1159 1113 1420 752 
Q 1681 391 2138 391 
Q 2594 391 2855 752 
Q 3116 1113 3116 1747 
z
" transform="scale(0.015625)"/>
       <path id="DejaVuSans-52" d="M 1959 3097 
Q 1497 3097 1228 2736 
Q 959 2375 959 1747 
Q 959 1119 1226 758 
Q 1494 397 1959 397 
Q 2419 397 2687 759 
Q 2956 1122 2956 1747 
Q 2956 2369 2687 2733 
Q 2419 3097 1959 3097 
z
M 1959 3584 
Q 2709 3584 3137 3096 
Q 3566 2609 3566 1747 
Q 3566 888 3137 398 
Q 2709 -91 1959 -91 
Q 1206 -91 779 398 
Q 353 888 353 1747 
Q 353 2609 779 3096 
Q 1206 3584 1959 3584 
z
" transform="scale(0.015625)"/>
       <path id="DejaVuSans-47" d="M 2906 2969 
L 2906 4863 
L 3481 4863 
L 3481 0 
L 2906 0 
L 2906 525 
Q 2725 213 2448 61 
Q 2172 -91 1784 -91 
Q 1150 -91 751 415 
Q 353 922 353 1747 
Q 353 2572 751 3078 
Q 1150 3584 1784 3584 
Q 2172 3584 2448 3432 
Q 2725 3281 2906 2969 
z
M 947 1747 
Q 947 1113 1208 752 
Q 1469 391 1925 391 
Q 2381 391 2643 752 
Q 2906 1113 2906 1747 
Q 2906 2381 2643 2742 
Q 2381 3103 1925 3103 
Q 1469 3103 1208 2742 
Q 947 2381 947 1747 
z
" transform="scale(0.015625)"/>
       <path id="DejaVuSans-57" d="M 1172 4494 
L 1172 3500 
L 2356 3500 
L 2356 3053 
L 1172 3053 
L 1172 1153 
Q 1172 725 1289 603 
Q 1406 481 1766 481 
L 2356 481 
L 2356 0 
L 1766 0 
Q 1100 0 847 248 
Q 594 497 594 1153 
L 594 3053 
L 172 3053 
L 172 3500 
L 594 3500 
L 594 4494 
L 1172 4494 
z
" transform="scale(0.015625)"/>
       <path id="DejaVuSans-5c" d="M 2059 -325 
Q 1816 -950 1584 -1140 
Q 1353 -1331 966 -1331 
L 506 -1331 
L 506 -850 
L 844 -850 
Q 1081 -850 1212 -737 
Q 1344 -625 1503 -206 
L 1606 56 
L 191 3500 
L 800 3500 
L 1894 763 
L 2988 3500 
L 3597 3500 
L 2059 -325 
z
" transform="scale(0.015625)"/>
       <path id="DejaVuSans-b" d="M 1984 4856 
Q 1566 4138 1362 3434 
Q 1159 2731 1159 2009 
Q 1159 1288 1364 580 
Q 1569 -128 1984 -844 
L 1484 -844 
Q 1016 -109 783 600 
Q 550 1309 550 2009 
Q 550 2706 781 3412 
Q 1013 4119 1484 4856 
L 1984 4856 
z
" transform="scale(0.015625)"/>
       <path id="DejaVuSans-5a" d="M 269 3500 
L 844 3500 
L 1563 769 
L 2278 3500 
L 2956 3500 
L 3675 769 
L 4391 3500 
L 4966 3500 
L 4050 0 
L 3372 0 
L 2619 2869 
L 1863 0 
L 1184 0 
L 269 3500 
z
" transform="scale(0.015625)"/>
       <path id="DejaVuSans-20" d="M 678 2906 
L 4684 2906 
L 4684 2381 
L 678 2381 
L 678 2906 
z
M 678 1631 
L 4684 1631 
L 4684 1100 
L 678 1100 
L 678 1631 
z
" transform="scale(0.015625)"/>
       <path id="DejaVuSans-c" d="M 513 4856 
L 1013 4856 
Q 1481 4119 1714 3412 
Q 1947 2706 1947 2009 
Q 1947 1309 1714 600 
Q 1481 -109 1013 -844 
L 513 -844 
Q 928 -128 1133 580 
Q 1338 1288 1338 2009 
Q 1338 2731 1133 3434 
Q 928 4138 513 4856 
z
" transform="scale(0.015625)"/>
      </defs>
      <use xlink:href="#DejaVuSans-50"/>
      <use xlink:href="#DejaVuSans-4c" transform="translate(97.40625 0)"/>
      <use xlink:href="#DejaVuSans-51" transform="translate(125.1875 0)"/>
      <use xlink:href="#DejaVuSans-4c" transform="translate(188.5625 0)"/>
      <use xlink:href="#DejaVuSans-50" transform="translate(216.34375 0)"/>
      <use xlink:href="#DejaVuSans-58" transform="translate(313.75 0)"/>
      <use xlink:href="#DejaVuSans-50" transform="translate(377.125 0)"/>
      <use xlink:href="#DejaVuSans-3" transform="translate(474.53125 0)"/>
      <use xlink:href="#DejaVuSans-55" transform="translate(506.3125 0)"/>
      <use xlink:href="#DejaVuSans-48" transform="translate(545.21875 0)"/>
      <use xlink:href="#DejaVuSans-44" transform="translate(606.75 0)"/>
      <use xlink:href="#DejaVuSans-46" transform="translate(668.03125 0)"/>
      <use xlink:href="#DejaVuSans-4b" transform="translate(723.015625 0)"/>
      <use xlink:href="#DejaVuSans-44" transform="translate(786.390625 0)"/>
      <use xlink:href="#DejaVuSans-45" transform="translate(847.671875 0)"/>
      <use xlink:href="#DejaVuSans-4f" transform="translate(911.15625 0)"/>
      <use xlink:href="#DejaVuSans-48" transform="translate(938.9375 0)"/>
      <use xlink:href="#DejaVuSans-3" transform="translate(1000.46875 0)"/>
      <use xlink:href="#DejaVuSans-14" transform="translate(1032.25 0)"/>
      <use xlink:href="#DejaVuSans-15" transform="translate(1095.875 0)"/>
      <use xlink:href="#DejaVuSans-13" transform="translate(1159.5 0)"/>
      <use xlink:href="#DejaVuSans-10" transform="translate(1223.125 0)"/>
      <use xlink:href="#DejaVuSans-53" transform="translate(1259.203125 0)"/>
      <use xlink:href="#DejaVuSans-44" transform="translate(1322.6875 0)"/>
      <use xlink:href="#DejaVuSans-4c" transform="translate(1383.96875 0)"/>
      <use xlink:href="#DejaVuSans-55" transform="translate(1411.75 0)"/>
      <use xlink:href="#DejaVuSans-3" transform="translate(1452.859375 0)"/>
      <use xlink:href="#DejaVuSans-46" transform="translate(1484.640625 0)"/>
      <use xlink:href="#DejaVuSans-52" transform="translate(1539.625 0)"/>
      <use xlink:href="#DejaVuSans-51" transform="translate(1600.8125 0)"/>
      <use xlink:href="#DejaVuSans-47" transform="translate(1664.1875 0)"/>
      <use xlink:href="#DejaVuSans-4c" transform="translate(1727.671875 0)"/>
      <use xlink:href="#DejaVuSans-57" transform="translate(1755.453125 0)"/>
      <use xlink:href="#DejaVuSans-4c" transform="translate(1794.65625 0)"/>
      <use xlink:href="#DejaVuSans-52" transform="translate(1822.4375 0)"/>
      <use xlink:href="#DejaVuSans-51" transform="translate(1883.625 0)"/>
      <use xlink:href="#DejaVuSans-44" transform="translate(1947 0)"/>
      <use xlink:href="#DejaVuSans-4f" transform="translate(2008.28125 0)"/>
      <use xlink:href="#DejaVuSans-3" transform="translate(2036.0625 0)"/>
      <use xlink:href="#DejaVuSans-47" transform="translate(2067.84375 0)"/>
      <use xlink:href="#DejaVuSans-48" transform="translate(2131.328125 0)"/>
      <use xlink:href="#DejaVuSans-53" transform="translate(2192.859375 0)"/>
      <use xlink:href="#DejaVuSans-48" transform="translate(2256.34375 0)"/>
      <use xlink:href="#DejaVuSans-51" transform="translate(2317.875 0)"/>
      <use xlink:href="#DejaVuSans-47" transform="translate(2381.25 0)"/>
      <use xlink:href="#DejaVuSans-48" transform="translate(2444.734375 0)"/>
      <use xlink:href="#DejaVuSans-51" transform="translate(2506.265625 0)"/>
      <use xlink:href="#DejaVuSans-46" transform="translate(2569.640625 0)"/>
      <use xlink:href="#DejaVuSans-5c" transform="translate(2624.625 0)"/>
      <use xlink:href="#DejaVuSans-3" transform="translate(2683.8125 0)"/>
      <use xlink:href="#DejaVuSans-48" transform="translate(2715.59375 0)"/>
      <use xlink:href="#DejaVuSans-55" transform="translate(2777.125 0)"/>
      <use xlink:href="#DejaVuSans-55" transform="translate(2816.484375 0)"/>
      <use xlink:href="#DejaVuSans-52" transform="translate(2855.390625 0)"/>
      <use xlink:href="#DejaVuSans-55" transform="translate(2916.578125 0)"/>
      <use xlink:href="#DejaVuSans-3" transform="translate(2957.6875 0)"/>
      <use xlink:href="#DejaVuSans-3" transform="translate(2989.46875 0)"/>
      <use xlink:href="#DejaVuSans-b" transform="translate(3021.25 0)"/>
      <use xlink:href="#DejaVuSans-4f" transform="translate(3060.265625 0)"/>
      <use xlink:href="#DejaVuSans-52" transform="translate(3088.046875 0)"/>
      <use xlink:href="#DejaVuSans-5a" transform="translate(3149.234375 0)"/>
      <use xlink:href="#DejaVuSans-48" transform="translate(3231.015625 0)"/>
      <use xlink:href="#DejaVuSans-55" transform="translate(3292.546875 0)"/>
      <use xlink:href="#DejaVuSans-3" transform="translate(3333.65625 0)"/>
      <use xlink:href="#DejaVuSans-20" transform="translate(3365.4375 0)"/>
      <use xlink:href="#DejaVuSans-3" transform="translate(3449.234375 0)"/>
      <use xlink:href="#DejaVuSans-45" transform="translate(3481.015625 0)"/>
      <use xlink:href="#DejaVuSans-48" transform="translate(3544.5 0)"/>
      <use xlink:href="#DejaVuSans-57" transform="translate(3606.03125 0)"/>
      <use xlink:href="#DejaVuSans-57" transform="translate(3645.234375 0)"/>
      <use xlink:href="#DejaVuSans-48" transform="translate(3684.4375 0)"/>
      <use xlink:href="#DejaVuSans-55" transform="translate(3745.96875 0)"/>
      <use xlink:href="#DejaVuSans-c" transform="translate(3787.078125 0)"/>
     </g>
    </g>
   </g>
   <g id="matplotlib.axis_2">
    <g id="ytick_1">
     <g id="line2d_7">
      <defs>
       <path id="m80206525ac" d="M 0 0 
L -3.5 0 
" style="stroke: #444444; stroke-width: 0.8"/>
      </defs>
      <g>
       <use xlink:href="#m80206525ac" x="77.042187" y="78.890962" style="fill: #444444; stroke: #444444; stroke-width: 0.8"/>
      </g>
     </g>
     <g id="text_8">
      <!-- aligned -->
      <g style="fill: #444444" transform="translate(33.170312 77.189693) scale(0.1 -0.1)">
       <defs>
        <path id="DejaVuSans-4a" d="M 2906 1791 
Q 2906 2416 2648 2759 
Q 2391 3103 1925 3103 
Q 1463 3103 1205 2759 
Q 947 2416 947 1791 
Q 947 1169 1205 825 
Q 1463 481 1925 481 
Q 2391 481 2648 825 
Q 2906 1169 2906 1791 
z
M 3481 434 
Q 3481 -459 3084 -895 
Q 2688 -1331 1869 -1331 
Q 1566 -1331 1297 -1286 
Q 1028 -1241 775 -1147 
L 775 -588 
Q 1028 -725 1275 -790 
Q 1522 -856 1778 -856 
Q 2344 -856 2625 -561 
Q 2906 -266 2906 331 
L 2906 616 
Q 2728 306 2450 153 
Q 2172 0 1784 0 
Q 1141 0 747 490 
Q 353 981 353 1791 
Q 353 2603 747 3093 
Q 1141 3584 1784 3584 
Q 2172 3584 2450 3431 
Q 2728 3278 2906 2969 
L 2906 3500 
L 3481 3500 
L 3481 434 
z
" transform="scale(0.015625)"/>
       </defs>
       <use xlink:href="#DejaVuSans-44"/>
       <use xlink:href="#DejaVuSans-4f" transform="translate(61.28125 0)"/>
       <use xlink:href="#DejaVuSans-4c" transform="translate(89.0625 0)"/>
       <use xlink:href="#DejaVuSans-4a" transform="translate(116.84375 0)"/>
       <use xlink:href="#DejaVuSans-51" transform="translate(180.328125 0)"/>
       <use xlink:href="#DejaVuSans-48" transform="translate(243.703125 0)"/>
       <use xlink:href="#DejaVuSans-47" transform="translate(305.234375 0)"/>
      </g>
      <!-- (CDG) -->
      <g style="fill: #444444" transform="translate(39.807812 89.191646) scale(0.1 -0.1)">
       <defs>
        <path id="DejaVuSans-26" d="M 4122 4306 
L 4122 3641 
Q 3803 3938 3442 4084 
Q 3081 4231 2675 4231 
Q 1875 4231 1450 3742 
Q 1025 3253 1025 2328 
Q 1025 1406 1450 917 
Q 1875 428 2675 428 
Q 3081 428 3442 575 
Q 3803 722 4122 1019 
L 4122 359 
Q 3791 134 3420 21 
Q 3050 -91 2638 -91 
Q 1578 -91 968 557 
Q 359 1206 359 2328 
Q 359 3453 968 4101 
Q 1578 4750 2638 4750 
Q 3056 4750 3426 4639 
Q 3797 4528 4122 4306 
z
" transform="scale(0.015625)"/>
        <path id="DejaVuSans-27" d="M 1259 4147 
L 1259 519 
L 2022 519 
Q 2988 519 3436 956 
Q 3884 1394 3884 2338 
Q 3884 3275 3436 3711 
Q 2988 4147 2022 4147 
L 1259 4147 
z
M 628 4666 
L 1925 4666 
Q 3281 4666 3915 4102 
Q 4550 3538 4550 2338 
Q 4550 1131 3912 565 
Q 3275 0 1925 0 
L 628 0 
L 628 4666 
z
" transform="scale(0.015625)"/>
        <path id="DejaVuSans-2a" d="M 3809 666 
L 3809 1919 
L 2778 1919 
L 2778 2438 
L 4434 2438 
L 4434 434 
Q 4069 175 3628 42 
Q 3188 -91 2688 -91 
Q 1594 -91 976 548 
Q 359 1188 359 2328 
Q 359 3472 976 4111 
Q 1594 4750 2688 4750 
Q 3144 4750 3555 4637 
Q 3966 4525 4313 4306 
L 4313 3634 
Q 3963 3931 3569 4081 
Q 3175 4231 2741 4231 
Q 1884 4231 1454 3753 
Q 1025 3275 1025 2328 
Q 1025 1384 1454 906 
Q 1884 428 2741 428 
Q 3075 428 3337 486 
Q 3600 544 3809 666 
z
" transform="scale(0.015625)"/>
       </defs>
       <use xlink:href="#DejaVuSans-b"/>
       <use xlink:href="#DejaVuSans-26" transform="translate(39.015625 0)"/>
       <use xlink:href="#DejaVuSans-27" transform="translate(108.84375 0)"/>
       <use xlink:href="#DejaVuSans-2a" transform="translate(185.84375 0)"/>
       <use xlink:href="#DejaVuSans-c" transform="translate(263.328125 0)"/>
      </g>
     </g>
    </g>
    <g id="ytick_2">
     <g id="line2d_8">
      <g>
       <use xlink:href="#m80206525ac" x="77.042187" y="114.502057" style="fill: #444444; stroke: #444444; stroke-width: 0.8"/>
      </g>
     </g>
     <g id="text_9">
      <!-- permuted -->
      <g style="fill: #444444" transform="translate(21.104687 112.800397) scale(0.1 -0.1)">
       <use xlink:href="#DejaVuSans-53"/>
       <use xlink:href="#DejaVuSans-48" transform="translate(63.484375 0)"/>
       <use xlink:href="#DejaVuSans-55" transform="translate(125.015625 0)"/>
       <use xlink:href="#DejaVuSans-50" transform="translate(164.375 0)"/>
       <use xlink:href="#DejaVuSans-58" transform="translate(261.78125 0)"/>
       <use xlink:href="#DejaVuSans-57" transform="translate(325.15625 0)"/>
       <use xlink:href="#DejaVuSans-48" transform="translate(364.359375 0)"/>
       <use xlink:href="#DejaVuSans-47" transform="translate(425.890625 0)"/>
      </g>
      <!-- (isomorphic) -->
      <g style="fill: #444444" transform="translate(7.2 124.803131) scale(0.1 -0.1)">
       <defs>
        <path id="DejaVuSans-56" d="M 2834 3397 
L 2834 2853 
Q 2591 2978 2328 3040 
Q 2066 3103 1784 3103 
Q 1356 3103 1142 2972 
Q 928 2841 928 2578 
Q 928 2378 1081 2264 
Q 1234 2150 1697 2047 
L 1894 2003 
Q 2506 1872 2764 1633 
Q 3022 1394 3022 966 
Q 3022 478 2636 193 
Q 2250 -91 1575 -91 
Q 1294 -91 989 -36 
Q 684 19 347 128 
L 347 722 
Q 666 556 975 473 
Q 1284 391 1588 391 
Q 1994 391 2212 530 
Q 2431 669 2431 922 
Q 2431 1156 2273 1281 
Q 2116 1406 1581 1522 
L 1381 1569 
Q 847 1681 609 1914 
Q 372 2147 372 2553 
Q 372 3047 722 3315 
Q 1072 3584 1716 3584 
Q 2034 3584 2315 3537 
Q 2597 3491 2834 3397 
z
" transform="scale(0.015625)"/>
       </defs>
       <use xlink:href="#DejaVuSans-b"/>
       <use xlink:href="#DejaVuSans-4c" transform="translate(39.015625 0)"/>
       <use xlink:href="#DejaVuSans-56" transform="translate(66.796875 0)"/>
       <use xlink:href="#DejaVuSans-52" transform="translate(118.890625 0)"/>
       <use xlink:href="#DejaVuSans-50" transform="translate(180.078125 0)"/>
       <use xlink:href="#DejaVuSans-52" transform="translate(277.484375 0)"/>
       <use xlink:href="#DejaVuSans-55" transform="translate(338.671875 0)"/>
       <use xlink:href="#DejaVuSans-53" transform="translate(379.78125 0)"/>
       <use xlink:href="#DejaVuSans-4b" transform="translate(443.265625 0)"/>
       <use xlink:href="#DejaVuSans-4c" transform="translate(506.640625 0)"/>
       <use xlink:href="#DejaVuSans-46" transform="translate(534.421875 0)"/>
       <use xlink:href="#DejaVuSans-c" transform="translate(589.40625 0)"/>
      </g>
     </g>
    </g>
    <g id="ytick_3">
     <g id="line2d_9">
      <g>
       <use xlink:href="#m80206525ac" x="77.042187" y="150.113152" style="fill: #444444; stroke: #444444; stroke-width: 0.8"/>
      </g>
     </g>
     <g id="text_10">
      <!-- distmatched -->
      <g style="fill: #444444" transform="translate(7.659375 153.912371) scale(0.1 -0.1)">
       <use xlink:href="#DejaVuSans-47"/>
       <use xlink:href="#DejaVuSans-4c" transform="translate(63.484375 0)"/>
       <use xlink:href="#DejaVuSans-56" transform="translate(91.265625 0)"/>
       <use xlink:href="#DejaVuSans-57" transform="translate(143.359375 0)"/>
       <use xlink:href="#DejaVuSans-50" transform="translate(182.5625 0)"/>
       <use xlink:href="#DejaVuSans-44" transform="translate(279.96875 0)"/>
       <use xlink:href="#DejaVuSans-57" transform="translate(341.25 0)"/>
       <use xlink:href="#DejaVuSans-46" transform="translate(380.453125 0)"/>
       <use xlink:href="#DejaVuSans-4b" transform="translate(435.4375 0)"/>
       <use xlink:href="#DejaVuSans-48" transform="translate(498.8125 0)"/>
       <use xlink:href="#DejaVuSans-47" transform="translate(560.34375 0)"/>
      </g>
     </g>
    </g>
    <g id="ytick_4">
     <g id="line2d_10">
      <g>
       <use xlink:href="#m80206525ac" x="77.042187" y="185.724247" style="fill: #444444; stroke: #444444; stroke-width: 0.8"/>
      </g>
     </g>
     <g id="text_11">
      <!-- rewired -->
      <g style="fill: #444444" transform="translate(32.65 189.523466) scale(0.1 -0.1)">
       <use xlink:href="#DejaVuSans-55"/>
       <use xlink:href="#DejaVuSans-48" transform="translate(38.90625 0)"/>
       <use xlink:href="#DejaVuSans-5a" transform="translate(100.4375 0)"/>
       <use xlink:href="#DejaVuSans-4c" transform="translate(182.21875 0)"/>
       <use xlink:href="#DejaVuSans-55" transform="translate(210 0)"/>
       <use xlink:href="#DejaVuSans-48" transform="translate(248.90625 0)"/>
       <use xlink:href="#DejaVuSans-47" transform="translate(310.4375 0)"/>
      </g>
     </g>
    </g>
    <g id="ytick_5">
     <g id="line2d_11">
      <g>
       <use xlink:href="#m80206525ac" x="77.042187" y="221.335342" style="fill: #444444; stroke: #444444; stroke-width: 0.8"/>
      </g>
     </g>
     <g id="text_12">
      <!-- no_entangle -->
      <g style="fill: #444444" transform="translate(8.429687 225.134561) scale(0.1 -0.1)">
       <defs>
        <path id="DejaVuSans-42" d="M 3263 -1063 
L 3263 -1509 
L -63 -1509 
L -63 -1063 
L 3263 -1063 
z
" transform="scale(0.015625)"/>
       </defs>
       <use xlink:href="#DejaVuSans-51"/>
       <use xlink:href="#DejaVuSans-52" transform="translate(63.375 0)"/>
       <use xlink:href="#DejaVuSans-42" transform="translate(124.5625 0)"/>
       <use xlink:href="#DejaVuSans-48" transform="translate(174.5625 0)"/>
       <use xlink:href="#DejaVuSans-51" transform="translate(236.09375 0)"/>
       <use xlink:href="#DejaVuSans-57" transform="translate(299.46875 0)"/>
       <use xlink:href="#DejaVuSans-44" transform="translate(338.671875 0)"/>
       <use xlink:href="#DejaVuSans-51" transform="translate(399.953125 0)"/>
       <use xlink:href="#DejaVuSans-4a" transform="translate(463.328125 0)"/>
       <use xlink:href="#DejaVuSans-4f" transform="translate(526.8125 0)"/>
       <use xlink:href="#DejaVuSans-48" transform="translate(554.59375 0)"/>
      </g>
     </g>
    </g>
   </g>
   <g id="patch_4">
    <path d="M 77.042187 281.874203 
L 77.042187 37.938203 
" style="fill: none; stroke: #444444; stroke-width: 0.8; stroke-linejoin: miter; stroke-linecap: square"/>
   </g>
   <g id="patch_5">
    <path d="M 77.042187 281.874203 
L 512.282188 281.874203 
" style="fill: none; stroke: #444444; stroke-width: 0.8; stroke-linejoin: miter; stroke-linecap: square"/>
   </g>
   <g id="patch_6">
    <path d="M 77.042187 89.930402 
L 245.360665 89.930402 
L 245.360665 67.851523 
L 77.042187 67.851523 
z
" clip-path="url(#p6f0032636d)" style="fill: #2e8b57"/>
   </g>
   <g id="patch_7">
    <path d="M 77.042187 125.541497 
L 320.468453 125.541497 
L 320.468453 103.462618 
L 77.042187 103.462618 
z
" clip-path="url(#p6f0032636d)" style="fill: #2c6fbb"/>
   </g>
   <g id="patch_8">
    <path d="M 77.042187 161.152591 
L 346.274718 161.152591 
L 346.274718 139.073713 
L 77.042187 139.073713 
z
" clip-path="url(#p6f0032636d)" style="fill: #2c6fbb"/>
   </g>
   <g id="patch_9">
    <path d="M 77.042187 196.763686 
L 358.214931 196.763686 
L 358.214931 174.684808 
L 77.042187 174.684808 
z
" clip-path="url(#p6f0032636d)" style="fill: #2c6fbb"/>
   </g>
   <g id="patch_10">
    <path d="M 77.042187 232.374781 
L 450.270117 232.374781 
L 450.270117 210.295902 
L 77.042187 210.295902 
z
" clip-path="url(#p6f0032636d)" style="fill: #8a8a8a"/>
   </g>
   <g id="text_13">
    <!-- unreachable -->
    <g style="fill: #555555" transform="translate(115.951265 42.557641) scale(0.08 -0.08)">
     <use xlink:href="#DejaVuSans-58"/>
     <use xlink:href="#DejaVuSans-51" transform="translate(63.375 0)"/>
     <use xlink:href="#DejaVuSans-55" transform="translate(126.75 0)"/>
     <use xlink:href="#DejaVuSans-48" transform="translate(165.65625 0)"/>
     <use xlink:href="#DejaVuSans-44" transform="translate(227.1875 0)"/>
     <use xlink:href="#DejaVuSans-46" transform="translate(288.46875 0)"/>
     <use xlink:href="#DejaVuSans-4b" transform="translate(343.453125 0)"/>
     <use xlink:href="#DejaVuSans-44" transform="translate(406.828125 0)"/>
     <use xlink:href="#DejaVuSans-45" transform="translate(468.109375 0)"/>
     <use xlink:href="#DejaVuSans-4f" transform="translate(531.59375 0)"/>
     <use xlink:href="#DejaVuSans-48" transform="translate(559.375 0)"/>
    </g>
    <!-- (Corollary 1) -->
    <g style="fill: #555555" transform="translate(115.920015 52.182641) scale(0.08 -0.08)">
     <use xlink:href="#DejaVuSans-b"/>
     <use xlink:href="#DejaVuSans-26" transform="translate(39.015625 0)"/>
     <use xlink:href="#DejaVuSans-52" transform="translate(108.84375 0)"/>
     <use xlink:href="#DejaVuSans-55" transform="translate(170.03125 0)"/>
     <use xlink:href="#DejaVuSans-52" transform="translate(208.9375 0)"/>
     <use xlink:href="#DejaVuSans-4f" transform="translate(270.125 0)"/>
     <use xlink:href="#DejaVuSans-4f" transform="translate(297.90625 0)"/>
     <use xlink:href="#DejaVuSans-44" transform="translate(325.6875 0)"/>
     <use xlink:href="#DejaVuSans-55" transform="translate(386.96875 0)"/>
     <use xlink:href="#DejaVuSans-5c" transform="translate(428.078125 0)"/>
     <use xlink:href="#DejaVuSans-3" transform="translate(487.265625 0)"/>
     <use xlink:href="#DejaVuSans-14" transform="translate(519.046875 0)"/>
     <use xlink:href="#DejaVuSans-c" transform="translate(582.671875 0)"/>
    </g>
   </g>
   <g id="text_14">
    <!-- floor 0.0985 -->
    <g style="fill: #c0392b" transform="translate(430.586166 253.60146) scale(0.085 -0.085)">
     <defs>
      <path id="DejaVuSans-13b0" d="M 1831 4863 
L 3431 4863 
L 3431 0 
L 2853 0 
L 2853 4384 
L 1825 4384 
Q 1516 4384 1395 4259 
Q 1275 4134 1275 3809 
L 1275 3500 
L 2222 3500 
L 2222 3053 
L 1275 3053 
L 1275 0 
L 697 0 
L 697 3053 
L 147 3053 
L 147 3500 
L 697 3500 
L 697 3744 
Q 697 4328 969 4595 
Q 1241 4863 1831 4863 
z
" transform="scale(0.015625)"/>
      <path id="DejaVuSans-1c" d="M 703 97 
L 703 672 
Q 941 559 1184 500 
Q 1428 441 1663 441 
Q 2288 441 2617 861 
Q 2947 1281 2994 2138 
Q 2813 1869 2534 1725 
Q 2256 1581 1919 1581 
Q 1219 1581 811 2004 
Q 403 2428 403 3163 
Q 403 3881 828 4315 
Q 1253 4750 1959 4750 
Q 2769 4750 3195 4129 
Q 3622 3509 3622 2328 
Q 3622 1225 3098 567 
Q 2575 -91 1691 -91 
Q 1453 -91 1209 -44 
Q 966 3 703 97 
z
M 1959 2075 
Q 2384 2075 2632 2365 
Q 2881 2656 2881 3163 
Q 2881 3666 2632 3958 
Q 2384 4250 1959 4250 
Q 1534 4250 1286 3958 
Q 1038 3666 1038 3163 
Q 1038 2656 1286 2365 
Q 1534 2075 1959 2075 
z
" transform="scale(0.015625)"/>
      <path id="DejaVuSans-18" d="M 691 4666 
L 3169 4666 
L 3169 4134 
L 1269 4134 
L 1269 2991 
Q 1406 3038 1543 3061 
Q 1681 3084 1819 3084 
Q 2600 3084 3056 2656 
Q 3513 2228 3513 1497 
Q 3513 744 3044 326 
Q 2575 -91 1722 -91 
Q 1428 -91 1123 -41 
Q 819 9 494 109 
L 494 744 
Q 775 591 1075 516 
Q 1375 441 1709 441 
Q 2250 441 2565 725 
Q 2881 1009 2881 1497 
Q 2881 1984 2565 2268 
Q 2250 2553 1709 2553 
Q 1456 2553 1204 2497 
Q 953 2441 691 2322 
L 691 4666 
z
" transform="scale(0.015625)"/>
     </defs>
     <use xlink:href="#DejaVuSans-13b0"/>
     <use xlink:href="#DejaVuSans-52" transform="translate(62.984375 0)"/>
     <use xlink:href="#DejaVuSans-52" transform="translate(124.171875 0)"/>
     <use xlink:href="#DejaVuSans-55" transform="translate(185.359375 0)"/>
     <use xlink:href="#DejaVuSans-3" transform="translate(226.46875 0)"/>
     <use xlink:href="#DejaVuSans-13" transform="translate(258.25 0)"/>
     <use xlink:href="#DejaVuSans-11" transform="translate(321.875 0)"/>
     <use xlink:href="#DejaVuSans-13" transform="translate(353.65625 0)"/>
     <use xlink:href="#DejaVuSans-1c" transform="translate(417.28125 0)"/>
     <use xlink:href="#DejaVuSans-1b" transform="translate(480.90625 0)"/>
     <use xlink:href="#DejaVuSans-18" transform="translate(544.53125 0)"/>
    </g>
    <!-- no dependency at all -->
    <g style="fill: #c0392b" transform="translate(411.671674 264.678022) scale(0.085 -0.085)">
     <use xlink:href="#DejaVuSans-51"/>
     <use xlink:href="#DejaVuSans-52" transform="translate(63.375 0)"/>
     <use xlink:href="#DejaVuSans-3" transform="translate(124.5625 0)"/>
     <use xlink:href="#DejaVuSans-47" transform="translate(156.34375 0)"/>
     <use xlink:href="#DejaVuSans-48" transform="translate(219.828125 0)"/>
     <use xlink:href="#DejaVuSans-53" transform="translate(281.359375 0)"/>
     <use xlink:href="#DejaVuSans-48" transform="translate(344.84375 0)"/>
     <use xlink:href="#DejaVuSans-51" transform="translate(406.375 0)"/>
     <use xlink:href="#DejaVuSans-47" transform="translate(469.75 0)"/>
     <use xlink:href="#DejaVuSans-48" transform="translate(533.234375 0)"/>
     <use xlink:href="#DejaVuSans-51" transform="translate(594.765625 0)"/>
     <use xlink:href="#DejaVuSans-46" transform="translate(658.140625 0)"/>
     <use xlink:href="#DejaVuSans-5c" transform="translate(713.125 0)"/>
     <use xlink:href="#DejaVuSans-3" transform="translate(772.3125 0)"/>
     <use xlink:href="#DejaVuSans-44" transform="translate(804.09375 0)"/>
     <use xlink:href="#DejaVuSans-57" transform="translate(865.375 0)"/>
     <use xlink:href="#DejaVuSans-3" transform="translate(904.578125 0)"/>
     <use xlink:href="#DejaVuSans-44" transform="translate(936.359375 0)"/>
     <use xlink:href="#DejaVuSans-4f" transform="translate(997.640625 0)"/>
     <use xlink:href="#DejaVuSans-4f" transform="translate(1025.421875 0)"/>
    </g>
   </g>
   <g id="text_15">
    <!-- 0.0437 -->
    <g style="fill: #222222" transform="translate(251.523356 81.228853) scale(0.09 -0.09)">
     <defs>
      <path id="DejaVuSans-16" d="M 2597 2516 
Q 3050 2419 3304 2112 
Q 3559 1806 3559 1356 
Q 3559 666 3084 287 
Q 2609 -91 1734 -91 
Q 1441 -91 1130 -33 
Q 819 25 488 141 
L 488 750 
Q 750 597 1062 519 
Q 1375 441 1716 441 
Q 2309 441 2620 675 
Q 2931 909 2931 1356 
Q 2931 1769 2642 2001 
Q 2353 2234 1838 2234 
L 1294 2234 
L 1294 2753 
L 1863 2753 
Q 2328 2753 2575 2939 
Q 2822 3125 2822 3475 
Q 2822 3834 2567 4026 
Q 2313 4219 1838 4219 
Q 1578 4219 1281 4162 
Q 984 4106 628 3988 
L 628 4550 
Q 988 4650 1302 4700 
Q 1616 4750 1894 4750 
Q 2613 4750 3031 4423 
Q 3450 4097 3450 3541 
Q 3450 3153 3228 2886 
Q 3006 2619 2597 2516 
z
" transform="scale(0.015625)"/>
      <path id="DejaVuSans-1a" d="M 525 4666 
L 3525 4666 
L 3525 4397 
L 1831 0 
L 1172 0 
L 2766 4134 
L 525 4134 
L 525 4666 
z
" transform="scale(0.015625)"/>
     </defs>
     <use xlink:href="#DejaVuSans-13"/>
     <use xlink:href="#DejaVuSans-11" transform="translate(63.625 0)"/>
     <use xlink:href="#DejaVuSans-13" transform="translate(95.40625 0)"/>
     <use xlink:href="#DejaVuSans-17" transform="translate(159.03125 0)"/>
     <use xlink:href="#DejaVuSans-16" transform="translate(222.65625 0)"/>
     <use xlink:href="#DejaVuSans-1a" transform="translate(286.28125 0)"/>
    </g>
   </g>
   <g id="text_16">
    <!-- 0.0632 -->
    <g style="fill: #222222" transform="translate(326.631143 116.839948) scale(0.09 -0.09)">
     <use xlink:href="#DejaVuSans-13"/>
     <use xlink:href="#DejaVuSans-11" transform="translate(63.625 0)"/>
     <use xlink:href="#DejaVuSans-13" transform="translate(95.40625 0)"/>
     <use xlink:href="#DejaVuSans-19" transform="translate(159.03125 0)"/>
     <use xlink:href="#DejaVuSans-16" transform="translate(222.65625 0)"/>
     <use xlink:href="#DejaVuSans-15" transform="translate(286.28125 0)"/>
    </g>
   </g>
   <g id="text_17">
    <!-- 0.0699 -->
    <g style="fill: #222222" transform="translate(352.437409 152.451043) scale(0.09 -0.09)">
     <use xlink:href="#DejaVuSans-13"/>
     <use xlink:href="#DejaVuSans-11" transform="translate(63.625 0)"/>
     <use xlink:href="#DejaVuSans-13" transform="translate(95.40625 0)"/>
     <use xlink:href="#DejaVuSans-19" transform="translate(159.03125 0)"/>
     <use xlink:href="#DejaVuSans-1c" transform="translate(222.65625 0)"/>
     <use xlink:href="#DejaVuSans-1c" transform="translate(286.28125 0)"/>
    </g>
   </g>
   <g id="text_18">
    <!-- 0.0730 -->
    <g style="fill: #222222" transform="translate(364.377621 188.062138) scale(0.09 -0.09)">
     <use xlink:href="#DejaVuSans-13"/>
     <use xlink:href="#DejaVuSans-11" transform="translate(63.625 0)"/>
     <use xlink:href="#DejaVuSans-13" transform="translate(95.40625 0)"/>
     <use xlink:href="#DejaVuSans-1a" transform="translate(159.03125 0)"/>
     <use xlink:href="#DejaVuSans-16" transform="translate(222.65625 0)"/>
     <use xlink:href="#DejaVuSans-13" transform="translate(286.28125 0)"/>
    </g>
   </g>
   <g id="text_19">
    <!-- 0.0969 -->
    <g style="fill: #222222" transform="translate(456.432807 223.673232) scale(0.09 -0.09)">
     <use xlink:href="#DejaVuSans-13"/>
     <use xlink:href="#DejaVuSans-11" transform="translate(63.625 0)"/>
     <use xlink:href="#DejaVuSans-13" transform="translate(95.40625 0)"/>
     <use xlink:href="#DejaVuSans-1c" transform="translate(159.03125 0)"/>
     <use xlink:href="#DejaVuSans-19" transform="translate(222.65625 0)"/>
     <use xlink:href="#DejaVuSans-1c" transform="translate(286.28125 0)"/>
    </g>
   </g>
   <g id="text_20">
    <!-- Real MIMIC-IV · same 21-edge budget — only the placement differs -->
    <g style="fill: #222222" transform="translate(101.352578 15.938203) scale(0.115 -0.115)">
     <defs>
      <path id="DejaVuSans-35" d="M 2841 2188 
Q 3044 2119 3236 1894 
Q 3428 1669 3622 1275 
L 4263 0 
L 3584 0 
L 2988 1197 
Q 2756 1666 2539 1819 
Q 2322 1972 1947 1972 
L 1259 1972 
L 1259 0 
L 628 0 
L 628 4666 
L 2053 4666 
Q 2853 4666 3247 4331 
Q 3641 3997 3641 3322 
Q 3641 2881 3436 2590 
Q 3231 2300 2841 2188 
z
M 1259 4147 
L 1259 2491 
L 2053 2491 
Q 2509 2491 2742 2702 
Q 2975 2913 2975 3322 
Q 2975 3731 2742 3939 
Q 2509 4147 2053 4147 
L 1259 4147 
z
" transform="scale(0.015625)"/>
      <path id="DejaVuSans-30" d="M 628 4666 
L 1569 4666 
L 2759 1491 
L 3956 4666 
L 4897 4666 
L 4897 0 
L 4281 0 
L 4281 4097 
L 3078 897 
L 2444 897 
L 1241 4097 
L 1241 0 
L 628 0 
L 628 4666 
z
" transform="scale(0.015625)"/>
      <path id="DejaVuSans-2c" d="M 628 4666 
L 1259 4666 
L 1259 0 
L 628 0 
L 628 4666 
z
" transform="scale(0.015625)"/>
      <path id="DejaVuSans-39" d="M 1831 0 
L 50 4666 
L 709 4666 
L 2188 738 
L 3669 4666 
L 4325 4666 
L 2547 0 
L 1831 0 
z
" transform="scale(0.015625)"/>
      <path id="DejaVuSans-79" d="M 684 2619 
L 1344 2619 
L 1344 1825 
L 684 1825 
L 684 2619 
z
" transform="scale(0.015625)"/>
      <path id="DejaVuSans-af6" d="M 313 1978 
L 6088 1978 
L 6088 1528 
L 313 1528 
L 313 1978 
z
" transform="scale(0.015625)"/>
      <path id="DejaVuSans-13ae" d="M 4531 4863 
L 4531 4384 
L 3981 4384 
Q 3672 4384 3551 4259 
Q 3431 4134 3431 3809 
L 3431 3500 
L 4378 3500 
L 4378 3053 
L 3431 3053 
L 3431 0 
L 2853 0 
L 2853 3053 
L 1275 3053 
L 1275 0 
L 697 0 
L 697 3053 
L 147 3053 
L 147 3500 
L 697 3500 
L 697 3744 
Q 697 4328 969 4595 
Q 1241 4863 1831 4863 
L 2375 4863 
L 2375 4384 
L 1825 4384 
Q 1516 4384 1394 4259 
Q 1275 4134 1275 3809 
L 1275 3500 
L 2853 3500 
L 2853 3744 
Q 2853 4328 3125 4595 
Q 3397 4863 3988 4863 
L 4531 4863 
z
" transform="scale(0.015625)"/>
     </defs>
     <use xlink:href="#DejaVuSans-35"/>
     <use xlink:href="#DejaVuSans-48" transform="translate(65 0)"/>
     <use xlink:href="#DejaVuSans-44" transform="translate(126.53125 0)"/>
     <use xlink:href="#DejaVuSans-4f" transform="translate(187.8125 0)"/>
     <use xlink:href="#DejaVuSans-3" transform="translate(215.59375 0)"/>
     <use xlink:href="#DejaVuSans-30" transform="translate(247.375 0)"/>
     <use xlink:href="#DejaVuSans-2c" transform="translate(333.65625 0)"/>
     <use xlink:href="#DejaVuSans-30" transform="translate(363.15625 0)"/>
     <use xlink:href="#DejaVuSans-2c" transform="translate(449.4375 0)"/>
     <use xlink:href="#DejaVuSans-26" transform="translate(478.9375 0)"/>
     <use xlink:href="#DejaVuSans-10" transform="translate(548.765625 0)"/>
     <use xlink:href="#DejaVuSans-2c" transform="translate(584.84375 0)"/>
     <use xlink:href="#DejaVuSans-39" transform="translate(614.34375 0)"/>
     <use xlink:href="#DejaVuSans-3" transform="translate(682.75 0)"/>
     <use xlink:href="#DejaVuSans-79" transform="translate(714.53125 0)"/>
     <use xlink:href="#DejaVuSans-3" transform="translate(746.3125 0)"/>
     <use xlink:href="#DejaVuSans-56" transform="translate(778.09375 0)"/>
     <use xlink:href="#DejaVuSans-44" transform="translate(830.1875 0)"/>
     <use xlink:href="#DejaVuSans-50" transform="translate(891.46875 0)"/>
     <use xlink:href="#DejaVuSans-48" transform="translate(988.875 0)"/>
     <use xlink:href="#DejaVuSans-3" transform="translate(1050.40625 0)"/>
     <use xlink:href="#DejaVuSans-15" transform="translate(1082.1875 0)"/>
     <use xlink:href="#DejaVuSans-14" transform="translate(1145.8125 0)"/>
     <use xlink:href="#DejaVuSans-10" transform="translate(1209.4375 0)"/>
     <use xlink:href="#DejaVuSans-48" transform="translate(1245.515625 0)"/>
     <use xlink:href="#DejaVuSans-47" transform="translate(1307.046875 0)"/>
     <use xlink:href="#DejaVuSans-4a" transform="translate(1370.53125 0)"/>
     <use xlink:href="#DejaVuSans-48" transform="translate(1434.015625 0)"/>
     <use xlink:href="#DejaVuSans-3" transform="translate(1495.546875 0)"/>
     <use xlink:href="#DejaVuSans-45" transform="translate(1527.328125 0)"/>
     <use xlink:href="#DejaVuSans-58" transform="translate(1590.8125 0)"/>
     <use xlink:href="#DejaVuSans-47" transform="translate(1654.1875 0)"/>
     <use xlink:href="#DejaVuSans-4a" transform="translate(1717.671875 0)"/>
     <use xlink:href="#DejaVuSans-48" transform="translate(1781.15625 0)"/>
     <use xlink:href="#DejaVuSans-57" transform="translate(1842.6875 0)"/>
     <use xlink:href="#DejaVuSans-3" transform="translate(1881.890625 0)"/>
     <use xlink:href="#DejaVuSans-af6" transform="translate(1913.671875 0)"/>
     <use xlink:href="#DejaVuSans-3" transform="translate(2013.671875 0)"/>
     <use xlink:href="#DejaVuSans-52" transform="translate(2045.453125 0)"/>
     <use xlink:href="#DejaVuSans-51" transform="translate(2106.640625 0)"/>
     <use xlink:href="#DejaVuSans-4f" transform="translate(2170.015625 0)"/>
     <use xlink:href="#DejaVuSans-5c" transform="translate(2197.796875 0)"/>
     <use xlink:href="#DejaVuSans-3" transform="translate(2256.984375 0)"/>
     <use xlink:href="#DejaVuSans-57" transform="translate(2288.765625 0)"/>
     <use xlink:href="#DejaVuSans-4b" transform="translate(2327.96875 0)"/>
     <use xlink:href="#DejaVuSans-48" transform="translate(2391.34375 0)"/>
     <use xlink:href="#DejaVuSans-3" transform="translate(2452.875 0)"/>
     <use xlink:href="#DejaVuSans-53" transform="translate(2484.65625 0)"/>
     <use xlink:href="#DejaVuSans-4f" transform="translate(2548.140625 0)"/>
     <use xlink:href="#DejaVuSans-44" transform="translate(2575.921875 0)"/>
     <use xlink:href="#DejaVuSans-46" transform="translate(2637.203125 0)"/>
     <use xlink:href="#DejaVuSans-48" transform="translate(2692.1875 0)"/>
     <use xlink:href="#DejaVuSans-50" transform="translate(2753.71875 0)"/>
     <use xlink:href="#DejaVuSans-48" transform="translate(2851.125 0)"/>
     <use xlink:href="#DejaVuSans-51" transform="translate(2912.65625 0)"/>
     <use xlink:href="#DejaVuSans-57" transform="translate(2976.03125 0)"/>
     <use xlink:href="#DejaVuSans-3" transform="translate(3015.234375 0)"/>
     <use xlink:href="#DejaVuSans-47" transform="translate(3047.015625 0)"/>
     <use xlink:href="#DejaVuSans-4c" transform="translate(3110.5 0)"/>
     <use xlink:href="#DejaVuSans-13ae" transform="translate(3138.28125 0)"/>
     <use xlink:href="#DejaVuSans-48" transform="translate(3207.171875 0)"/>
     <use xlink:href="#DejaVuSans-55" transform="translate(3268.703125 0)"/>
     <use xlink:href="#DejaVuSans-56" transform="translate(3309.8125 0)"/>
    </g>
   </g>
   <g id="line2d_12">
    <path d="M 204.532842 281.874203 
L 204.532842 37.938203 
" clip-path="url(#p6f0032636d)" style="fill: none; stroke-dasharray: 1.3,2.145; stroke-dashoffset: 0; stroke: #555555; stroke-width: 1.3"/>
   </g>
   <g id="line2d_13">
    <path d="M 456.432807 281.874203 
L 456.432807 37.938203 
" clip-path="url(#p6f0032636d)" style="fill: none; stroke-dasharray: 5.18,2.24; stroke-dashoffset: 0; stroke: #c0392b; stroke-width: 1.4"/>
   </g>
  </g>
 </g>
 <defs>
  <clipPath id="p6f0032636d">
   <rect x="77.042187" y="37.938203" width="435.24" height="243.936"/>
  </clipPath>
 </defs>
</svg>
