<?xml version="1.0" encoding="utf-8" standalone="no"?>
<!DOCTYPE svg PUBLIC "-//W3C//DTD SVG 1.1//EN"
  "http://www.w3.org/Graphics/SVG/1.1/DTD/svg11.dtd">
<svg xmlns:xlink="http://www.w3.org/1999/xlink" width="540.697956pt" height="363.718906pt" viewBox="0 0 540.697956 363.718906" xmlns="http://www.w3.org/2000/svg" version="1.1">
 <metadata>
  <rdf:RDF xmlns:dc="http://purl.org/dc/elements/1.1/" xmlns:cc="http://creativecommons.org/ns#" xmlns:rdf="http://www.w3.org/1999/02/22-rdf-syntax-ns#">
   <cc:Work>
    <dc:type rdf:resource="http://purl.org/dc/dcmitype/StillImage"/>
    <dc:date>2026-07-12T01:22:13.623865</dc:date>
    <dc:format>image/svg+xml</dc:format>
    <dc:creator>
     <cc:Agent>
      <dc:title>Matplotlib v3.11.0, https://matplotlib.org/</dc:title>
     </cc:Agent>
    </dc:creator>
   </cc:Work>
  </rdf:RDF>
 </metadata>
 <defs>
  <style type="text/css">*{stroke-linejoin: round; stroke-linecap: butt}</style>
 </defs>
 <g id="figure_1">
  <g id="patch_1">
   <path d="M 0 363.718906 
L 540.697956 363.718906 
L 540.697956 0 
L 0 0 
z
" style="fill: #ffffff"/>
  </g>
  <g id="axes_1">
   <g id="patch_2">
    <path d="M 50.466406 325.518125 
L 413.562406 325.518125 
L 413.562406 48.318125 
L 50.466406 48.318125 
z
" style="fill: #ffffff"/>
   </g>
   <g id="patch_3">
    <path d="M 50.466406 385.778995 
L 413.562406 385.778995 
L 413.562406 305.993603 
L 50.466406 305.993603 
z
" clip-path="url(#pc44e593cbc)" style="fill: #8a8a8a; opacity: 0.1; stroke: #8a8a8a; stroke-linejoin: miter"/>
   </g>
   <g id="matplotlib.axis_1">
    <g id="xtick_1">
     <g id="line2d_1">
      <defs>
       <path id="m7586646daa" d="M 0 0 
L 0 3.5 
" style="stroke: #444444; stroke-width: 0.8"/>
      </defs>
      <g>
       <use xlink:href="#m7586646daa" x="95.853406" y="325.518125" style="fill: #444444; stroke: #444444; stroke-width: 0.8"/>
      </g>
     </g>
     <g id="text_1">
      <!-- 2000 -->
      <g style="fill: #444444" transform="translate(83.128406 340.115781) scale(0.1 -0.1)">
       <defs>
        <path id="DejaVuSans-15" d="M 1228 531 
L 3431 531 
L 3431 0 
L 469 0 
L 469 531 
Q 828 903 1448 1529 
Q 2069 2156 2228 2338 
Q 2531 2678 2651 2914 
Q 2772 3150 2772 3378 
Q 2772 3750 2511 3984 
Q 2250 4219 1831 4219 
Q 1534 4219 1204 4116 
Q 875 4013 500 3803 
L 500 4441 
Q 881 4594 1212 4672 
Q 1544 4750 1819 4750 
Q 2544 4750 2975 4387 
Q 3406 4025 3406 3419 
Q 3406 3131 3298 2873 
Q 3191 2616 2906 2266 
Q 2828 2175 2409 1742 
Q 1991 1309 1228 531 
z
" transform="scale(0.015625)"/>
        <path id="DejaVuSans-13" d="M 2034 4250 
Q 1547 4250 1301 3770 
Q 1056 3291 1056 2328 
Q 1056 1369 1301 889 
Q 1547 409 2034 409 
Q 2525 409 2770 889 
Q 3016 1369 3016 2328 
Q 3016 3291 2770 3770 
Q 2525 4250 2034 4250 
z
M 2034 4750 
Q 2819 4750 3233 4129 
Q 3647 3509 3647 2328 
Q 3647 1150 3233 529 
Q 2819 -91 2034 -91 
Q 1250 -91 836 529 
Q 422 1150 422 2328 
Q 422 3509 836 4129 
Q 1250 4750 2034 4750 
z
" transform="scale(0.015625)"/>
       </defs>
       <use xlink:href="#DejaVuSans-15"/>
       <use xlink:href="#DejaVuSans-13" transform="translate(63.625 0)"/>
       <use xlink:href="#DejaVuSans-13" transform="translate(127.25 0)"/>
       <use xlink:href="#DejaVuSans-13" transform="translate(190.875 0)"/>
      </g>
     </g>
    </g>
    <g id="xtick_2">
     <g id="line2d_2">
      <g>
       <use xlink:href="#m7586646daa" x="156.369406" y="325.518125" style="fill: #444444; stroke: #444444; stroke-width: 0.8"/>
      </g>
     </g>
     <g id="text_2">
      <!-- 4000 -->
      <g style="fill: #444444" transform="translate(143.644406 340.115781) scale(0.1 -0.1)">
       <defs>
        <path id="DejaVuSans-17" d="M 2419 4116 
L 825 1625 
L 2419 1625 
L 2419 4116 
z
M 2253 4666 
L 3047 4666 
L 3047 1625 
L 3713 1625 
L 3713 1100 
L 3047 1100 
L 3047 0 
L 2419 0 
L 2419 1100 
L 313 1100 
L 313 1709 
L 2253 4666 
z
" transform="scale(0.015625)"/>
       </defs>
       <use xlink:href="#DejaVuSans-17"/>
       <use xlink:href="#DejaVuSans-13" transform="translate(63.625 0)"/>
       <use xlink:href="#DejaVuSans-13" transform="translate(127.25 0)"/>
       <use xlink:href="#DejaVuSans-13" transform="translate(190.875 0)"/>
      </g>
     </g>
    </g>
    <g id="xtick_3">
     <g id="line2d_3">
      <g>
       <use xlink:href="#m7586646daa" x="216.885406" y="325.518125" style="fill: #444444; stroke: #444444; stroke-width: 0.8"/>
      </g>
     </g>
     <g id="text_3">
      <!-- 6000 -->
      <g style="fill: #444444" transform="translate(204.160406 340.115781) scale(0.1 -0.1)">
       <defs>
        <path id="DejaVuSans-19" d="M 2113 2584 
Q 1688 2584 1439 2293 
Q 1191 2003 1191 1497 
Q 1191 994 1439 701 
Q 1688 409 2113 409 
Q 2538 409 2786 701 
Q 3034 994 3034 1497 
Q 3034 2003 2786 2293 
Q 2538 2584 2113 2584 
z
M 3366 4563 
L 3366 3988 
Q 3128 4100 2886 4159 
Q 2644 4219 2406 4219 
Q 1781 4219 1451 3797 
Q 1122 3375 1075 2522 
Q 1259 2794 1537 2939 
Q 1816 3084 2150 3084 
Q 2853 3084 3261 2657 
Q 3669 2231 3669 1497 
Q 3669 778 3244 343 
Q 2819 -91 2113 -91 
Q 1303 -91 875 529 
Q 447 1150 447 2328 
Q 447 3434 972 4092 
Q 1497 4750 2381 4750 
Q 2619 4750 2861 4703 
Q 3103 4656 3366 4563 
z
" transform="scale(0.015625)"/>
       </defs>
       <use xlink:href="#DejaVuSans-19"/>
       <use xlink:href="#DejaVuSans-13" transform="translate(63.625 0)"/>
       <use xlink:href="#DejaVuSans-13" transform="translate(127.25 0)"/>
       <use xlink:href="#DejaVuSans-13" transform="translate(190.875 0)"/>
      </g>
     </g>
    </g>
    <g id="xtick_4">
     <g id="line2d_4">
      <g>
       <use xlink:href="#m7586646daa" x="277.401406" y="325.518125" style="fill: #444444; stroke: #444444; stroke-width: 0.8"/>
      </g>
     </g>
     <g id="text_4">
      <!-- 8000 -->
      <g style="fill: #444444" transform="translate(264.676406 340.115781) scale(0.1 -0.1)">
       <defs>
        <path id="DejaVuSans-1b" d="M 2034 2216 
Q 1584 2216 1326 1975 
Q 1069 1734 1069 1313 
Q 1069 891 1326 650 
Q 1584 409 2034 409 
Q 2484 409 2743 651 
Q 3003 894 3003 1313 
Q 3003 1734 2745 1975 
Q 2488 2216 2034 2216 
z
M 1403 2484 
Q 997 2584 770 2862 
Q 544 3141 544 3541 
Q 544 4100 942 4425 
Q 1341 4750 2034 4750 
Q 2731 4750 3128 4425 
Q 3525 4100 3525 3541 
Q 3525 3141 3298 2862 
Q 3072 2584 2669 2484 
Q 3125 2378 3379 2068 
Q 3634 1759 3634 1313 
Q 3634 634 3220 271 
Q 2806 -91 2034 -91 
Q 1263 -91 848 271 
Q 434 634 434 1313 
Q 434 1759 690 2068 
Q 947 2378 1403 2484 
z
M 1172 3481 
Q 1172 3119 1398 2916 
Q 1625 2713 2034 2713 
Q 2441 2713 2670 2916 
Q 2900 3119 2900 3481 
Q 2900 3844 2670 4047 
Q 2441 4250 2034 4250 
Q 1625 4250 1398 4047 
Q 1172 3844 1172 3481 
z
" transform="scale(0.015625)"/>
       </defs>
       <use xlink:href="#DejaVuSans-1b"/>
       <use xlink:href="#DejaVuSans-13" transform="translate(63.625 0)"/>
       <use xlink:href="#DejaVuSans-13" transform="translate(127.25 0)"/>
       <use xlink:href="#DejaVuSans-13" transform="translate(190.875 0)"/>
      </g>
     </g>
    </g>
    <g id="xtick_5">
     <g id="line2d_5">
      <g>
       <use xlink:href="#m7586646daa" x="337.917406" y="325.518125" style="fill: #444444; stroke: #444444; stroke-width: 0.8"/>
      </g>
     </g>
     <g id="text_5">
      <!-- 10000 -->
      <g style="fill: #444444" transform="translate(322.011156 340.115781) scale(0.1 -0.1)">
       <defs>
        <path id="DejaVuSans-14" d="M 794 531 
L 1825 531 
L 1825 4091 
L 703 3866 
L 703 4441 
L 1819 4666 
L 2450 4666 
L 2450 531 
L 3481 531 
L 3481 0 
L 794 0 
L 794 531 
z
" transform="scale(0.015625)"/>
       </defs>
       <use xlink:href="#DejaVuSans-14"/>
       <use xlink:href="#DejaVuSans-13" transform="translate(63.625 0)"/>
       <use xlink:href="#DejaVuSans-13" transform="translate(127.25 0)"/>
       <use xlink:href="#DejaVuSans-13" transform="translate(190.875 0)"/>
       <use xlink:href="#DejaVuSans-13" transform="translate(254.5 0)"/>
      </g>
     </g>
    </g>
    <g id="xtick_6">
     <g id="line2d_6">
      <g>
       <use xlink:href="#m7586646daa" x="398.433406" y="325.518125" style="fill: #444444; stroke: #444444; stroke-width: 0.8"/>
      </g>
     </g>
     <g id="text_6">
      <!-- 12000 -->
      <g style="fill: #444444" transform="translate(382.527156 340.115781) scale(0.1 -0.1)">
       <use xlink:href="#DejaVuSans-14"/>
       <use xlink:href="#DejaVuSans-15" transform="translate(63.625 0)"/>
       <use xlink:href="#DejaVuSans-13" transform="translate(127.25 0)"/>
       <use xlink:href="#DejaVuSans-13" transform="translate(190.875 0)"/>
       <use xlink:href="#DejaVuSans-13" transform="translate(254.5 0)"/>
      </g>
     </g>
    </g>
    <g id="text_7">
     <!-- training step -->
     <g style="fill: #222222" transform="translate(200.240187 354.116563) scale(0.1 -0.1)">
      <defs>
       <path id="DejaVuSans-57" d="M 1172 4494 
L 1172 3500 
L 2356 3500 
L 2356 3053 
L 1172 3053 
L 1172 1153 
Q 1172 725 1289 603 
Q 1406 481 1766 481 
L 2356 481 
L 2356 0 
L 1766 0 
Q 1100 0 847 248 
Q 594 497 594 1153 
L 594 3053 
L 172 3053 
L 172 3500 
L 594 3500 
L 594 4494 
L 1172 4494 
z
" transform="scale(0.015625)"/>
       <path id="DejaVuSans-55" d="M 2631 2963 
Q 2534 3019 2420 3045 
Q 2306 3072 2169 3072 
Q 1681 3072 1420 2755 
Q 1159 2438 1159 1844 
L 1159 0 
L 581 0 
L 581 3500 
L 1159 3500 
L 1159 2956 
Q 1341 3275 1631 3429 
Q 1922 3584 2338 3584 
Q 2397 3584 2469 3576 
Q 2541 3569 2628 3553 
L 2631 2963 
z
" transform="scale(0.015625)"/>
       <path id="DejaVuSans-44" d="M 2194 1759 
Q 1497 1759 1228 1600 
Q 959 1441 959 1056 
Q 959 750 1161 570 
Q 1363 391 1709 391 
Q 2188 391 2477 730 
Q 2766 1069 2766 1631 
L 2766 1759 
L 2194 1759 
z
M 3341 1997 
L 3341 0 
L 2766 0 
L 2766 531 
Q 2569 213 2275 61 
Q 1981 -91 1556 -91 
Q 1019 -91 701 211 
Q 384 513 384 1019 
Q 384 1609 779 1909 
Q 1175 2209 1959 2209 
L 2766 2209 
L 2766 2266 
Q 2766 2663 2505 2880 
Q 2244 3097 1772 3097 
Q 1472 3097 1187 3025 
Q 903 2953 641 2809 
L 641 3341 
Q 956 3463 1253 3523 
Q 1550 3584 1831 3584 
Q 2591 3584 2966 3190 
Q 3341 2797 3341 1997 
z
" transform="scale(0.015625)"/>
       <path id="DejaVuSans-4c" d="M 603 3500 
L 1178 3500 
L 1178 0 
L 603 0 
L 603 3500 
z
M 603 4863 
L 1178 4863 
L 1178 4134 
L 603 4134 
L 603 4863 
z
" transform="scale(0.015625)"/>
       <path id="DejaVuSans-51" d="M 3513 2113 
L 3513 0 
L 2938 0 
L 2938 2094 
Q 2938 2591 2744 2837 
Q 2550 3084 2163 3084 
Q 1697 3084 1428 2787 
Q 1159 2491 1159 1978 
L 1159 0 
L 581 0 
L 581 3500 
L 1159 3500 
L 1159 2956 
Q 1366 3272 1645 3428 
Q 1925 3584 2291 3584 
Q 2894 3584 3203 3211 
Q 3513 2838 3513 2113 
z
" transform="scale(0.015625)"/>
       <path id="DejaVuSans-4a" d="M 2906 1791 
Q 2906 2416 2648 2759 
Q 2391 3103 1925 3103 
Q 1463 3103 1205 2759 
Q 947 2416 947 1791 
Q 947 1169 1205 825 
Q 1463 481 1925 481 
Q 2391 481 2648 825 
Q 2906 1169 2906 1791 
z
M 3481 434 
Q 3481 -459 3084 -895 
Q 2688 -1331 1869 -1331 
Q 1566 -1331 1297 -1286 
Q 1028 -1241 775 -1147 
L 775 -588 
Q 1028 -725 1275 -790 
Q 1522 -856 1778 -856 
Q 2344 -856 2625 -561 
Q 2906 -266 2906 331 
L 2906 616 
Q 2728 306 2450 153 
Q 2172 0 1784 0 
Q 1141 0 747 490 
Q 353 981 353 1791 
Q 353 2603 747 3093 
Q 1141 3584 1784 3584 
Q 2172 3584 2450 3431 
Q 2728 3278 2906 2969 
L 2906 3500 
L 3481 3500 
L 3481 434 
z
" transform="scale(0.015625)"/>
       <path id="DejaVuSans-3" transform="scale(0.015625)"/>
       <path id="DejaVuSans-56" d="M 2834 3397 
L 2834 2853 
Q 2591 2978 2328 3040 
Q 2066 3103 1784 3103 
Q 1356 3103 1142 2972 
Q 928 2841 928 2578 
Q 928 2378 1081 2264 
Q 1234 2150 1697 2047 
L 1894 2003 
Q 2506 1872 2764 1633 
Q 3022 1394 3022 966 
Q 3022 478 2636 193 
Q 2250 -91 1575 -91 
Q 1294 -91 989 -36 
Q 684 19 347 128 
L 347 722 
Q 666 556 975 473 
Q 1284 391 1588 391 
Q 1994 391 2212 530 
Q 2431 669 2431 922 
Q 2431 1156 2273 1281 
Q 2116 1406 1581 1522 
L 1381 1569 
Q 847 1681 609 1914 
Q 372 2147 372 2553 
Q 372 3047 722 3315 
Q 1072 3584 1716 3584 
Q 2034 3584 2315 3537 
Q 2597 3491 2834 3397 
z
" transform="scale(0.015625)"/>
       <path id="DejaVuSans-48" d="M 3597 1894 
L 3597 1613 
L 953 1613 
Q 991 1019 1311 708 
Q 1631 397 2203 397 
Q 2534 397 2845 478 
Q 3156 559 3463 722 
L 3463 178 
Q 3153 47 2828 -22 
Q 2503 -91 2169 -91 
Q 1331 -91 842 396 
Q 353 884 353 1716 
Q 353 2575 817 3079 
Q 1281 3584 2069 3584 
Q 2775 3584 3186 3129 
Q 3597 2675 3597 1894 
z
M 3022 2063 
Q 3016 2534 2758 2815 
Q 2500 3097 2075 3097 
Q 1594 3097 1305 2825 
Q 1016 2553 972 2059 
L 3022 2063 
z
" transform="scale(0.015625)"/>
       <path id="DejaVuSans-53" d="M 1159 525 
L 1159 -1331 
L 581 -1331 
L 581 3500 
L 1159 3500 
L 1159 2969 
Q 1341 3281 1617 3432 
Q 1894 3584 2278 3584 
Q 2916 3584 3314 3078 
Q 3713 2572 3713 1747 
Q 3713 922 3314 415 
Q 2916 -91 2278 -91 
Q 1894 -91 1617 61 
Q 1341 213 1159 525 
z
M 3116 1747 
Q 3116 2381 2855 2742 
Q 2594 3103 2138 3103 
Q 1681 3103 1420 2742 
Q 1159 2381 1159 1747 
Q 1159 1113 1420 752 
Q 1681 391 2138 391 
Q 2594 391 2855 752 
Q 3116 1113 3116 1747 
z
" transform="scale(0.015625)"/>
      </defs>
      <use xlink:href="#DejaVuSans-57"/>
      <use xlink:href="#DejaVuSans-55" transform="translate(39.203125 0)"/>
      <use xlink:href="#DejaVuSans-44" transform="translate(80.3125 0)"/>
      <use xlink:href="#DejaVuSans-4c" transform="translate(141.59375 0)"/>
      <use xlink:href="#DejaVuSans-51" transform="translate(169.375 0)"/>
      <use xlink:href="#DejaVuSans-4c" transform="translate(232.75 0)"/>
      <use xlink:href="#DejaVuSans-51" transform="translate(260.53125 0)"/>
      <use xlink:href="#DejaVuSans-4a" transform="translate(323.90625 0)"/>
      <use xlink:href="#DejaVuSans-3" transform="translate(387.390625 0)"/>
      <use xlink:href="#DejaVuSans-56" transform="translate(419.171875 0)"/>
      <use xlink:href="#DejaVuSans-57" transform="translate(471.265625 0)"/>
      <use xlink:href="#DejaVuSans-48" transform="translate(510.46875 0)"/>
      <use xlink:href="#DejaVuSans-53" transform="translate(572 0)"/>
     </g>
    </g>
   </g>
   <g id="matplotlib.axis_2">
    <g id="ytick_1">
     <g id="line2d_7">
      <defs>
       <path id="m229160fc59" d="M 0 0 
L -3.5 0 
" style="stroke: #444444; stroke-width: 0.8"/>
      </defs>
      <g>
       <use xlink:href="#m229160fc59" x="50.466406" y="289.361603" style="fill: #444444; stroke: #444444; stroke-width: 0.8"/>
      </g>
     </g>
     <g id="text_8">
      <!-- 0.04 -->
      <g style="fill: #444444" transform="translate(21.200781 293.160431) scale(0.1 -0.1)">
       <defs>
        <path id="DejaVuSans-11" d="M 684 794 
L 1344 794 
L 1344 0 
L 684 0 
L 684 794 
z
" transform="scale(0.015625)"/>
       </defs>
       <use xlink:href="#DejaVuSans-13"/>
       <use xlink:href="#DejaVuSans-11" transform="translate(63.625 0)"/>
       <use xlink:href="#DejaVuSans-13" transform="translate(95.40625 0)"/>
       <use xlink:href="#DejaVuSans-17" transform="translate(159.03125 0)"/>
      </g>
     </g>
    </g>
    <g id="ytick_2">
     <g id="line2d_8">
      <g>
       <use xlink:href="#m229160fc59" x="50.466406" y="241.152908" style="fill: #444444; stroke: #444444; stroke-width: 0.8"/>
      </g>
     </g>
     <g id="text_9">
      <!-- 0.06 -->
      <g style="fill: #444444" transform="translate(21.200781 244.951736) scale(0.1 -0.1)">
       <use xlink:href="#DejaVuSans-13"/>
       <use xlink:href="#DejaVuSans-11" transform="translate(63.625 0)"/>
       <use xlink:href="#DejaVuSans-13" transform="translate(95.40625 0)"/>
       <use xlink:href="#DejaVuSans-19" transform="translate(159.03125 0)"/>
      </g>
     </g>
    </g>
    <g id="ytick_3">
     <g id="line2d_9">
      <g>
       <use xlink:href="#m229160fc59" x="50.466406" y="192.944212" style="fill: #444444; stroke: #444444; stroke-width: 0.8"/>
      </g>
     </g>
     <g id="text_10">
      <!-- 0.08 -->
      <g style="fill: #444444" transform="translate(21.200781 196.74304) scale(0.1 -0.1)">
       <use xlink:href="#DejaVuSans-13"/>
       <use xlink:href="#DejaVuSans-11" transform="translate(63.625 0)"/>
       <use xlink:href="#DejaVuSans-13" transform="translate(95.40625 0)"/>
       <use xlink:href="#DejaVuSans-1b" transform="translate(159.03125 0)"/>
      </g>
     </g>
    </g>
    <g id="ytick_4">
     <g id="line2d_10">
      <g>
       <use xlink:href="#m229160fc59" x="50.466406" y="144.735516" style="fill: #444444; stroke: #444444; stroke-width: 0.8"/>
      </g>
     </g>
     <g id="text_11">
      <!-- 0.10 -->
      <g style="fill: #444444" transform="translate(21.200781 148.534344) scale(0.1 -0.1)">
       <use xlink:href="#DejaVuSans-13"/>
       <use xlink:href="#DejaVuSans-11" transform="translate(63.625 0)"/>
       <use xlink:href="#DejaVuSans-14" transform="translate(95.40625 0)"/>
       <use xlink:href="#DejaVuSans-13" transform="translate(159.03125 0)"/>
      </g>
     </g>
    </g>
    <g id="ytick_5">
     <g id="line2d_11">
      <g>
       <use xlink:href="#m229160fc59" x="50.466406" y="96.526821" style="fill: #444444; stroke: #444444; stroke-width: 0.8"/>
      </g>
     </g>
     <g id="text_12">
      <!-- 0.12 -->
      <g style="fill: #444444" transform="translate(21.200781 100.325649) scale(0.1 -0.1)">
       <use xlink:href="#DejaVuSans-13"/>
       <use xlink:href="#DejaVuSans-11" transform="translate(63.625 0)"/>
       <use xlink:href="#DejaVuSans-14" transform="translate(95.40625 0)"/>
       <use xlink:href="#DejaVuSans-15" transform="translate(159.03125 0)"/>
      </g>
     </g>
    </g>
    <g id="ytick_6">
     <g id="line2d_12">
      <g>
       <use xlink:href="#m229160fc59" x="50.466406" y="48.318125" style="fill: #444444; stroke: #444444; stroke-width: 0.8"/>
      </g>
     </g>
     <g id="text_13">
      <!-- 0.14 -->
      <g style="fill: #444444" transform="translate(21.200781 52.116953) scale(0.1 -0.1)">
       <use xlink:href="#DejaVuSans-13"/>
       <use xlink:href="#DejaVuSans-11" transform="translate(63.625 0)"/>
       <use xlink:href="#DejaVuSans-14" transform="translate(95.40625 0)"/>
       <use xlink:href="#DejaVuSans-17" transform="translate(159.03125 0)"/>
      </g>
     </g>
    </g>
    <g id="text_14">
     <!-- conditional dependency error, all 120 pairs -->
     <g style="fill: #222222" transform="translate(14.798437 294.600156) rotate(-90) scale(0.1 -0.1)">
      <defs>
       <path id="DejaVuSans-46" d="M 3122 3366 
L 3122 2828 
Q 2878 2963 2633 3030 
Q 2388 3097 2138 3097 
Q 1578 3097 1268 2742 
Q 959 2388 959 1747 
Q 959 1106 1268 751 
Q 1578 397 2138 397 
Q 2388 397 2633 464 
Q 2878 531 3122 666 
L 3122 134 
Q 2881 22 2623 -34 
Q 2366 -91 2075 -91 
Q 1284 -91 818 406 
Q 353 903 353 1747 
Q 353 2603 823 3093 
Q 1294 3584 2113 3584 
Q 2378 3584 2631 3529 
Q 2884 3475 3122 3366 
z
" transform="scale(0.015625)"/>
       <path id="DejaVuSans-52" d="M 1959 3097 
Q 1497 3097 1228 2736 
Q 959 2375 959 1747 
Q 959 1119 1226 758 
Q 1494 397 1959 397 
Q 2419 397 2687 759 
Q 2956 1122 2956 1747 
Q 2956 2369 2687 2733 
Q 2419 3097 1959 3097 
z
M 1959 3584 
Q 2709 3584 3137 3096 
Q 3566 2609 3566 1747 
Q 3566 888 3137 398 
Q 2709 -91 1959 -91 
Q 1206 -91 779 398 
Q 353 888 353 1747 
Q 353 2609 779 3096 
Q 1206 3584 1959 3584 
z
" transform="scale(0.015625)"/>
       <path id="DejaVuSans-47" d="M 2906 2969 
L 2906 4863 
L 3481 4863 
L 3481 0 
L 2906 0 
L 2906 525 
Q 2725 213 2448 61 
Q 2172 -91 1784 -91 
Q 1150 -91 751 415 
Q 353 922 353 1747 
Q 353 2572 751 3078 
Q 1150 3584 1784 3584 
Q 2172 3584 2448 3432 
Q 2725 3281 2906 2969 
z
M 947 1747 
Q 947 1113 1208 752 
Q 1469 391 1925 391 
Q 2381 391 2643 752 
Q 2906 1113 2906 1747 
Q 2906 2381 2643 2742 
Q 2381 3103 1925 3103 
Q 1469 3103 1208 2742 
Q 947 2381 947 1747 
z
" transform="scale(0.015625)"/>
       <path id="DejaVuSans-4f" d="M 603 4863 
L 1178 4863 
L 1178 0 
L 603 0 
L 603 4863 
z
" transform="scale(0.015625)"/>
       <path id="DejaVuSans-5c" d="M 2059 -325 
Q 1816 -950 1584 -1140 
Q 1353 -1331 966 -1331 
L 506 -1331 
L 506 -850 
L 844 -850 
Q 1081 -850 1212 -737 
Q 1344 -625 1503 -206 
L 1606 56 
L 191 3500 
L 800 3500 
L 1894 763 
L 2988 3500 
L 3597 3500 
L 2059 -325 
z
" transform="scale(0.015625)"/>
       <path id="DejaVuSans-f" d="M 750 794 
L 1409 794 
L 1409 256 
L 897 -744 
L 494 -744 
L 750 256 
L 750 794 
z
" transform="scale(0.015625)"/>
      </defs>
      <use xlink:href="#DejaVuSans-46"/>
      <use xlink:href="#DejaVuSans-52" transform="translate(54.984375 0)"/>
      <use xlink:href="#DejaVuSans-51" transform="translate(116.171875 0)"/>
      <use xlink:href="#DejaVuSans-47" transform="translate(179.546875 0)"/>
      <use xlink:href="#DejaVuSans-4c" transform="translate(243.03125 0)"/>
      <use xlink:href="#DejaVuSans-57" transform="translate(270.8125 0)"/>
      <use xlink:href="#DejaVuSans-4c" transform="translate(310.015625 0)"/>
      <use xlink:href="#DejaVuSans-52" transform="translate(337.796875 0)"/>
      <use xlink:href="#DejaVuSans-51" transform="translate(398.984375 0)"/>
      <use xlink:href="#DejaVuSans-44" transform="translate(462.359375 0)"/>
      <use xlink:href="#DejaVuSans-4f" transform="translate(523.640625 0)"/>
      <use xlink:href="#DejaVuSans-3" transform="translate(551.421875 0)"/>
      <use xlink:href="#DejaVuSans-47" transform="translate(583.203125 0)"/>
      <use xlink:href="#DejaVuSans-48" transform="translate(646.6875 0)"/>
      <use xlink:href="#DejaVuSans-53" transform="translate(708.21875 0)"/>
      <use xlink:href="#DejaVuSans-48" transform="translate(771.703125 0)"/>
      <use xlink:href="#DejaVuSans-51" transform="translate(833.234375 0)"/>
      <use xlink:href="#DejaVuSans-47" transform="translate(896.609375 0)"/>
      <use xlink:href="#DejaVuSans-48" transform="translate(960.09375 0)"/>
      <use xlink:href="#DejaVuSans-51" transform="translate(1021.625 0)"/>
      <use xlink:href="#DejaVuSans-46" transform="translate(1085 0)"/>
      <use xlink:href="#DejaVuSans-5c" transform="translate(1139.984375 0)"/>
      <use xlink:href="#DejaVuSans-3" transform="translate(1199.171875 0)"/>
      <use xlink:href="#DejaVuSans-48" transform="translate(1230.953125 0)"/>
      <use xlink:href="#DejaVuSans-55" transform="translate(1292.484375 0)"/>
      <use xlink:href="#DejaVuSans-55" transform="translate(1331.84375 0)"/>
      <use xlink:href="#DejaVuSans-52" transform="translate(1370.75 0)"/>
      <use xlink:href="#DejaVuSans-55" transform="translate(1431.9375 0)"/>
      <use xlink:href="#DejaVuSans-f" transform="translate(1473.046875 0)"/>
      <use xlink:href="#DejaVuSans-3" transform="translate(1504.828125 0)"/>
      <use xlink:href="#DejaVuSans-44" transform="translate(1536.609375 0)"/>
      <use xlink:href="#DejaVuSans-4f" transform="translate(1597.890625 0)"/>
      <use xlink:href="#DejaVuSans-4f" transform="translate(1625.671875 0)"/>
      <use xlink:href="#DejaVuSans-3" transform="translate(1653.453125 0)"/>
      <use xlink:href="#DejaVuSans-14" transform="translate(1685.234375 0)"/>
      <use xlink:href="#DejaVuSans-15" transform="translate(1748.859375 0)"/>
      <use xlink:href="#DejaVuSans-13" transform="translate(1812.484375 0)"/>
      <use xlink:href="#DejaVuSans-3" transform="translate(1876.109375 0)"/>
      <use xlink:href="#DejaVuSans-53" transform="translate(1907.890625 0)"/>
      <use xlink:href="#DejaVuSans-44" transform="translate(1971.375 0)"/>
      <use xlink:href="#DejaVuSans-4c" transform="translate(2032.65625 0)"/>
      <use xlink:href="#DejaVuSans-55" transform="translate(2060.4375 0)"/>
      <use xlink:href="#DejaVuSans-56" transform="translate(2101.546875 0)"/>
     </g>
    </g>
   </g>
   <g id="line2d_13">
    <path d="M 50.466406 305.993603 
L 413.562406 305.993603 
" clip-path="url(#pc44e593cbc)" style="fill: none; stroke-dasharray: 1.3,2.145; stroke-dashoffset: 0; stroke: #555555; stroke-width: 1.3"/>
   </g>
   <g id="line2d_14">
    <path d="M 50.466406 280.442995 
L 413.562406 280.442995 
" clip-path="url(#pc44e593cbc)" style="fill: none; stroke-dasharray: 8.96,2.24,1.4,2.24; stroke-dashoffset: 0; stroke: #2e8b57; stroke-width: 1.4"/>
   </g>
   <g id="line2d_15">
    <path d="M 50.466406 148.351168 
L 413.562406 148.351168 
" clip-path="url(#pc44e593cbc)" style="fill: none; stroke-dasharray: 5.55,2.4; stroke-dashoffset: 0; stroke: #c0392b; stroke-width: 1.5"/>
   </g>
   <g id="patch_4">
    <path d="M 50.466406 325.518125 
L 50.466406 48.318125 
" style="fill: none; stroke: #444444; stroke-width: 0.8; stroke-linejoin: miter; stroke-linecap: square"/>
   </g>
   <g id="patch_5">
    <path d="M 50.466406 325.518125 
L 413.562406 325.518125 
" style="fill: none; stroke: #444444; stroke-width: 0.8; stroke-linejoin: miter; stroke-linecap: square"/>
   </g>
   <g id="text_15">
    <!--   Corollary 1 bound 0.0331 -->
    <g style="fill: #555555" transform="translate(401.459206 302.601103) scale(0.08 -0.08)">
     <defs>
      <path id="DejaVuSans-26" d="M 4122 4306 
L 4122 3641 
Q 3803 3938 3442 4084 
Q 3081 4231 2675 4231 
Q 1875 4231 1450 3742 
Q 1025 3253 1025 2328 
Q 1025 1406 1450 917 
Q 1875 428 2675 428 
Q 3081 428 3442 575 
Q 3803 722 4122 1019 
L 4122 359 
Q 3791 134 3420 21 
Q 3050 -91 2638 -91 
Q 1578 -91 968 557 
Q 359 1206 359 2328 
Q 359 3453 968 4101 
Q 1578 4750 2638 4750 
Q 3056 4750 3426 4639 
Q 3797 4528 4122 4306 
z
" transform="scale(0.015625)"/>
      <path id="DejaVuSans-45" d="M 3116 1747 
Q 3116 2381 2855 2742 
Q 2594 3103 2138 3103 
Q 1681 3103 1420 2742 
Q 1159 2381 1159 1747 
Q 1159 1113 1420 752 
Q 1681 391 2138 391 
Q 2594 391 2855 752 
Q 3116 1113 3116 1747 
z
M 1159 2969 
Q 1341 3281 1617 3432 
Q 1894 3584 2278 3584 
Q 2916 3584 3314 3078 
Q 3713 2572 3713 1747 
Q 3713 922 3314 415 
Q 2916 -91 2278 -91 
Q 1894 -91 1617 61 
Q 1341 213 1159 525 
L 1159 0 
L 581 0 
L 581 4863 
L 1159 4863 
L 1159 2969 
z
" transform="scale(0.015625)"/>
      <path id="DejaVuSans-58" d="M 544 1381 
L 544 3500 
L 1119 3500 
L 1119 1403 
Q 1119 906 1312 657 
Q 1506 409 1894 409 
Q 2359 409 2629 706 
Q 2900 1003 2900 1516 
L 2900 3500 
L 3475 3500 
L 3475 0 
L 2900 0 
L 2900 538 
Q 2691 219 2414 64 
Q 2138 -91 1772 -91 
Q 1169 -91 856 284 
Q 544 659 544 1381 
z
M 1991 3584 
L 1991 3584 
z
" transform="scale(0.015625)"/>
      <path id="DejaVuSans-16" d="M 2597 2516 
Q 3050 2419 3304 2112 
Q 3559 1806 3559 1356 
Q 3559 666 3084 287 
Q 2609 -91 1734 -91 
Q 1441 -91 1130 -33 
Q 819 25 488 141 
L 488 750 
Q 750 597 1062 519 
Q 1375 441 1716 441 
Q 2309 441 2620 675 
Q 2931 909 2931 1356 
Q 2931 1769 2642 2001 
Q 2353 2234 1838 2234 
L 1294 2234 
L 1294 2753 
L 1863 2753 
Q 2328 2753 2575 2939 
Q 2822 3125 2822 3475 
Q 2822 3834 2567 4026 
Q 2313 4219 1838 4219 
Q 1578 4219 1281 4162 
Q 984 4106 628 3988 
L 628 4550 
Q 988 4650 1302 4700 
Q 1616 4750 1894 4750 
Q 2613 4750 3031 4423 
Q 3450 4097 3450 3541 
Q 3450 3153 3228 2886 
Q 3006 2619 2597 2516 
z
" transform="scale(0.015625)"/>
     </defs>
     <use xlink:href="#DejaVuSans-3"/>
     <use xlink:href="#DejaVuSans-3" transform="translate(31.78125 0)"/>
     <use xlink:href="#DejaVuSans-26" transform="translate(63.5625 0)"/>
     <use xlink:href="#DejaVuSans-52" transform="translate(133.390625 0)"/>
     <use xlink:href="#DejaVuSans-55" transform="translate(194.578125 0)"/>
     <use xlink:href="#DejaVuSans-52" transform="translate(233.484375 0)"/>
     <use xlink:href="#DejaVuSans-4f" transform="translate(294.671875 0)"/>
     <use xlink:href="#DejaVuSans-4f" transform="translate(322.453125 0)"/>
     <use xlink:href="#DejaVuSans-44" transform="translate(350.234375 0)"/>
     <use xlink:href="#DejaVuSans-55" transform="translate(411.515625 0)"/>
     <use xlink:href="#DejaVuSans-5c" transform="translate(452.625 0)"/>
     <use xlink:href="#DejaVuSans-3" transform="translate(511.8125 0)"/>
     <use xlink:href="#DejaVuSans-14" transform="translate(543.59375 0)"/>
     <use xlink:href="#DejaVuSans-3" transform="translate(607.21875 0)"/>
     <use xlink:href="#DejaVuSans-45" transform="translate(639 0)"/>
     <use xlink:href="#DejaVuSans-52" transform="translate(702.484375 0)"/>
     <use xlink:href="#DejaVuSans-58" transform="translate(763.671875 0)"/>
     <use xlink:href="#DejaVuSans-51" transform="translate(827.046875 0)"/>
     <use xlink:href="#DejaVuSans-47" transform="translate(890.421875 0)"/>
     <use xlink:href="#DejaVuSans-3" transform="translate(953.90625 0)"/>
     <use xlink:href="#DejaVuSans-13" transform="translate(985.6875 0)"/>
     <use xlink:href="#DejaVuSans-11" transform="translate(1049.3125 0)"/>
     <use xlink:href="#DejaVuSans-13" transform="translate(1081.09375 0)"/>
     <use xlink:href="#DejaVuSans-16" transform="translate(1144.71875 0)"/>
     <use xlink:href="#DejaVuSans-16" transform="translate(1208.34375 0)"/>
     <use xlink:href="#DejaVuSans-14" transform="translate(1271.96875 0)"/>
    </g>
    <!--   (72 pairs outside the L=1 cone) -->
    <g style="fill: #555555" transform="translate(401.459206 313.801103) scale(0.08 -0.08)">
     <defs>
      <path id="DejaVuSans-b" d="M 1984 4856 
Q 1566 4138 1362 3434 
Q 1159 2731 1159 2009 
Q 1159 1288 1364 580 
Q 1569 -128 1984 -844 
L 1484 -844 
Q 1016 -109 783 600 
Q 550 1309 550 2009 
Q 550 2706 781 3412 
Q 1013 4119 1484 4856 
L 1984 4856 
z
" transform="scale(0.015625)"/>
      <path id="DejaVuSans-1a" d="M 525 4666 
L 3525 4666 
L 3525 4397 
L 1831 0 
L 1172 0 
L 2766 4134 
L 525 4134 
L 525 4666 
z
" transform="scale(0.015625)"/>
      <path id="DejaVuSans-4b" d="M 3513 2113 
L 3513 0 
L 2938 0 
L 2938 2094 
Q 2938 2591 2744 2837 
Q 2550 3084 2163 3084 
Q 1697 3084 1428 2787 
Q 1159 2491 1159 1978 
L 1159 0 
L 581 0 
L 581 4863 
L 1159 4863 
L 1159 2956 
Q 1366 3272 1645 3428 
Q 1925 3584 2291 3584 
Q 2894 3584 3203 3211 
Q 3513 2838 3513 2113 
z
" transform="scale(0.015625)"/>
      <path id="DejaVuSans-2f" d="M 628 4666 
L 1259 4666 
L 1259 531 
L 3531 531 
L 3531 0 
L 628 0 
L 628 4666 
z
" transform="scale(0.015625)"/>
      <path id="DejaVuSans-20" d="M 678 2906 
L 4684 2906 
L 4684 2381 
L 678 2381 
L 678 2906 
z
M 678 1631 
L 4684 1631 
L 4684 1100 
L 678 1100 
L 678 1631 
z
" transform="scale(0.015625)"/>
      <path id="DejaVuSans-c" d="M 513 4856 
L 1013 4856 
Q 1481 4119 1714 3412 
Q 1947 2706 1947 2009 
Q 1947 1309 1714 600 
Q 1481 -109 1013 -844 
L 513 -844 
Q 928 -128 1133 580 
Q 1338 1288 1338 2009 
Q 1338 2731 1133 3434 
Q 928 4138 513 4856 
z
" transform="scale(0.015625)"/>
     </defs>
     <use xlink:href="#DejaVuSans-3"/>
     <use xlink:href="#DejaVuSans-3" transform="translate(31.78125 0)"/>
     <use xlink:href="#DejaVuSans-b" transform="translate(63.5625 0)"/>
     <use xlink:href="#DejaVuSans-1a" transform="translate(102.578125 0)"/>
     <use xlink:href="#DejaVuSans-15" transform="translate(166.203125 0)"/>
     <use xlink:href="#DejaVuSans-3" transform="translate(229.828125 0)"/>
     <use xlink:href="#DejaVuSans-53" transform="translate(261.609375 0)"/>
     <use xlink:href="#DejaVuSans-44" transform="translate(325.09375 0)"/>
     <use xlink:href="#DejaVuSans-4c" transform="translate(386.375 0)"/>
     <use xlink:href="#DejaVuSans-55" transform="translate(414.15625 0)"/>
     <use xlink:href="#DejaVuSans-56" transform="translate(455.265625 0)"/>
     <use xlink:href="#DejaVuSans-3" transform="translate(507.359375 0)"/>
     <use xlink:href="#DejaVuSans-52" transform="translate(539.140625 0)"/>
     <use xlink:href="#DejaVuSans-58" transform="translate(600.328125 0)"/>
     <use xlink:href="#DejaVuSans-57" transform="translate(663.703125 0)"/>
     <use xlink:href="#DejaVuSans-56" transform="translate(702.90625 0)"/>
     <use xlink:href="#DejaVuSans-4c" transform="translate(755 0)"/>
     <use xlink:href="#DejaVuSans-47" transform="translate(782.78125 0)"/>
     <use xlink:href="#DejaVuSans-48" transform="translate(846.265625 0)"/>
     <use xlink:href="#DejaVuSans-3" transform="translate(907.796875 0)"/>
     <use xlink:href="#DejaVuSans-57" transform="translate(939.578125 0)"/>
     <use xlink:href="#DejaVuSans-4b" transform="translate(978.78125 0)"/>
     <use xlink:href="#DejaVuSans-48" transform="translate(1042.15625 0)"/>
     <use xlink:href="#DejaVuSans-3" transform="translate(1103.6875 0)"/>
     <use xlink:href="#DejaVuSans-2f" transform="translate(1135.46875 0)"/>
     <use xlink:href="#DejaVuSans-20" transform="translate(1191.1875 0)"/>
     <use xlink:href="#DejaVuSans-14" transform="translate(1274.984375 0)"/>
     <use xlink:href="#DejaVuSans-3" transform="translate(1338.609375 0)"/>
     <use xlink:href="#DejaVuSans-46" transform="translate(1370.390625 0)"/>
     <use xlink:href="#DejaVuSans-52" transform="translate(1425.375 0)"/>
     <use xlink:href="#DejaVuSans-51" transform="translate(1486.5625 0)"/>
     <use xlink:href="#DejaVuSans-48" transform="translate(1549.9375 0)"/>
     <use xlink:href="#DejaVuSans-c" transform="translate(1611.46875 0)"/>
    </g>
   </g>
   <g id="text_16">
    <!--   ceiling 0.0437 -->
    <g style="fill: #2e8b57" transform="translate(401.459206 277.050495) scale(0.08 -0.08)">
     <use xlink:href="#DejaVuSans-3"/>
     <use xlink:href="#DejaVuSans-3" transform="translate(31.78125 0)"/>
     <use xlink:href="#DejaVuSans-46" transform="translate(63.5625 0)"/>
     <use xlink:href="#DejaVuSans-48" transform="translate(118.546875 0)"/>
     <use xlink:href="#DejaVuSans-4c" transform="translate(180.078125 0)"/>
     <use xlink:href="#DejaVuSans-4f" transform="translate(207.859375 0)"/>
     <use xlink:href="#DejaVuSans-4c" transform="translate(235.640625 0)"/>
     <use xlink:href="#DejaVuSans-51" transform="translate(263.421875 0)"/>
     <use xlink:href="#DejaVuSans-4a" transform="translate(326.796875 0)"/>
     <use xlink:href="#DejaVuSans-3" transform="translate(390.28125 0)"/>
     <use xlink:href="#DejaVuSans-13" transform="translate(422.0625 0)"/>
     <use xlink:href="#DejaVuSans-11" transform="translate(485.6875 0)"/>
     <use xlink:href="#DejaVuSans-13" transform="translate(517.46875 0)"/>
     <use xlink:href="#DejaVuSans-17" transform="translate(581.09375 0)"/>
     <use xlink:href="#DejaVuSans-16" transform="translate(644.71875 0)"/>
     <use xlink:href="#DejaVuSans-1a" transform="translate(708.34375 0)"/>
    </g>
    <!--   (GAN removed) -->
    <g style="fill: #2e8b57" transform="translate(401.459206 288.55487) scale(0.08 -0.08)">
     <defs>
      <path id="DejaVuSans-2a" d="M 3809 666 
L 3809 1919 
L 2778 1919 
L 2778 2438 
L 4434 2438 
L 4434 434 
Q 4069 175 3628 42 
Q 3188 -91 2688 -91 
Q 1594 -91 976 548 
Q 359 1188 359 2328 
Q 359 3472 976 4111 
Q 1594 4750 2688 4750 
Q 3144 4750 3555 4637 
Q 3966 4525 4313 4306 
L 4313 3634 
Q 3963 3931 3569 4081 
Q 3175 4231 2741 4231 
Q 1884 4231 1454 3753 
Q 1025 3275 1025 2328 
Q 1025 1384 1454 906 
Q 1884 428 2741 428 
Q 3075 428 3337 486 
Q 3600 544 3809 666 
z
" transform="scale(0.015625)"/>
      <path id="DejaVuSans-24" d="M 2188 4044 
L 1331 1722 
L 3047 1722 
L 2188 4044 
z
M 1831 4666 
L 2547 4666 
L 4325 0 
L 3669 0 
L 3244 1197 
L 1141 1197 
L 716 0 
L 50 0 
L 1831 4666 
z
" transform="scale(0.015625)"/>
      <path id="DejaVuSans-31" d="M 628 4666 
L 1478 4666 
L 3547 763 
L 3547 4666 
L 4159 4666 
L 4159 0 
L 3309 0 
L 1241 3903 
L 1241 0 
L 628 0 
L 628 4666 
z
" transform="scale(0.015625)"/>
      <path id="DejaVuSans-50" d="M 3328 2828 
Q 3544 3216 3844 3400 
Q 4144 3584 4550 3584 
Q 5097 3584 5394 3201 
Q 5691 2819 5691 2113 
L 5691 0 
L 5113 0 
L 5113 2094 
Q 5113 2597 4934 2840 
Q 4756 3084 4391 3084 
Q 3944 3084 3684 2787 
Q 3425 2491 3425 1978 
L 3425 0 
L 2847 0 
L 2847 2094 
Q 2847 2600 2669 2842 
Q 2491 3084 2119 3084 
Q 1678 3084 1418 2786 
Q 1159 2488 1159 1978 
L 1159 0 
L 581 0 
L 581 3500 
L 1159 3500 
L 1159 2956 
Q 1356 3278 1631 3431 
Q 1906 3584 2284 3584 
Q 2666 3584 2933 3390 
Q 3200 3197 3328 2828 
z
" transform="scale(0.015625)"/>
      <path id="DejaVuSans-59" d="M 191 3500 
L 800 3500 
L 1894 563 
L 2988 3500 
L 3597 3500 
L 2284 0 
L 1503 0 
L 191 3500 
z
" transform="scale(0.015625)"/>
     </defs>
     <use xlink:href="#DejaVuSans-3"/>
     <use xlink:href="#DejaVuSans-3" transform="translate(31.78125 0)"/>
     <use xlink:href="#DejaVuSans-b" transform="translate(63.5625 0)"/>
     <use xlink:href="#DejaVuSans-2a" transform="translate(102.578125 0)"/>
     <use xlink:href="#DejaVuSans-24" transform="translate(180.0625 0)"/>
     <use xlink:href="#DejaVuSans-31" transform="translate(248.46875 0)"/>
     <use xlink:href="#DejaVuSans-3" transform="translate(323.28125 0)"/>
     <use xlink:href="#DejaVuSans-55" transform="translate(355.0625 0)"/>
     <use xlink:href="#DejaVuSans-48" transform="translate(393.96875 0)"/>
     <use xlink:href="#DejaVuSans-50" transform="translate(455.5 0)"/>
     <use xlink:href="#DejaVuSans-52" transform="translate(552.90625 0)"/>
     <use xlink:href="#DejaVuSans-59" transform="translate(614.09375 0)"/>
     <use xlink:href="#DejaVuSans-48" transform="translate(673.28125 0)"/>
     <use xlink:href="#DejaVuSans-47" transform="translate(734.8125 0)"/>
     <use xlink:href="#DejaVuSans-c" transform="translate(798.296875 0)"/>
    </g>
   </g>
   <g id="text_17">
    <!--   floor 0.0985 -->
    <g style="fill: #c0392b" transform="translate(401.459206 145.733668) scale(0.08 -0.08)">
     <defs>
      <path id="DejaVuSans-13b0" d="M 1831 4863 
L 3431 4863 
L 3431 0 
L 2853 0 
L 2853 4384 
L 1825 4384 
Q 1516 4384 1395 4259 
Q 1275 4134 1275 3809 
L 1275 3500 
L 2222 3500 
L 2222 3053 
L 1275 3053 
L 1275 0 
L 697 0 
L 697 3053 
L 147 3053 
L 147 3500 
L 697 3500 
L 697 3744 
Q 697 4328 969 4595 
Q 1241 4863 1831 4863 
z
" transform="scale(0.015625)"/>
      <path id="DejaVuSans-1c" d="M 703 97 
L 703 672 
Q 941 559 1184 500 
Q 1428 441 1663 441 
Q 2288 441 2617 861 
Q 2947 1281 2994 2138 
Q 2813 1869 2534 1725 
Q 2256 1581 1919 1581 
Q 1219 1581 811 2004 
Q 403 2428 403 3163 
Q 403 3881 828 4315 
Q 1253 4750 1959 4750 
Q 2769 4750 3195 4129 
Q 3622 3509 3622 2328 
Q 3622 1225 3098 567 
Q 2575 -91 1691 -91 
Q 1453 -91 1209 -44 
Q 966 3 703 97 
z
M 1959 2075 
Q 2384 2075 2632 2365 
Q 2881 2656 2881 3163 
Q 2881 3666 2632 3958 
Q 2384 4250 1959 4250 
Q 1534 4250 1286 3958 
Q 1038 3666 1038 3163 
Q 1038 2656 1286 2365 
Q 1534 2075 1959 2075 
z
" transform="scale(0.015625)"/>
      <path id="DejaVuSans-18" d="M 691 4666 
L 3169 4666 
L 3169 4134 
L 1269 4134 
L 1269 2991 
Q 1406 3038 1543 3061 
Q 1681 3084 1819 3084 
Q 2600 3084 3056 2656 
Q 3513 2228 3513 1497 
Q 3513 744 3044 326 
Q 2575 -91 1722 -91 
Q 1428 -91 1123 -41 
Q 819 9 494 109 
L 494 744 
Q 775 591 1075 516 
Q 1375 441 1709 441 
Q 2250 441 2565 725 
Q 2881 1009 2881 1497 
Q 2881 1984 2565 2268 
Q 2250 2553 1709 2553 
Q 1456 2553 1204 2497 
Q 953 2441 691 2322 
L 691 4666 
z
" transform="scale(0.015625)"/>
     </defs>
     <use xlink:href="#DejaVuSans-3"/>
     <use xlink:href="#DejaVuSans-3" transform="translate(31.78125 0)"/>
     <use xlink:href="#DejaVuSans-13b0" transform="translate(63.5625 0)"/>
     <use xlink:href="#DejaVuSans-52" transform="translate(126.546875 0)"/>
     <use xlink:href="#DejaVuSans-52" transform="translate(187.734375 0)"/>
     <use xlink:href="#DejaVuSans-55" transform="translate(248.921875 0)"/>
     <use xlink:href="#DejaVuSans-3" transform="translate(290.03125 0)"/>
     <use xlink:href="#DejaVuSans-13" transform="translate(321.8125 0)"/>
     <use xlink:href="#DejaVuSans-11" transform="translate(385.4375 0)"/>
     <use xlink:href="#DejaVuSans-13" transform="translate(417.21875 0)"/>
     <use xlink:href="#DejaVuSans-1c" transform="translate(480.84375 0)"/>
     <use xlink:href="#DejaVuSans-1b" transform="translate(544.46875 0)"/>
     <use xlink:href="#DejaVuSans-18" transform="translate(608.09375 0)"/>
    </g>
    <!--   (no dependency at all) -->
    <g style="fill: #c0392b" transform="translate(401.459206 156.158668) scale(0.08 -0.08)">
     <use xlink:href="#DejaVuSans-3"/>
     <use xlink:href="#DejaVuSans-3" transform="translate(31.78125 0)"/>
     <use xlink:href="#DejaVuSans-b" transform="translate(63.5625 0)"/>
     <use xlink:href="#DejaVuSans-51" transform="translate(102.578125 0)"/>
     <use xlink:href="#DejaVuSans-52" transform="translate(165.953125 0)"/>
     <use xlink:href="#DejaVuSans-3" transform="translate(227.140625 0)"/>
     <use xlink:href="#DejaVuSans-47" transform="translate(258.921875 0)"/>
     <use xlink:href="#DejaVuSans-48" transform="translate(322.40625 0)"/>
     <use xlink:href="#DejaVuSans-53" transform="translate(383.9375 0)"/>
     <use xlink:href="#DejaVuSans-48" transform="translate(447.421875 0)"/>
     <use xlink:href="#DejaVuSans-51" transform="translate(508.953125 0)"/>
     <use xlink:href="#DejaVuSans-47" transform="translate(572.328125 0)"/>
     <use xlink:href="#DejaVuSans-48" transform="translate(635.8125 0)"/>
     <use xlink:href="#DejaVuSans-51" transform="translate(697.34375 0)"/>
     <use xlink:href="#DejaVuSans-46" transform="translate(760.71875 0)"/>
     <use xlink:href="#DejaVuSans-5c" transform="translate(815.703125 0)"/>
     <use xlink:href="#DejaVuSans-3" transform="translate(874.890625 0)"/>
     <use xlink:href="#DejaVuSans-44" transform="translate(906.671875 0)"/>
     <use xlink:href="#DejaVuSans-57" transform="translate(967.953125 0)"/>
     <use xlink:href="#DejaVuSans-3" transform="translate(1007.15625 0)"/>
     <use xlink:href="#DejaVuSans-44" transform="translate(1038.9375 0)"/>
     <use xlink:href="#DejaVuSans-4f" transform="translate(1100.21875 0)"/>
     <use xlink:href="#DejaVuSans-4f" transform="translate(1128 0)"/>
     <use xlink:href="#DejaVuSans-c" transform="translate(1155.78125 0)"/>
    </g>
   </g>
   <g id="line2d_16">
    <path d="M 65.595406 81.582125 
L 95.853406 104.722299 
L 126.111406 147.628038 
L 156.369406 175.830125 
L 186.627406 172.214473 
L 216.885406 203.309082 
L 247.143406 210.299342 
L 277.401406 212.22769 
L 307.659406 218.494821 
L 337.917406 214.638125 
L 368.175406 209.094125 
L 398.433406 222.110473 
" clip-path="url(#pc44e593cbc)" style="fill: none; stroke: #2c6fbb; stroke-width: 2; stroke-linecap: square"/>
    <defs>
     <path id="m8cf025d506" d="M 0 2.5 
C 0.663008 2.5 1.29895 2.236584 1.767767 1.767767 
C 2.236584 1.29895 2.5 0.663008 2.5 0 
C 2.5 -0.663008 2.236584 -1.29895 1.767767 -1.767767 
C 1.29895 -2.236584 0.663008 -2.5 0 -2.5 
C -0.663008 -2.5 -1.29895 -2.236584 -1.767767 -1.767767 
C -2.236584 -1.29895 -2.5 -0.663008 -2.5 0 
C -2.5 0.663008 -2.236584 1.29895 -1.767767 1.767767 
C -1.29895 2.236584 -0.663008 2.5 0 2.5 
z
" style="stroke: #2c6fbb"/>
    </defs>
    <g clip-path="url(#pc44e593cbc)">
     <use xlink:href="#m8cf025d506" x="65.595406" y="81.582125" style="fill: #2c6fbb; stroke: #2c6fbb"/>
     <use xlink:href="#m8cf025d506" x="95.853406" y="104.722299" style="fill: #2c6fbb; stroke: #2c6fbb"/>
     <use xlink:href="#m8cf025d506" x="126.111406" y="147.628038" style="fill: #2c6fbb; stroke: #2c6fbb"/>
     <use xlink:href="#m8cf025d506" x="156.369406" y="175.830125" style="fill: #2c6fbb; stroke: #2c6fbb"/>
     <use xlink:href="#m8cf025d506" x="186.627406" y="172.214473" style="fill: #2c6fbb; stroke: #2c6fbb"/>
     <use xlink:href="#m8cf025d506" x="216.885406" y="203.309082" style="fill: #2c6fbb; stroke: #2c6fbb"/>
     <use xlink:href="#m8cf025d506" x="247.143406" y="210.299342" style="fill: #2c6fbb; stroke: #2c6fbb"/>
     <use xlink:href="#m8cf025d506" x="277.401406" y="212.22769" style="fill: #2c6fbb; stroke: #2c6fbb"/>
     <use xlink:href="#m8cf025d506" x="307.659406" y="218.494821" style="fill: #2c6fbb; stroke: #2c6fbb"/>
     <use xlink:href="#m8cf025d506" x="337.917406" y="214.638125" style="fill: #2c6fbb; stroke: #2c6fbb"/>
     <use xlink:href="#m8cf025d506" x="368.175406" y="209.094125" style="fill: #2c6fbb; stroke: #2c6fbb"/>
     <use xlink:href="#m8cf025d506" x="398.433406" y="222.110473" style="fill: #2c6fbb; stroke: #2c6fbb"/>
    </g>
   </g>
   <g id="line2d_17">
    <path d="M 65.595406 82.064212 
L 95.853406 71.458299 
L 126.111406 93.875342 
L 156.369406 117.497603 
L 186.627406 141.842995 
L 216.885406 156.546647 
L 247.143406 156.546647 
L 277.401406 199.211342 
L 307.659406 208.370995 
L 337.917406 208.612038 
L 368.175406 206.68369 
L 398.433406 206.442647 
" clip-path="url(#pc44e593cbc)" style="fill: none; stroke: #e07b39; stroke-width: 2; stroke-linecap: square"/>
    <defs>
     <path id="m710c16702d" d="M -2.5 2.5 
L 2.5 2.5 
L 2.5 -2.5 
L -2.5 -2.5 
z
" style="stroke: #e07b39; stroke-linejoin: miter"/>
    </defs>
    <g clip-path="url(#pc44e593cbc)">
     <use xlink:href="#m710c16702d" x="65.595406" y="82.064212" style="fill: #e07b39; stroke: #e07b39; stroke-linejoin: miter"/>
     <use xlink:href="#m710c16702d" x="95.853406" y="71.458299" style="fill: #e07b39; stroke: #e07b39; stroke-linejoin: miter"/>
     <use xlink:href="#m710c16702d" x="126.111406" y="93.875342" style="fill: #e07b39; stroke: #e07b39; stroke-linejoin: miter"/>
     <use xlink:href="#m710c16702d" x="156.369406" y="117.497603" style="fill: #e07b39; stroke: #e07b39; stroke-linejoin: miter"/>
     <use xlink:href="#m710c16702d" x="186.627406" y="141.842995" style="fill: #e07b39; stroke: #e07b39; stroke-linejoin: miter"/>
     <use xlink:href="#m710c16702d" x="216.885406" y="156.546647" style="fill: #e07b39; stroke: #e07b39; stroke-linejoin: miter"/>
     <use xlink:href="#m710c16702d" x="247.143406" y="156.546647" style="fill: #e07b39; stroke: #e07b39; stroke-linejoin: miter"/>
     <use xlink:href="#m710c16702d" x="277.401406" y="199.211342" style="fill: #e07b39; stroke: #e07b39; stroke-linejoin: miter"/>
     <use xlink:href="#m710c16702d" x="307.659406" y="208.370995" style="fill: #e07b39; stroke: #e07b39; stroke-linejoin: miter"/>
     <use xlink:href="#m710c16702d" x="337.917406" y="208.612038" style="fill: #e07b39; stroke: #e07b39; stroke-linejoin: miter"/>
     <use xlink:href="#m710c16702d" x="368.175406" y="206.68369" style="fill: #e07b39; stroke: #e07b39; stroke-linejoin: miter"/>
     <use xlink:href="#m710c16702d" x="398.433406" y="206.442647" style="fill: #e07b39; stroke: #e07b39; stroke-linejoin: miter"/>
    </g>
   </g>
   <g id="line2d_18">
    <path d="M 65.595406 89.054473 
L 95.853406 112.917777 
L 126.111406 125.934125 
L 156.369406 136.781082 
L 186.627406 145.69969 
L 216.885406 148.110125 
L 247.143406 151.24369 
L 277.401406 149.556386 
L 307.659406 147.386995 
L 337.917406 147.869082 
L 368.175406 148.110125 
L 398.433406 148.110125 
" clip-path="url(#pc44e593cbc)" style="fill: none; stroke: #8a8a8a; stroke-width: 2; stroke-linecap: square"/>
    <defs>
     <path id="mb2fee99464" d="M 0 -2.5 
L -2.5 2.5 
L 2.5 2.5 
z
" style="stroke: #8a8a8a; stroke-linejoin: miter"/>
    </defs>
    <g clip-path="url(#pc44e593cbc)">
     <use xlink:href="#mb2fee99464" x="65.595406" y="89.054473" style="fill: #8a8a8a; stroke: #8a8a8a; stroke-linejoin: miter"/>
     <use xlink:href="#mb2fee99464" x="95.853406" y="112.917777" style="fill: #8a8a8a; stroke: #8a8a8a; stroke-linejoin: miter"/>
     <use xlink:href="#mb2fee99464" x="126.111406" y="125.934125" style="fill: #8a8a8a; stroke: #8a8a8a; stroke-linejoin: miter"/>
     <use xlink:href="#mb2fee99464" x="156.369406" y="136.781082" style="fill: #8a8a8a; stroke: #8a8a8a; stroke-linejoin: miter"/>
     <use xlink:href="#mb2fee99464" x="186.627406" y="145.69969" style="fill: #8a8a8a; stroke: #8a8a8a; stroke-linejoin: miter"/>
     <use xlink:href="#mb2fee99464" x="216.885406" y="148.110125" style="fill: #8a8a8a; stroke: #8a8a8a; stroke-linejoin: miter"/>
     <use xlink:href="#mb2fee99464" x="247.143406" y="151.24369" style="fill: #8a8a8a; stroke: #8a8a8a; stroke-linejoin: miter"/>
     <use xlink:href="#mb2fee99464" x="277.401406" y="149.556386" style="fill: #8a8a8a; stroke: #8a8a8a; stroke-linejoin: miter"/>
     <use xlink:href="#mb2fee99464" x="307.659406" y="147.386995" style="fill: #8a8a8a; stroke: #8a8a8a; stroke-linejoin: miter"/>
     <use xlink:href="#mb2fee99464" x="337.917406" y="147.869082" style="fill: #8a8a8a; stroke: #8a8a8a; stroke-linejoin: miter"/>
     <use xlink:href="#mb2fee99464" x="368.175406" y="148.110125" style="fill: #8a8a8a; stroke: #8a8a8a; stroke-linejoin: miter"/>
     <use xlink:href="#mb2fee99464" x="398.433406" y="148.110125" style="fill: #8a8a8a; stroke: #8a8a8a; stroke-linejoin: miter"/>
    </g>
   </g>
   <g id="patch_6">
    <path d="M 331.878675 82.811539 
Q 338.707385 113.587497 332.49561 144.331057 
" style="fill: none; stroke: #777777; stroke-linecap: round"/>
    <path d="M 334.835304 141.335088 
L 332.49561 144.331057 
L 331.502651 140.661721 
" style="fill: none; stroke: #777777; stroke-linecap: round"/>
   </g>
   <g id="text_18">
    <!-- no_entangle lands exactly on the floor and stays: -->
    <g style="fill: #333333" transform="translate(219.911206 49.214704) scale(0.085 -0.085)">
     <defs>
      <path id="DejaVuSans-42" d="M 3263 -1063 
L 3263 -1509 
L -63 -1509 
L -63 -1063 
L 3263 -1063 
z
" transform="scale(0.015625)"/>
      <path id="DejaVuSans-5b" d="M 3513 3500 
L 2247 1797 
L 3578 0 
L 2900 0 
L 1881 1375 
L 863 0 
L 184 0 
L 1544 1831 
L 300 3500 
L 978 3500 
L 1906 2253 
L 2834 3500 
L 3513 3500 
z
" transform="scale(0.015625)"/>
      <path id="DejaVuSans-1d" d="M 750 794 
L 1409 794 
L 1409 0 
L 750 0 
L 750 794 
z
M 750 3309 
L 1409 3309 
L 1409 2516 
L 750 2516 
L 750 3309 
z
" transform="scale(0.015625)"/>
     </defs>
     <use xlink:href="#DejaVuSans-51"/>
     <use xlink:href="#DejaVuSans-52" transform="translate(63.375 0)"/>
     <use xlink:href="#DejaVuSans-42" transform="translate(124.5625 0)"/>
     <use xlink:href="#DejaVuSans-48" transform="translate(174.5625 0)"/>
     <use xlink:href="#DejaVuSans-51" transform="translate(236.09375 0)"/>
     <use xlink:href="#DejaVuSans-57" transform="translate(299.46875 0)"/>
     <use xlink:href="#DejaVuSans-44" transform="translate(338.671875 0)"/>
     <use xlink:href="#DejaVuSans-51" transform="translate(399.953125 0)"/>
     <use xlink:href="#DejaVuSans-4a" transform="translate(463.328125 0)"/>
     <use xlink:href="#DejaVuSans-4f" transform="translate(526.8125 0)"/>
     <use xlink:href="#DejaVuSans-48" transform="translate(554.59375 0)"/>
     <use xlink:href="#DejaVuSans-3" transform="translate(616.125 0)"/>
     <use xlink:href="#DejaVuSans-4f" transform="translate(647.90625 0)"/>
     <use xlink:href="#DejaVuSans-44" transform="translate(675.6875 0)"/>
     <use xlink:href="#DejaVuSans-51" transform="translate(736.96875 0)"/>
     <use xlink:href="#DejaVuSans-47" transform="translate(800.34375 0)"/>
     <use xlink:href="#DejaVuSans-56" transform="translate(863.828125 0)"/>
     <use xlink:href="#DejaVuSans-3" transform="translate(915.921875 0)"/>
     <use xlink:href="#DejaVuSans-48" transform="translate(947.703125 0)"/>
     <use xlink:href="#DejaVuSans-5b" transform="translate(1007.484375 0)"/>
     <use xlink:href="#DejaVuSans-44" transform="translate(1066.671875 0)"/>
     <use xlink:href="#DejaVuSans-46" transform="translate(1127.953125 0)"/>
     <use xlink:href="#DejaVuSans-57" transform="translate(1182.9375 0)"/>
     <use xlink:href="#DejaVuSans-4f" transform="translate(1222.140625 0)"/>
     <use xlink:href="#DejaVuSans-5c" transform="translate(1249.921875 0)"/>
     <use xlink:href="#DejaVuSans-3" transform="translate(1309.109375 0)"/>
     <use xlink:href="#DejaVuSans-52" transform="translate(1340.890625 0)"/>
     <use xlink:href="#DejaVuSans-51" transform="translate(1402.078125 0)"/>
     <use xlink:href="#DejaVuSans-3" transform="translate(1465.453125 0)"/>
     <use xlink:href="#DejaVuSans-57" transform="translate(1497.234375 0)"/>
     <use xlink:href="#DejaVuSans-4b" transform="translate(1536.4375 0)"/>
     <use xlink:href="#DejaVuSans-48" transform="translate(1599.8125 0)"/>
     <use xlink:href="#DejaVuSans-3" transform="translate(1661.34375 0)"/>
     <use xlink:href="#DejaVuSans-13b0" transform="translate(1693.125 0)"/>
     <use xlink:href="#DejaVuSans-52" transform="translate(1756.109375 0)"/>
     <use xlink:href="#DejaVuSans-52" transform="translate(1817.296875 0)"/>
     <use xlink:href="#DejaVuSans-55" transform="translate(1878.484375 0)"/>
     <use xlink:href="#DejaVuSans-3" transform="translate(1919.59375 0)"/>
     <use xlink:href="#DejaVuSans-44" transform="translate(1951.375 0)"/>
     <use xlink:href="#DejaVuSans-51" transform="translate(2012.65625 0)"/>
     <use xlink:href="#DejaVuSans-47" transform="translate(2076.03125 0)"/>
     <use xlink:href="#DejaVuSans-3" transform="translate(2139.515625 0)"/>
     <use xlink:href="#DejaVuSans-56" transform="translate(2171.296875 0)"/>
     <use xlink:href="#DejaVuSans-57" transform="translate(2223.390625 0)"/>
     <use xlink:href="#DejaVuSans-44" transform="translate(2262.59375 0)"/>
     <use xlink:href="#DejaVuSans-5c" transform="translate(2323.875 0)"/>
     <use xlink:href="#DejaVuSans-56" transform="translate(2383.0625 0)"/>
     <use xlink:href="#DejaVuSans-1d" transform="translate(2435.15625 0)"/>
    </g>
    <!-- with no RZZ gates, ~2,000 head parameters -->
    <g style="fill: #333333" transform="translate(219.911206 62.082908) scale(0.085 -0.085)">
     <defs>
      <path id="DejaVuSans-5a" d="M 269 3500 
L 844 3500 
L 1563 769 
L 2278 3500 
L 2956 3500 
L 3675 769 
L 4391 3500 
L 4966 3500 
L 4050 0 
L 3372 0 
L 2619 2869 
L 1863 0 
L 1184 0 
L 269 3500 
z
" transform="scale(0.015625)"/>
      <path id="DejaVuSans-35" d="M 2841 2188 
Q 3044 2119 3236 1894 
Q 3428 1669 3622 1275 
L 4263 0 
L 3584 0 
L 2988 1197 
Q 2756 1666 2539 1819 
Q 2322 1972 1947 1972 
L 1259 1972 
L 1259 0 
L 628 0 
L 628 4666 
L 2053 4666 
Q 2853 4666 3247 4331 
Q 3641 3997 3641 3322 
Q 3641 2881 3436 2590 
Q 3231 2300 2841 2188 
z
M 1259 4147 
L 1259 2491 
L 2053 2491 
Q 2509 2491 2742 2702 
Q 2975 2913 2975 3322 
Q 2975 3731 2742 3939 
Q 2509 4147 2053 4147 
L 1259 4147 
z
" transform="scale(0.015625)"/>
      <path id="DejaVuSans-3d" d="M 359 4666 
L 4025 4666 
L 4025 4184 
L 1075 531 
L 4097 531 
L 4097 0 
L 288 0 
L 288 481 
L 3238 4134 
L 359 4134 
L 359 4666 
z
" transform="scale(0.015625)"/>
      <path id="DejaVuSans-61" d="M 4684 2553 
L 4684 1997 
Q 4356 1750 4076 1644 
Q 3797 1538 3494 1538 
Q 3150 1538 2694 1722 
Q 2659 1734 2644 1741 
Q 2622 1750 2575 1766 
Q 2091 1959 1797 1959 
Q 1522 1959 1253 1839 
Q 984 1719 678 1459 
L 678 2016 
Q 1006 2263 1286 2370 
Q 1566 2478 1869 2478 
Q 2213 2478 2672 2291 
Q 2703 2278 2719 2272 
Q 2744 2263 2788 2247 
Q 3272 2053 3566 2053 
Q 3834 2053 4098 2172 
Q 4363 2291 4684 2553 
z
" transform="scale(0.015625)"/>
     </defs>
     <use xlink:href="#DejaVuSans-5a"/>
     <use xlink:href="#DejaVuSans-4c" transform="translate(81.78125 0)"/>
     <use xlink:href="#DejaVuSans-57" transform="translate(109.5625 0)"/>
     <use xlink:href="#DejaVuSans-4b" transform="translate(148.765625 0)"/>
     <use xlink:href="#DejaVuSans-3" transform="translate(212.140625 0)"/>
     <use xlink:href="#DejaVuSans-51" transform="translate(243.921875 0)"/>
     <use xlink:href="#DejaVuSans-52" transform="translate(307.296875 0)"/>
     <use xlink:href="#DejaVuSans-3" transform="translate(368.484375 0)"/>
     <use xlink:href="#DejaVuSans-35" transform="translate(400.265625 0)"/>
     <use xlink:href="#DejaVuSans-3d" transform="translate(469.75 0)"/>
     <use xlink:href="#DejaVuSans-3d" transform="translate(538.25 0)"/>
     <use xlink:href="#DejaVuSans-3" transform="translate(606.75 0)"/>
     <use xlink:href="#DejaVuSans-4a" transform="translate(638.53125 0)"/>
     <use xlink:href="#DejaVuSans-44" transform="translate(702.015625 0)"/>
     <use xlink:href="#DejaVuSans-57" transform="translate(763.296875 0)"/>
     <use xlink:href="#DejaVuSans-48" transform="translate(802.5 0)"/>
     <use xlink:href="#DejaVuSans-56" transform="translate(864.03125 0)"/>
     <use xlink:href="#DejaVuSans-f" transform="translate(916.125 0)"/>
     <use xlink:href="#DejaVuSans-3" transform="translate(947.90625 0)"/>
     <use xlink:href="#DejaVuSans-61" transform="translate(979.6875 0)"/>
     <use xlink:href="#DejaVuSans-15" transform="translate(1063.484375 0)"/>
     <use xlink:href="#DejaVuSans-f" transform="translate(1127.109375 0)"/>
     <use xlink:href="#DejaVuSans-13" transform="translate(1158.890625 0)"/>
     <use xlink:href="#DejaVuSans-13" transform="translate(1222.515625 0)"/>
     <use xlink:href="#DejaVuSans-13" transform="translate(1286.140625 0)"/>
     <use xlink:href="#DejaVuSans-3" transform="translate(1349.765625 0)"/>
     <use xlink:href="#DejaVuSans-4b" transform="translate(1381.546875 0)"/>
     <use xlink:href="#DejaVuSans-48" transform="translate(1444.921875 0)"/>
     <use xlink:href="#DejaVuSans-44" transform="translate(1506.453125 0)"/>
     <use xlink:href="#DejaVuSans-47" transform="translate(1567.734375 0)"/>
     <use xlink:href="#DejaVuSans-3" transform="translate(1631.21875 0)"/>
     <use xlink:href="#DejaVuSans-53" transform="translate(1663 0)"/>
     <use xlink:href="#DejaVuSans-44" transform="translate(1726.484375 0)"/>
     <use xlink:href="#DejaVuSans-55" transform="translate(1787.765625 0)"/>
     <use xlink:href="#DejaVuSans-44" transform="translate(1828.875 0)"/>
     <use xlink:href="#DejaVuSans-50" transform="translate(1890.15625 0)"/>
     <use xlink:href="#DejaVuSans-48" transform="translate(1987.5625 0)"/>
     <use xlink:href="#DejaVuSans-57" transform="translate(2049.09375 0)"/>
     <use xlink:href="#DejaVuSans-48" transform="translate(2088.296875 0)"/>
     <use xlink:href="#DejaVuSans-55" transform="translate(2149.828125 0)"/>
     <use xlink:href="#DejaVuSans-56" transform="translate(2190.9375 0)"/>
    </g>
    <!-- cannot create one dependence -->
    <g style="fill: #333333" transform="translate(219.911206 74.832908) scale(0.085 -0.085)">
     <use xlink:href="#DejaVuSans-46"/>
     <use xlink:href="#DejaVuSans-44" transform="translate(54.984375 0)"/>
     <use xlink:href="#DejaVuSans-51" transform="translate(116.265625 0)"/>
     <use xlink:href="#DejaVuSans-51" transform="translate(179.640625 0)"/>
     <use xlink:href="#DejaVuSans-52" transform="translate(243.015625 0)"/>
     <use xlink:href="#DejaVuSans-57" transform="translate(304.203125 0)"/>
     <use xlink:href="#DejaVuSans-3" transform="translate(343.40625 0)"/>
     <use xlink:href="#DejaVuSans-46" transform="translate(375.1875 0)"/>
     <use xlink:href="#DejaVuSans-55" transform="translate(430.171875 0)"/>
     <use xlink:href="#DejaVuSans-48" transform="translate(469.078125 0)"/>
     <use xlink:href="#DejaVuSans-44" transform="translate(530.609375 0)"/>
     <use xlink:href="#DejaVuSans-57" transform="translate(591.890625 0)"/>
     <use xlink:href="#DejaVuSans-48" transform="translate(631.09375 0)"/>
     <use xlink:href="#DejaVuSans-3" transform="translate(692.625 0)"/>
     <use xlink:href="#DejaVuSans-52" transform="translate(724.40625 0)"/>
     <use xlink:href="#DejaVuSans-51" transform="translate(785.59375 0)"/>
     <use xlink:href="#DejaVuSans-48" transform="translate(848.96875 0)"/>
     <use xlink:href="#DejaVuSans-3" transform="translate(910.5 0)"/>
     <use xlink:href="#DejaVuSans-47" transform="translate(942.28125 0)"/>
     <use xlink:href="#DejaVuSans-48" transform="translate(1005.765625 0)"/>
     <use xlink:href="#DejaVuSans-53" transform="translate(1067.296875 0)"/>
     <use xlink:href="#DejaVuSans-48" transform="translate(1130.78125 0)"/>
     <use xlink:href="#DejaVuSans-51" transform="translate(1192.3125 0)"/>
     <use xlink:href="#DejaVuSans-47" transform="translate(1255.6875 0)"/>
     <use xlink:href="#DejaVuSans-48" transform="translate(1319.171875 0)"/>
     <use xlink:href="#DejaVuSans-51" transform="translate(1380.703125 0)"/>
     <use xlink:href="#DejaVuSans-46" transform="translate(1444.078125 0)"/>
     <use xlink:href="#DejaVuSans-48" transform="translate(1499.0625 0)"/>
    </g>
   </g>
   <g id="patch_7">
    <path d="M 191.391437 215.056204 
Q 159.755659 183.016903 128.905425 151.773164 
" style="fill: none; stroke: #c0392b; stroke-linecap: round"/>
    <path d="M 130.084629 155.386954 
L 128.905425 151.773164 
L 132.50398 152.998075 
" style="fill: none; stroke: #c0392b; stroke-linecap: round"/>
   </g>
   <g id="text_19">
    <!-- 3,000 steps: sitting ON the floor. -->
    <g style="fill: #c0392b" transform="translate(138.214606 227.19769) scale(0.085 -0.085)">
     <defs>
      <path id="DejaVuSans-32" d="M 2522 4238 
Q 1834 4238 1429 3725 
Q 1025 3213 1025 2328 
Q 1025 1447 1429 934 
Q 1834 422 2522 422 
Q 3209 422 3611 934 
Q 4013 1447 4013 2328 
Q 4013 3213 3611 3725 
Q 3209 4238 2522 4238 
z
M 2522 4750 
Q 3503 4750 4090 4092 
Q 4678 3434 4678 2328 
Q 4678 1225 4090 567 
Q 3503 -91 2522 -91 
Q 1538 -91 948 565 
Q 359 1222 359 2328 
Q 359 3434 948 4092 
Q 1538 4750 2522 4750 
z
" transform="scale(0.015625)"/>
     </defs>
     <use xlink:href="#DejaVuSans-16"/>
     <use xlink:href="#DejaVuSans-f" transform="translate(63.625 0)"/>
     <use xlink:href="#DejaVuSans-13" transform="translate(95.40625 0)"/>
     <use xlink:href="#DejaVuSans-13" transform="translate(159.03125 0)"/>
     <use xlink:href="#DejaVuSans-13" transform="translate(222.65625 0)"/>
     <use xlink:href="#DejaVuSans-3" transform="translate(286.28125 0)"/>
     <use xlink:href="#DejaVuSans-56" transform="translate(318.0625 0)"/>
     <use xlink:href="#DejaVuSans-57" transform="translate(370.15625 0)"/>
     <use xlink:href="#DejaVuSans-48" transform="translate(409.359375 0)"/>
     <use xlink:href="#DejaVuSans-53" transform="translate(470.890625 0)"/>
     <use xlink:href="#DejaVuSans-56" transform="translate(534.375 0)"/>
     <use xlink:href="#DejaVuSans-1d" transform="translate(586.46875 0)"/>
     <use xlink:href="#DejaVuSans-3" transform="translate(620.15625 0)"/>
     <use xlink:href="#DejaVuSans-56" transform="translate(651.9375 0)"/>
     <use xlink:href="#DejaVuSans-4c" transform="translate(704.03125 0)"/>
     <use xlink:href="#DejaVuSans-57" transform="translate(731.8125 0)"/>
     <use xlink:href="#DejaVuSans-57" transform="translate(771.015625 0)"/>
     <use xlink:href="#DejaVuSans-4c" transform="translate(810.21875 0)"/>
     <use xlink:href="#DejaVuSans-51" transform="translate(838 0)"/>
     <use xlink:href="#DejaVuSans-4a" transform="translate(901.375 0)"/>
     <use xlink:href="#DejaVuSans-3" transform="translate(964.859375 0)"/>
     <use xlink:href="#DejaVuSans-32" transform="translate(996.640625 0)"/>
     <use xlink:href="#DejaVuSans-31" transform="translate(1075.359375 0)"/>
     <use xlink:href="#DejaVuSans-3" transform="translate(1150.171875 0)"/>
     <use xlink:href="#DejaVuSans-57" transform="translate(1181.953125 0)"/>
     <use xlink:href="#DejaVuSans-4b" transform="translate(1221.15625 0)"/>
     <use xlink:href="#DejaVuSans-48" transform="translate(1284.53125 0)"/>
     <use xlink:href="#DejaVuSans-3" transform="translate(1346.0625 0)"/>
     <use xlink:href="#DejaVuSans-13b0" transform="translate(1377.84375 0)"/>
     <use xlink:href="#DejaVuSans-52" transform="translate(1440.828125 0)"/>
     <use xlink:href="#DejaVuSans-52" transform="translate(1502.015625 0)"/>
     <use xlink:href="#DejaVuSans-55" transform="translate(1563.203125 0)"/>
     <use xlink:href="#DejaVuSans-11" transform="translate(1595.140625 0)"/>
    </g>
    <!-- The first WP-2 run stopped here. -->
    <g style="fill: #c0392b" transform="translate(138.214606 239.94769) scale(0.085 -0.085)">
     <defs>
      <path id="DejaVuSans-37" d="M -19 4666 
L 3928 4666 
L 3928 4134 
L 2272 4134 
L 2272 0 
L 1638 0 
L 1638 4134 
L -19 4134 
L -19 4666 
z
" transform="scale(0.015625)"/>
      <path id="DejaVuSans-13af" d="M 3431 3500 
L 3431 0 
L 2853 0 
L 2853 3053 
L 1275 3053 
L 1275 0 
L 697 0 
L 697 3053 
L 147 3053 
L 147 3500 
L 697 3500 
L 697 3744 
Q 697 4316 967 4589 
Q 1238 4863 1797 4863 
L 2375 4863 
L 2375 4384 
L 1825 4384 
Q 1516 4384 1395 4259 
Q 1275 4134 1275 3809 
L 1275 3500 
L 3431 3500 
z
M 2853 4856 
L 3431 4856 
L 3431 4128 
L 2853 4128 
L 2853 4856 
z
" transform="scale(0.015625)"/>
      <path id="DejaVuSans-3a" d="M 213 4666 
L 850 4666 
L 1831 722 
L 2809 4666 
L 3519 4666 
L 4500 722 
L 5478 4666 
L 6119 4666 
L 4947 0 
L 4153 0 
L 3169 4050 
L 2175 0 
L 1381 0 
L 213 4666 
z
" transform="scale(0.015625)"/>
      <path id="DejaVuSans-33" d="M 1259 4147 
L 1259 2394 
L 2053 2394 
Q 2494 2394 2734 2622 
Q 2975 2850 2975 3272 
Q 2975 3691 2734 3919 
Q 2494 4147 2053 4147 
L 1259 4147 
z
M 628 4666 
L 2053 4666 
Q 2838 4666 3239 4311 
Q 3641 3956 3641 3272 
Q 3641 2581 3239 2228 
Q 2838 1875 2053 1875 
L 1259 1875 
L 1259 0 
L 628 0 
L 628 4666 
z
" transform="scale(0.015625)"/>
      <path id="DejaVuSans-10" d="M 313 2009 
L 1997 2009 
L 1997 1497 
L 313 1497 
L 313 2009 
z
" transform="scale(0.015625)"/>
     </defs>
     <use xlink:href="#DejaVuSans-37"/>
     <use xlink:href="#DejaVuSans-4b" transform="translate(61.078125 0)"/>
     <use xlink:href="#DejaVuSans-48" transform="translate(124.453125 0)"/>
     <use xlink:href="#DejaVuSans-3" transform="translate(185.984375 0)"/>
     <use xlink:href="#DejaVuSans-13af" transform="translate(217.765625 0)"/>
     <use xlink:href="#DejaVuSans-55" transform="translate(280.75 0)"/>
     <use xlink:href="#DejaVuSans-56" transform="translate(321.859375 0)"/>
     <use xlink:href="#DejaVuSans-57" transform="translate(373.953125 0)"/>
     <use xlink:href="#DejaVuSans-3" transform="translate(413.15625 0)"/>
     <use xlink:href="#DejaVuSans-3a" transform="translate(444.9375 0)"/>
     <use xlink:href="#DejaVuSans-33" transform="translate(543.8125 0)"/>
     <use xlink:href="#DejaVuSans-10" transform="translate(601.90625 0)"/>
     <use xlink:href="#DejaVuSans-15" transform="translate(637.984375 0)"/>
     <use xlink:href="#DejaVuSans-3" transform="translate(701.609375 0)"/>
     <use xlink:href="#DejaVuSans-55" transform="translate(733.390625 0)"/>
     <use xlink:href="#DejaVuSans-58" transform="translate(774.5 0)"/>
     <use xlink:href="#DejaVuSans-51" transform="translate(837.875 0)"/>
     <use xlink:href="#DejaVuSans-3" transform="translate(901.25 0)"/>
     <use xlink:href="#DejaVuSans-56" transform="translate(933.03125 0)"/>
     <use xlink:href="#DejaVuSans-57" transform="translate(985.125 0)"/>
     <use xlink:href="#DejaVuSans-52" transform="translate(1024.328125 0)"/>
     <use xlink:href="#DejaVuSans-53" transform="translate(1085.515625 0)"/>
     <use xlink:href="#DejaVuSans-53" transform="translate(1149 0)"/>
     <use xlink:href="#DejaVuSans-48" transform="translate(1212.484375 0)"/>
     <use xlink:href="#DejaVuSans-47" transform="translate(1274.015625 0)"/>
     <use xlink:href="#DejaVuSans-3" transform="translate(1337.5 0)"/>
     <use xlink:href="#DejaVuSans-4b" transform="translate(1369.28125 0)"/>
     <use xlink:href="#DejaVuSans-48" transform="translate(1432.65625 0)"/>
     <use xlink:href="#DejaVuSans-55" transform="translate(1494.1875 0)"/>
     <use xlink:href="#DejaVuSans-48" transform="translate(1533.09375 0)"/>
     <use xlink:href="#DejaVuSans-11" transform="translate(1594.625 0)"/>
    </g>
   </g>
   <g id="text_20">
    <!-- Real MIMIC-IV: only the CDG-wired circuit learns the clinical structure -->
    <g style="fill: #222222" transform="translate(25.126906 16.318125) scale(0.12 -0.12)">
     <defs>
      <path id="DejaVuSans-30" d="M 628 4666 
L 1569 4666 
L 2759 1491 
L 3956 4666 
L 4897 4666 
L 4897 0 
L 4281 0 
L 4281 4097 
L 3078 897 
L 2444 897 
L 1241 4097 
L 1241 0 
L 628 0 
L 628 4666 
z
" transform="scale(0.015625)"/>
      <path id="DejaVuSans-2c" d="M 628 4666 
L 1259 4666 
L 1259 0 
L 628 0 
L 628 4666 
z
" transform="scale(0.015625)"/>
      <path id="DejaVuSans-39" d="M 1831 0 
L 50 4666 
L 709 4666 
L 2188 738 
L 3669 4666 
L 4325 4666 
L 2547 0 
L 1831 0 
z
" transform="scale(0.015625)"/>
      <path id="DejaVuSans-27" d="M 1259 4147 
L 1259 519 
L 2022 519 
Q 2988 519 3436 956 
Q 3884 1394 3884 2338 
Q 3884 3275 3436 3711 
Q 2988 4147 2022 4147 
L 1259 4147 
z
M 628 4666 
L 1925 4666 
Q 3281 4666 3915 4102 
Q 4550 3538 4550 2338 
Q 4550 1131 3912 565 
Q 3275 0 1925 0 
L 628 0 
L 628 4666 
z
" transform="scale(0.015625)"/>
     </defs>
     <use xlink:href="#DejaVuSans-35"/>
     <use xlink:href="#DejaVuSans-48" transform="translate(65 0)"/>
     <use xlink:href="#DejaVuSans-44" transform="translate(126.53125 0)"/>
     <use xlink:href="#DejaVuSans-4f" transform="translate(187.8125 0)"/>
     <use xlink:href="#DejaVuSans-3" transform="translate(215.59375 0)"/>
     <use xlink:href="#DejaVuSans-30" transform="translate(247.375 0)"/>
     <use xlink:href="#DejaVuSans-2c" transform="translate(333.65625 0)"/>
     <use xlink:href="#DejaVuSans-30" transform="translate(363.15625 0)"/>
     <use xlink:href="#DejaVuSans-2c" transform="translate(449.4375 0)"/>
     <use xlink:href="#DejaVuSans-26" transform="translate(478.9375 0)"/>
     <use xlink:href="#DejaVuSans-10" transform="translate(548.765625 0)"/>
     <use xlink:href="#DejaVuSans-2c" transform="translate(584.84375 0)"/>
     <use xlink:href="#DejaVuSans-39" transform="translate(614.34375 0)"/>
     <use xlink:href="#DejaVuSans-1d" transform="translate(674.59375 0)"/>
     <use xlink:href="#DejaVuSans-3" transform="translate(708.28125 0)"/>
     <use xlink:href="#DejaVuSans-52" transform="translate(740.0625 0)"/>
     <use xlink:href="#DejaVuSans-51" transform="translate(801.25 0)"/>
     <use xlink:href="#DejaVuSans-4f" transform="translate(864.625 0)"/>
     <use xlink:href="#DejaVuSans-5c" transform="translate(892.40625 0)"/>
     <use xlink:href="#DejaVuSans-3" transform="translate(951.59375 0)"/>
     <use xlink:href="#DejaVuSans-57" transform="translate(983.375 0)"/>
     <use xlink:href="#DejaVuSans-4b" transform="translate(1022.578125 0)"/>
     <use xlink:href="#DejaVuSans-48" transform="translate(1085.953125 0)"/>
     <use xlink:href="#DejaVuSans-3" transform="translate(1147.484375 0)"/>
     <use xlink:href="#DejaVuSans-26" transform="translate(1179.265625 0)"/>
     <use xlink:href="#DejaVuSans-27" transform="translate(1249.09375 0)"/>
     <use xlink:href="#DejaVuSans-2a" transform="translate(1326.09375 0)"/>
     <use xlink:href="#DejaVuSans-10" transform="translate(1403.578125 0)"/>
     <use xlink:href="#DejaVuSans-5a" transform="translate(1439.65625 0)"/>
     <use xlink:href="#DejaVuSans-4c" transform="translate(1521.4375 0)"/>
     <use xlink:href="#DejaVuSans-55" transform="translate(1549.21875 0)"/>
     <use xlink:href="#DejaVuSans-48" transform="translate(1588.125 0)"/>
     <use xlink:href="#DejaVuSans-47" transform="translate(1649.65625 0)"/>
     <use xlink:href="#DejaVuSans-3" transform="translate(1713.140625 0)"/>
     <use xlink:href="#DejaVuSans-46" transform="translate(1744.921875 0)"/>
     <use xlink:href="#DejaVuSans-4c" transform="translate(1799.90625 0)"/>
     <use xlink:href="#DejaVuSans-55" transform="translate(1827.6875 0)"/>
     <use xlink:href="#DejaVuSans-46" transform="translate(1866.59375 0)"/>
     <use xlink:href="#DejaVuSans-58" transform="translate(1921.578125 0)"/>
     <use xlink:href="#DejaVuSans-4c" transform="translate(1984.953125 0)"/>
     <use xlink:href="#DejaVuSans-57" transform="translate(2012.734375 0)"/>
     <use xlink:href="#DejaVuSans-3" transform="translate(2051.9375 0)"/>
     <use xlink:href="#DejaVuSans-4f" transform="translate(2083.71875 0)"/>
     <use xlink:href="#DejaVuSans-48" transform="translate(2111.5 0)"/>
     <use xlink:href="#DejaVuSans-44" transform="translate(2173.03125 0)"/>
     <use xlink:href="#DejaVuSans-55" transform="translate(2234.3125 0)"/>
     <use xlink:href="#DejaVuSans-51" transform="translate(2273.671875 0)"/>
     <use xlink:href="#DejaVuSans-56" transform="translate(2337.046875 0)"/>
     <use xlink:href="#DejaVuSans-3" transform="translate(2389.140625 0)"/>
     <use xlink:href="#DejaVuSans-57" transform="translate(2420.921875 0)"/>
     <use xlink:href="#DejaVuSans-4b" transform="translate(2460.125 0)"/>
     <use xlink:href="#DejaVuSans-48" transform="translate(2523.5 0)"/>
     <use xlink:href="#DejaVuSans-3" transform="translate(2585.03125 0)"/>
     <use xlink:href="#DejaVuSans-46" transform="translate(2616.8125 0)"/>
     <use xlink:href="#DejaVuSans-4f" transform="translate(2671.796875 0)"/>
     <use xlink:href="#DejaVuSans-4c" transform="translate(2699.578125 0)"/>
     <use xlink:href="#DejaVuSans-51" transform="translate(2727.359375 0)"/>
     <use xlink:href="#DejaVuSans-4c" transform="translate(2790.734375 0)"/>
     <use xlink:href="#DejaVuSans-46" transform="translate(2818.515625 0)"/>
     <use xlink:href="#DejaVuSans-44" transform="translate(2873.5 0)"/>
     <use xlink:href="#DejaVuSans-4f" transform="translate(2934.78125 0)"/>
     <use xlink:href="#DejaVuSans-3" transform="translate(2962.5625 0)"/>
     <use xlink:href="#DejaVuSans-56" transform="translate(2994.34375 0)"/>
     <use xlink:href="#DejaVuSans-57" transform="translate(3046.4375 0)"/>
     <use xlink:href="#DejaVuSans-55" transform="translate(3085.640625 0)"/>
     <use xlink:href="#DejaVuSans-58" transform="translate(3126.75 0)"/>
     <use xlink:href="#DejaVuSans-46" transform="translate(3190.125 0)"/>
     <use xlink:href="#DejaVuSans-57" transform="translate(3245.109375 0)"/>
     <use xlink:href="#DejaVuSans-58" transform="translate(3284.3125 0)"/>
     <use xlink:href="#DejaVuSans-55" transform="translate(3347.6875 0)"/>
     <use xlink:href="#DejaVuSans-48" transform="translate(3386.59375 0)"/>
    </g>
   </g>
   <g id="legend_1">
    <g id="line2d_19">
     <path d="M 59.466406 32.029781 
L 68.466406 32.029781 
L 77.466406 32.029781 
" style="fill: none; stroke: #2c6fbb; stroke-width: 2; stroke-linecap: square"/>
     <g>
      <use xlink:href="#m8cf025d506" x="68.466406" y="32.029781" style="fill: #2c6fbb; stroke: #2c6fbb"/>
     </g>
    </g>
    <g id="text_21">
     <!-- CDG (aligned) -->
     <g style="fill: #222222" transform="translate(85.466406 35.529781) scale(0.1 -0.1)">
      <use xlink:href="#DejaVuSans-26"/>
      <use xlink:href="#DejaVuSans-27" transform="translate(69.828125 0)"/>
      <use xlink:href="#DejaVuSans-2a" transform="translate(146.828125 0)"/>
      <use xlink:href="#DejaVuSans-3" transform="translate(224.3125 0)"/>
      <use xlink:href="#DejaVuSans-b" transform="translate(256.09375 0)"/>
      <use xlink:href="#DejaVuSans-44" transform="translate(295.109375 0)"/>
      <use xlink:href="#DejaVuSans-4f" transform="translate(356.390625 0)"/>
      <use xlink:href="#DejaVuSans-4c" transform="translate(384.171875 0)"/>
      <use xlink:href="#DejaVuSans-4a" transform="translate(411.953125 0)"/>
      <use xlink:href="#DejaVuSans-51" transform="translate(475.4375 0)"/>
      <use xlink:href="#DejaVuSans-48" transform="translate(538.8125 0)"/>
      <use xlink:href="#DejaVuSans-47" transform="translate(600.34375 0)"/>
      <use xlink:href="#DejaVuSans-c" transform="translate(663.828125 0)"/>
     </g>
    </g>
    <g id="line2d_20">
     <path d="M 171.750781 32.029781 
L 180.750781 32.029781 
L 189.750781 32.029781 
" style="fill: none; stroke: #e07b39; stroke-width: 2; stroke-linecap: square"/>
     <g>
      <use xlink:href="#m710c16702d" x="180.750781" y="32.029781" style="fill: #e07b39; stroke: #e07b39; stroke-linejoin: miter"/>
     </g>
    </g>
    <g id="text_22">
     <!-- permuted -->
     <g style="fill: #222222" transform="translate(197.750781 35.529781) scale(0.1 -0.1)">
      <use xlink:href="#DejaVuSans-53"/>
      <use xlink:href="#DejaVuSans-48" transform="translate(63.484375 0)"/>
      <use xlink:href="#DejaVuSans-55" transform="translate(125.015625 0)"/>
      <use xlink:href="#DejaVuSans-50" transform="translate(164.375 0)"/>
      <use xlink:href="#DejaVuSans-58" transform="translate(261.78125 0)"/>
      <use xlink:href="#DejaVuSans-57" transform="translate(325.15625 0)"/>
      <use xlink:href="#DejaVuSans-48" transform="translate(364.359375 0)"/>
      <use xlink:href="#DejaVuSans-47" transform="translate(425.890625 0)"/>
     </g>
    </g>
    <g id="line2d_21">
     <path d="M 262.688281 32.029781 
L 271.688281 32.029781 
L 280.688281 32.029781 
" style="fill: none; stroke: #8a8a8a; stroke-width: 2; stroke-linecap: square"/>
     <g>
      <use xlink:href="#mb2fee99464" x="271.688281" y="32.029781" style="fill: #8a8a8a; stroke: #8a8a8a; stroke-linejoin: miter"/>
     </g>
    </g>
    <g id="text_23">
     <!-- no_entangle -->
     <g style="fill: #222222" transform="translate(288.688281 35.529781) scale(0.1 -0.1)">
      <use xlink:href="#DejaVuSans-51"/>
      <use xlink:href="#DejaVuSans-52" transform="translate(63.375 0)"/>
      <use xlink:href="#DejaVuSans-42" transform="translate(124.5625 0)"/>
      <use xlink:href="#DejaVuSans-48" transform="translate(174.5625 0)"/>
      <use xlink:href="#DejaVuSans-51" transform="translate(236.09375 0)"/>
      <use xlink:href="#DejaVuSans-57" transform="translate(299.46875 0)"/>
      <use xlink:href="#DejaVuSans-44" transform="translate(338.671875 0)"/>
      <use xlink:href="#DejaVuSans-51" transform="translate(399.953125 0)"/>
      <use xlink:href="#DejaVuSans-4a" transform="translate(463.328125 0)"/>
      <use xlink:href="#DejaVuSans-4f" transform="translate(526.8125 0)"/>
      <use xlink:href="#DejaVuSans-48" transform="translate(554.59375 0)"/>
     </g>
    </g>
   </g>
  </g>
 </g>
 <defs>
  <clipPath id="pc44e593cbc">
   <rect x="50.466406" y="48.318125" width="363.096" height="277.2"/>
  </clipPath>
 </defs>
</svg>
