<?xml version="1.0" encoding="utf-8" standalone="no"?>
<!DOCTYPE svg PUBLIC "-//W3C//DTD SVG 1.1//EN"
  "http://www.w3.org/Graphics/SVG/1.1/DTD/svg11.dtd">
<svg xmlns:xlink="http://www.w3.org/1999/xlink" width="724.687812pt" height="372.426984pt" viewBox="0 0 724.687812 372.426984" xmlns="http://www.w3.org/2000/svg" version="1.1">
 <metadata>
  <rdf:RDF xmlns:dc="http://purl.org/dc/elements/1.1/" xmlns:cc="http://creativecommons.org/ns#" xmlns:rdf="http://www.w3.org/1999/02/22-rdf-syntax-ns#">
   <cc:Work>
    <dc:type rdf:resource="http://purl.org/dc/dcmitype/StillImage"/>
    <dc:date>2026-07-14T14:02:01.319608</dc:date>
    <dc:format>image/svg+xml</dc:format>
    <dc:creator>
     <cc:Agent>
      <dc:title>Matplotlib v3.11.0, https://matplotlib.org/</dc:title>
     </cc:Agent>
    </dc:creator>
   </cc:Work>
  </rdf:RDF>
 </metadata>
 <defs>
  <style type="text/css">*{stroke-linejoin: round; stroke-linecap: butt}</style>
 </defs>
 <g id="figure_1">
  <g id="patch_1">
   <path d="M 0 372.426984 
L 724.687812 372.426984 
L 724.687812 0 
L 0 0 
z
" style="fill: #ffffff"/>
  </g>
  <g id="axes_1">
   <g id="patch_2">
    <path d="M 126.007812 334.226203 
L 717.487813 334.226203 
L 717.487813 45.938203 
L 126.007812 45.938203 
z
" style="fill: #ffffff"/>
   </g>
   <g id="patch_3">
    <path d="M 194.443515 334.226203 
L 272.655746 334.226203 
L 272.655746 45.938203 
L 194.443515 45.938203 
z
" clip-path="url(#p787182877b)" style="fill: #efefef; stroke: #efefef; stroke-linejoin: miter"/>
   </g>
   <g id="matplotlib.axis_1">
    <g id="xtick_1">
     <g id="line2d_1">
      <defs>
       <path id="m542513e812" d="M 0 0 
L 0 3.5 
" style="stroke: #444444; stroke-width: 0.8"/>
      </defs>
      <g>
       <use xlink:href="#m542513e812" x="126.007812" y="334.226203" style="fill: #444444; stroke: #444444; stroke-width: 0.8"/>
      </g>
     </g>
     <g id="text_1">
      <!-- 0.00 -->
      <g style="fill: #444444" transform="translate(114.875 348.823859) scale(0.1 -0.1)">
       <defs>
        <path id="DejaVuSans-13" d="M 2034 4250 
Q 1547 4250 1301 3770 
Q 1056 3291 1056 2328 
Q 1056 1369 1301 889 
Q 1547 409 2034 409 
Q 2525 409 2770 889 
Q 3016 1369 3016 2328 
Q 3016 3291 2770 3770 
Q 2525 4250 2034 4250 
z
M 2034 4750 
Q 2819 4750 3233 4129 
Q 3647 3509 3647 2328 
Q 3647 1150 3233 529 
Q 2819 -91 2034 -91 
Q 1250 -91 836 529 
Q 422 1150 422 2328 
Q 422 3509 836 4129 
Q 1250 4750 2034 4750 
z
" transform="scale(0.015625)"/>
        <path id="DejaVuSans-11" d="M 684 794 
L 1344 794 
L 1344 0 
L 684 0 
L 684 794 
z
" transform="scale(0.015625)"/>
       </defs>
       <use xlink:href="#DejaVuSans-13"/>
       <use xlink:href="#DejaVuSans-11" transform="translate(63.625 0)"/>
       <use xlink:href="#DejaVuSans-13" transform="translate(95.40625 0)"/>
       <use xlink:href="#DejaVuSans-13" transform="translate(159.03125 0)"/>
      </g>
     </g>
    </g>
    <g id="xtick_2">
     <g id="line2d_2">
      <g>
       <use xlink:href="#m542513e812" x="223.773102" y="334.226203" style="fill: #444444; stroke: #444444; stroke-width: 0.8"/>
      </g>
     </g>
     <g id="text_2">
      <!-- 0.02 -->
      <g style="fill: #444444" transform="translate(212.640289 348.823859) scale(0.1 -0.1)">
       <defs>
        <path id="DejaVuSans-15" d="M 1228 531 
L 3431 531 
L 3431 0 
L 469 0 
L 469 531 
Q 828 903 1448 1529 
Q 2069 2156 2228 2338 
Q 2531 2678 2651 2914 
Q 2772 3150 2772 3378 
Q 2772 3750 2511 3984 
Q 2250 4219 1831 4219 
Q 1534 4219 1204 4116 
Q 875 4013 500 3803 
L 500 4441 
Q 881 4594 1212 4672 
Q 1544 4750 1819 4750 
Q 2544 4750 2975 4387 
Q 3406 4025 3406 3419 
Q 3406 3131 3298 2873 
Q 3191 2616 2906 2266 
Q 2828 2175 2409 1742 
Q 1991 1309 1228 531 
z
" transform="scale(0.015625)"/>
       </defs>
       <use xlink:href="#DejaVuSans-13"/>
       <use xlink:href="#DejaVuSans-11" transform="translate(63.625 0)"/>
       <use xlink:href="#DejaVuSans-13" transform="translate(95.40625 0)"/>
       <use xlink:href="#DejaVuSans-15" transform="translate(159.03125 0)"/>
      </g>
     </g>
    </g>
    <g id="xtick_3">
     <g id="line2d_3">
      <g>
       <use xlink:href="#m542513e812" x="321.538391" y="334.226203" style="fill: #444444; stroke: #444444; stroke-width: 0.8"/>
      </g>
     </g>
     <g id="text_3">
      <!-- 0.04 -->
      <g style="fill: #444444" transform="translate(310.405579 348.823859) scale(0.1 -0.1)">
       <defs>
        <path id="DejaVuSans-17" d="M 2419 4116 
L 825 1625 
L 2419 1625 
L 2419 4116 
z
M 2253 4666 
L 3047 4666 
L 3047 1625 
L 3713 1625 
L 3713 1100 
L 3047 1100 
L 3047 0 
L 2419 0 
L 2419 1100 
L 313 1100 
L 313 1709 
L 2253 4666 
z
" transform="scale(0.015625)"/>
       </defs>
       <use xlink:href="#DejaVuSans-13"/>
       <use xlink:href="#DejaVuSans-11" transform="translate(63.625 0)"/>
       <use xlink:href="#DejaVuSans-13" transform="translate(95.40625 0)"/>
       <use xlink:href="#DejaVuSans-17" transform="translate(159.03125 0)"/>
      </g>
     </g>
    </g>
    <g id="xtick_4">
     <g id="line2d_4">
      <g>
       <use xlink:href="#m542513e812" x="419.30368" y="334.226203" style="fill: #444444; stroke: #444444; stroke-width: 0.8"/>
      </g>
     </g>
     <g id="text_4">
      <!-- 0.06 -->
      <g style="fill: #444444" transform="translate(408.170868 348.823859) scale(0.1 -0.1)">
       <defs>
        <path id="DejaVuSans-19" d="M 2113 2584 
Q 1688 2584 1439 2293 
Q 1191 2003 1191 1497 
Q 1191 994 1439 701 
Q 1688 409 2113 409 
Q 2538 409 2786 701 
Q 3034 994 3034 1497 
Q 3034 2003 2786 2293 
Q 2538 2584 2113 2584 
z
M 3366 4563 
L 3366 3988 
Q 3128 4100 2886 4159 
Q 2644 4219 2406 4219 
Q 1781 4219 1451 3797 
Q 1122 3375 1075 2522 
Q 1259 2794 1537 2939 
Q 1816 3084 2150 3084 
Q 2853 3084 3261 2657 
Q 3669 2231 3669 1497 
Q 3669 778 3244 343 
Q 2819 -91 2113 -91 
Q 1303 -91 875 529 
Q 447 1150 447 2328 
Q 447 3434 972 4092 
Q 1497 4750 2381 4750 
Q 2619 4750 2861 4703 
Q 3103 4656 3366 4563 
z
" transform="scale(0.015625)"/>
       </defs>
       <use xlink:href="#DejaVuSans-13"/>
       <use xlink:href="#DejaVuSans-11" transform="translate(63.625 0)"/>
       <use xlink:href="#DejaVuSans-13" transform="translate(95.40625 0)"/>
       <use xlink:href="#DejaVuSans-19" transform="translate(159.03125 0)"/>
      </g>
     </g>
    </g>
    <g id="xtick_5">
     <g id="line2d_5">
      <g>
       <use xlink:href="#m542513e812" x="517.06897" y="334.226203" style="fill: #444444; stroke: #444444; stroke-width: 0.8"/>
      </g>
     </g>
     <g id="text_5">
      <!-- 0.08 -->
      <g style="fill: #444444" transform="translate(505.936157 348.823859) scale(0.1 -0.1)">
       <defs>
        <path id="DejaVuSans-1b" d="M 2034 2216 
Q 1584 2216 1326 1975 
Q 1069 1734 1069 1313 
Q 1069 891 1326 650 
Q 1584 409 2034 409 
Q 2484 409 2743 651 
Q 3003 894 3003 1313 
Q 3003 1734 2745 1975 
Q 2488 2216 2034 2216 
z
M 1403 2484 
Q 997 2584 770 2862 
Q 544 3141 544 3541 
Q 544 4100 942 4425 
Q 1341 4750 2034 4750 
Q 2731 4750 3128 4425 
Q 3525 4100 3525 3541 
Q 3525 3141 3298 2862 
Q 3072 2584 2669 2484 
Q 3125 2378 3379 2068 
Q 3634 1759 3634 1313 
Q 3634 634 3220 271 
Q 2806 -91 2034 -91 
Q 1263 -91 848 271 
Q 434 634 434 1313 
Q 434 1759 690 2068 
Q 947 2378 1403 2484 
z
M 1172 3481 
Q 1172 3119 1398 2916 
Q 1625 2713 2034 2713 
Q 2441 2713 2670 2916 
Q 2900 3119 2900 3481 
Q 2900 3844 2670 4047 
Q 2441 4250 2034 4250 
Q 1625 4250 1398 4047 
Q 1172 3844 1172 3481 
z
" transform="scale(0.015625)"/>
       </defs>
       <use xlink:href="#DejaVuSans-13"/>
       <use xlink:href="#DejaVuSans-11" transform="translate(63.625 0)"/>
       <use xlink:href="#DejaVuSans-13" transform="translate(95.40625 0)"/>
       <use xlink:href="#DejaVuSans-1b" transform="translate(159.03125 0)"/>
      </g>
     </g>
    </g>
    <g id="xtick_6">
     <g id="line2d_6">
      <g>
       <use xlink:href="#m542513e812" x="614.834259" y="334.226203" style="fill: #444444; stroke: #444444; stroke-width: 0.8"/>
      </g>
     </g>
     <g id="text_6">
      <!-- 0.10 -->
      <g style="fill: #444444" transform="translate(603.701446 348.823859) scale(0.1 -0.1)">
       <defs>
        <path id="DejaVuSans-14" d="M 794 531 
L 1825 531 
L 1825 4091 
L 703 3866 
L 703 4441 
L 1819 4666 
L 2450 4666 
L 2450 531 
L 3481 531 
L 3481 0 
L 794 0 
L 794 531 
z
" transform="scale(0.015625)"/>
       </defs>
       <use xlink:href="#DejaVuSans-13"/>
       <use xlink:href="#DejaVuSans-11" transform="translate(63.625 0)"/>
       <use xlink:href="#DejaVuSans-14" transform="translate(95.40625 0)"/>
       <use xlink:href="#DejaVuSans-13" transform="translate(159.03125 0)"/>
      </g>
     </g>
    </g>
    <g id="text_7">
     <!-- conditional dependency error over all 120 pairs   (lower = better) -->
     <g style="fill: #222222" transform="translate(257.905625 362.824641) scale(0.1 -0.1)">
      <defs>
       <path id="DejaVuSans-46" d="M 3122 3366 
L 3122 2828 
Q 2878 2963 2633 3030 
Q 2388 3097 2138 3097 
Q 1578 3097 1268 2742 
Q 959 2388 959 1747 
Q 959 1106 1268 751 
Q 1578 397 2138 397 
Q 2388 397 2633 464 
Q 2878 531 3122 666 
L 3122 134 
Q 2881 22 2623 -34 
Q 2366 -91 2075 -91 
Q 1284 -91 818 406 
Q 353 903 353 1747 
Q 353 2603 823 3093 
Q 1294 3584 2113 3584 
Q 2378 3584 2631 3529 
Q 2884 3475 3122 3366 
z
" transform="scale(0.015625)"/>
       <path id="DejaVuSans-52" d="M 1959 3097 
Q 1497 3097 1228 2736 
Q 959 2375 959 1747 
Q 959 1119 1226 758 
Q 1494 397 1959 397 
Q 2419 397 2687 759 
Q 2956 1122 2956 1747 
Q 2956 2369 2687 2733 
Q 2419 3097 1959 3097 
z
M 1959 3584 
Q 2709 3584 3137 3096 
Q 3566 2609 3566 1747 
Q 3566 888 3137 398 
Q 2709 -91 1959 -91 
Q 1206 -91 779 398 
Q 353 888 353 1747 
Q 353 2609 779 3096 
Q 1206 3584 1959 3584 
z
" transform="scale(0.015625)"/>
       <path id="DejaVuSans-51" d="M 3513 2113 
L 3513 0 
L 2938 0 
L 2938 2094 
Q 2938 2591 2744 2837 
Q 2550 3084 2163 3084 
Q 1697 3084 1428 2787 
Q 1159 2491 1159 1978 
L 1159 0 
L 581 0 
L 581 3500 
L 1159 3500 
L 1159 2956 
Q 1366 3272 1645 3428 
Q 1925 3584 2291 3584 
Q 2894 3584 3203 3211 
Q 3513 2838 3513 2113 
z
" transform="scale(0.015625)"/>
       <path id="DejaVuSans-47" d="M 2906 2969 
L 2906 4863 
L 3481 4863 
L 3481 0 
L 2906 0 
L 2906 525 
Q 2725 213 2448 61 
Q 2172 -91 1784 -91 
Q 1150 -91 751 415 
Q 353 922 353 1747 
Q 353 2572 751 3078 
Q 1150 3584 1784 3584 
Q 2172 3584 2448 3432 
Q 2725 3281 2906 2969 
z
M 947 1747 
Q 947 1113 1208 752 
Q 1469 391 1925 391 
Q 2381 391 2643 752 
Q 2906 1113 2906 1747 
Q 2906 2381 2643 2742 
Q 2381 3103 1925 3103 
Q 1469 3103 1208 2742 
Q 947 2381 947 1747 
z
" transform="scale(0.015625)"/>
       <path id="DejaVuSans-4c" d="M 603 3500 
L 1178 3500 
L 1178 0 
L 603 0 
L 603 3500 
z
M 603 4863 
L 1178 4863 
L 1178 4134 
L 603 4134 
L 603 4863 
z
" transform="scale(0.015625)"/>
       <path id="DejaVuSans-57" d="M 1172 4494 
L 1172 3500 
L 2356 3500 
L 2356 3053 
L 1172 3053 
L 1172 1153 
Q 1172 725 1289 603 
Q 1406 481 1766 481 
L 2356 481 
L 2356 0 
L 1766 0 
Q 1100 0 847 248 
Q 594 497 594 1153 
L 594 3053 
L 172 3053 
L 172 3500 
L 594 3500 
L 594 4494 
L 1172 4494 
z
" transform="scale(0.015625)"/>
       <path id="DejaVuSans-44" d="M 2194 1759 
Q 1497 1759 1228 1600 
Q 959 1441 959 1056 
Q 959 750 1161 570 
Q 1363 391 1709 391 
Q 2188 391 2477 730 
Q 2766 1069 2766 1631 
L 2766 1759 
L 2194 1759 
z
M 3341 1997 
L 3341 0 
L 2766 0 
L 2766 531 
Q 2569 213 2275 61 
Q 1981 -91 1556 -91 
Q 1019 -91 701 211 
Q 384 513 384 1019 
Q 384 1609 779 1909 
Q 1175 2209 1959 2209 
L 2766 2209 
L 2766 2266 
Q 2766 2663 2505 2880 
Q 2244 3097 1772 3097 
Q 1472 3097 1187 3025 
Q 903 2953 641 2809 
L 641 3341 
Q 956 3463 1253 3523 
Q 1550 3584 1831 3584 
Q 2591 3584 2966 3190 
Q 3341 2797 3341 1997 
z
" transform="scale(0.015625)"/>
       <path id="DejaVuSans-4f" d="M 603 4863 
L 1178 4863 
L 1178 0 
L 603 0 
L 603 4863 
z
" transform="scale(0.015625)"/>
       <path id="DejaVuSans-3" transform="scale(0.015625)"/>
       <path id="DejaVuSans-48" d="M 3597 1894 
L 3597 1613 
L 953 1613 
Q 991 1019 1311 708 
Q 1631 397 2203 397 
Q 2534 397 2845 478 
Q 3156 559 3463 722 
L 3463 178 
Q 3153 47 2828 -22 
Q 2503 -91 2169 -91 
Q 1331 -91 842 396 
Q 353 884 353 1716 
Q 353 2575 817 3079 
Q 1281 3584 2069 3584 
Q 2775 3584 3186 3129 
Q 3597 2675 3597 1894 
z
M 3022 2063 
Q 3016 2534 2758 2815 
Q 2500 3097 2075 3097 
Q 1594 3097 1305 2825 
Q 1016 2553 972 2059 
L 3022 2063 
z
" transform="scale(0.015625)"/>
       <path id="DejaVuSans-53" d="M 1159 525 
L 1159 -1331 
L 581 -1331 
L 581 3500 
L 1159 3500 
L 1159 2969 
Q 1341 3281 1617 3432 
Q 1894 3584 2278 3584 
Q 2916 3584 3314 3078 
Q 3713 2572 3713 1747 
Q 3713 922 3314 415 
Q 2916 -91 2278 -91 
Q 1894 -91 1617 61 
Q 1341 213 1159 525 
z
M 3116 1747 
Q 3116 2381 2855 2742 
Q 2594 3103 2138 3103 
Q 1681 3103 1420 2742 
Q 1159 2381 1159 1747 
Q 1159 1113 1420 752 
Q 1681 391 2138 391 
Q 2594 391 2855 752 
Q 3116 1113 3116 1747 
z
" transform="scale(0.015625)"/>
       <path id="DejaVuSans-5c" d="M 2059 -325 
Q 1816 -950 1584 -1140 
Q 1353 -1331 966 -1331 
L 506 -1331 
L 506 -850 
L 844 -850 
Q 1081 -850 1212 -737 
Q 1344 -625 1503 -206 
L 1606 56 
L 191 3500 
L 800 3500 
L 1894 763 
L 2988 3500 
L 3597 3500 
L 2059 -325 
z
" transform="scale(0.015625)"/>
       <path id="DejaVuSans-55" d="M 2631 2963 
Q 2534 3019 2420 3045 
Q 2306 3072 2169 3072 
Q 1681 3072 1420 2755 
Q 1159 2438 1159 1844 
L 1159 0 
L 581 0 
L 581 3500 
L 1159 3500 
L 1159 2956 
Q 1341 3275 1631 3429 
Q 1922 3584 2338 3584 
Q 2397 3584 2469 3576 
Q 2541 3569 2628 3553 
L 2631 2963 
z
" transform="scale(0.015625)"/>
       <path id="DejaVuSans-59" d="M 191 3500 
L 800 3500 
L 1894 563 
L 2988 3500 
L 3597 3500 
L 2284 0 
L 1503 0 
L 191 3500 
z
" transform="scale(0.015625)"/>
       <path id="DejaVuSans-56" d="M 2834 3397 
L 2834 2853 
Q 2591 2978 2328 3040 
Q 2066 3103 1784 3103 
Q 1356 3103 1142 2972 
Q 928 2841 928 2578 
Q 928 2378 1081 2264 
Q 1234 2150 1697 2047 
L 1894 2003 
Q 2506 1872 2764 1633 
Q 3022 1394 3022 966 
Q 3022 478 2636 193 
Q 2250 -91 1575 -91 
Q 1294 -91 989 -36 
Q 684 19 347 128 
L 347 722 
Q 666 556 975 473 
Q 1284 391 1588 391 
Q 1994 391 2212 530 
Q 2431 669 2431 922 
Q 2431 1156 2273 1281 
Q 2116 1406 1581 1522 
L 1381 1569 
Q 847 1681 609 1914 
Q 372 2147 372 2553 
Q 372 3047 722 3315 
Q 1072 3584 1716 3584 
Q 2034 3584 2315 3537 
Q 2597 3491 2834 3397 
z
" transform="scale(0.015625)"/>
       <path id="DejaVuSans-b" d="M 1984 4856 
Q 1566 4138 1362 3434 
Q 1159 2731 1159 2009 
Q 1159 1288 1364 580 
Q 1569 -128 1984 -844 
L 1484 -844 
Q 1016 -109 783 600 
Q 550 1309 550 2009 
Q 550 2706 781 3412 
Q 1013 4119 1484 4856 
L 1984 4856 
z
" transform="scale(0.015625)"/>
       <path id="DejaVuSans-5a" d="M 269 3500 
L 844 3500 
L 1563 769 
L 2278 3500 
L 2956 3500 
L 3675 769 
L 4391 3500 
L 4966 3500 
L 4050 0 
L 3372 0 
L 2619 2869 
L 1863 0 
L 1184 0 
L 269 3500 
z
" transform="scale(0.015625)"/>
       <path id="DejaVuSans-20" d="M 678 2906 
L 4684 2906 
L 4684 2381 
L 678 2381 
L 678 2906 
z
M 678 1631 
L 4684 1631 
L 4684 1100 
L 678 1100 
L 678 1631 
z
" transform="scale(0.015625)"/>
       <path id="DejaVuSans-45" d="M 3116 1747 
Q 3116 2381 2855 2742 
Q 2594 3103 2138 3103 
Q 1681 3103 1420 2742 
Q 1159 2381 1159 1747 
Q 1159 1113 1420 752 
Q 1681 391 2138 391 
Q 2594 391 2855 752 
Q 3116 1113 3116 1747 
z
M 1159 2969 
Q 1341 3281 1617 3432 
Q 1894 3584 2278 3584 
Q 2916 3584 3314 3078 
Q 3713 2572 3713 1747 
Q 3713 922 3314 415 
Q 2916 -91 2278 -91 
Q 1894 -91 1617 61 
Q 1341 213 1159 525 
L 1159 0 
L 581 0 
L 581 4863 
L 1159 4863 
L 1159 2969 
z
" transform="scale(0.015625)"/>
       <path id="DejaVuSans-c" d="M 513 4856 
L 1013 4856 
Q 1481 4119 1714 3412 
Q 1947 2706 1947 2009 
Q 1947 1309 1714 600 
Q 1481 -109 1013 -844 
L 513 -844 
Q 928 -128 1133 580 
Q 1338 1288 1338 2009 
Q 1338 2731 1133 3434 
Q 928 4138 513 4856 
z
" transform="scale(0.015625)"/>
      </defs>
      <use xlink:href="#DejaVuSans-46"/>
      <use xlink:href="#DejaVuSans-52" transform="translate(54.984375 0)"/>
      <use xlink:href="#DejaVuSans-51" transform="translate(116.171875 0)"/>
      <use xlink:href="#DejaVuSans-47" transform="translate(179.546875 0)"/>
      <use xlink:href="#DejaVuSans-4c" transform="translate(243.03125 0)"/>
      <use xlink:href="#DejaVuSans-57" transform="translate(270.8125 0)"/>
      <use xlink:href="#DejaVuSans-4c" transform="translate(310.015625 0)"/>
      <use xlink:href="#DejaVuSans-52" transform="translate(337.796875 0)"/>
      <use xlink:href="#DejaVuSans-51" transform="translate(398.984375 0)"/>
      <use xlink:href="#DejaVuSans-44" transform="translate(462.359375 0)"/>
      <use xlink:href="#DejaVuSans-4f" transform="translate(523.640625 0)"/>
      <use xlink:href="#DejaVuSans-3" transform="translate(551.421875 0)"/>
      <use xlink:href="#DejaVuSans-47" transform="translate(583.203125 0)"/>
      <use xlink:href="#DejaVuSans-48" transform="translate(646.6875 0)"/>
      <use xlink:href="#DejaVuSans-53" transform="translate(708.21875 0)"/>
      <use xlink:href="#DejaVuSans-48" transform="translate(771.703125 0)"/>
      <use xlink:href="#DejaVuSans-51" transform="translate(833.234375 0)"/>
      <use xlink:href="#DejaVuSans-47" transform="translate(896.609375 0)"/>
      <use xlink:href="#DejaVuSans-48" transform="translate(960.09375 0)"/>
      <use xlink:href="#DejaVuSans-51" transform="translate(1021.625 0)"/>
      <use xlink:href="#DejaVuSans-46" transform="translate(1085 0)"/>
      <use xlink:href="#DejaVuSans-5c" transform="translate(1139.984375 0)"/>
      <use xlink:href="#DejaVuSans-3" transform="translate(1199.171875 0)"/>
      <use xlink:href="#DejaVuSans-48" transform="translate(1230.953125 0)"/>
      <use xlink:href="#DejaVuSans-55" transform="translate(1292.484375 0)"/>
      <use xlink:href="#DejaVuSans-55" transform="translate(1331.84375 0)"/>
      <use xlink:href="#DejaVuSans-52" transform="translate(1370.75 0)"/>
      <use xlink:href="#DejaVuSans-55" transform="translate(1431.9375 0)"/>
      <use xlink:href="#DejaVuSans-3" transform="translate(1473.046875 0)"/>
      <use xlink:href="#DejaVuSans-52" transform="translate(1504.828125 0)"/>
      <use xlink:href="#DejaVuSans-59" transform="translate(1566.015625 0)"/>
      <use xlink:href="#DejaVuSans-48" transform="translate(1625.203125 0)"/>
      <use xlink:href="#DejaVuSans-55" transform="translate(1686.734375 0)"/>
      <use xlink:href="#DejaVuSans-3" transform="translate(1727.84375 0)"/>
      <use xlink:href="#DejaVuSans-44" transform="translate(1759.625 0)"/>
      <use xlink:href="#DejaVuSans-4f" transform="translate(1820.90625 0)"/>
      <use xlink:href="#DejaVuSans-4f" transform="translate(1848.6875 0)"/>
      <use xlink:href="#DejaVuSans-3" transform="translate(1876.46875 0)"/>
      <use xlink:href="#DejaVuSans-14" transform="translate(1908.25 0)"/>
      <use xlink:href="#DejaVuSans-15" transform="translate(1971.875 0)"/>
      <use xlink:href="#DejaVuSans-13" transform="translate(2035.5 0)"/>
      <use xlink:href="#DejaVuSans-3" transform="translate(2099.125 0)"/>
      <use xlink:href="#DejaVuSans-53" transform="translate(2130.90625 0)"/>
      <use xlink:href="#DejaVuSans-44" transform="translate(2194.390625 0)"/>
      <use xlink:href="#DejaVuSans-4c" transform="translate(2255.671875 0)"/>
      <use xlink:href="#DejaVuSans-55" transform="translate(2283.453125 0)"/>
      <use xlink:href="#DejaVuSans-56" transform="translate(2324.5625 0)"/>
      <use xlink:href="#DejaVuSans-3" transform="translate(2376.65625 0)"/>
      <use xlink:href="#DejaVuSans-3" transform="translate(2408.4375 0)"/>
      <use xlink:href="#DejaVuSans-3" transform="translate(2440.21875 0)"/>
      <use xlink:href="#DejaVuSans-b" transform="translate(2472 0)"/>
      <use xlink:href="#DejaVuSans-4f" transform="translate(2511.015625 0)"/>
      <use xlink:href="#DejaVuSans-52" transform="translate(2538.796875 0)"/>
      <use xlink:href="#DejaVuSans-5a" transform="translate(2599.984375 0)"/>
      <use xlink:href="#DejaVuSans-48" transform="translate(2681.765625 0)"/>
      <use xlink:href="#DejaVuSans-55" transform="translate(2743.296875 0)"/>
      <use xlink:href="#DejaVuSans-3" transform="translate(2784.40625 0)"/>
      <use xlink:href="#DejaVuSans-20" transform="translate(2816.1875 0)"/>
      <use xlink:href="#DejaVuSans-3" transform="translate(2899.984375 0)"/>
      <use xlink:href="#DejaVuSans-45" transform="translate(2931.765625 0)"/>
      <use xlink:href="#DejaVuSans-48" transform="translate(2995.25 0)"/>
      <use xlink:href="#DejaVuSans-57" transform="translate(3056.78125 0)"/>
      <use xlink:href="#DejaVuSans-57" transform="translate(3095.984375 0)"/>
      <use xlink:href="#DejaVuSans-48" transform="translate(3135.1875 0)"/>
      <use xlink:href="#DejaVuSans-55" transform="translate(3196.71875 0)"/>
      <use xlink:href="#DejaVuSans-c" transform="translate(3237.828125 0)"/>
     </g>
    </g>
   </g>
   <g id="matplotlib.axis_2">
    <g id="ytick_1">
     <g id="line2d_7">
      <defs>
       <path id="mc30877b2f9" d="M 0 0 
L -3.5 0 
" style="stroke: #444444; stroke-width: 0.8"/>
      </defs>
      <g>
       <use xlink:href="#mc30877b2f9" x="126.007812" y="81.974203" style="fill: #444444; stroke: #444444; stroke-width: 0.8"/>
      </g>
     </g>
     <g id="text_8">
      <!-- CDG  (aligned) -->
      <g style="fill: #444444" transform="translate(45.545312 85.773422) scale(0.1 -0.1)">
       <defs>
        <path id="DejaVuSans-26" d="M 4122 4306 
L 4122 3641 
Q 3803 3938 3442 4084 
Q 3081 4231 2675 4231 
Q 1875 4231 1450 3742 
Q 1025 3253 1025 2328 
Q 1025 1406 1450 917 
Q 1875 428 2675 428 
Q 3081 428 3442 575 
Q 3803 722 4122 1019 
L 4122 359 
Q 3791 134 3420 21 
Q 3050 -91 2638 -91 
Q 1578 -91 968 557 
Q 359 1206 359 2328 
Q 359 3453 968 4101 
Q 1578 4750 2638 4750 
Q 3056 4750 3426 4639 
Q 3797 4528 4122 4306 
z
" transform="scale(0.015625)"/>
        <path id="DejaVuSans-27" d="M 1259 4147 
L 1259 519 
L 2022 519 
Q 2988 519 3436 956 
Q 3884 1394 3884 2338 
Q 3884 3275 3436 3711 
Q 2988 4147 2022 4147 
L 1259 4147 
z
M 628 4666 
L 1925 4666 
Q 3281 4666 3915 4102 
Q 4550 3538 4550 2338 
Q 4550 1131 3912 565 
Q 3275 0 1925 0 
L 628 0 
L 628 4666 
z
" transform="scale(0.015625)"/>
        <path id="DejaVuSans-2a" d="M 3809 666 
L 3809 1919 
L 2778 1919 
L 2778 2438 
L 4434 2438 
L 4434 434 
Q 4069 175 3628 42 
Q 3188 -91 2688 -91 
Q 1594 -91 976 548 
Q 359 1188 359 2328 
Q 359 3472 976 4111 
Q 1594 4750 2688 4750 
Q 3144 4750 3555 4637 
Q 3966 4525 4313 4306 
L 4313 3634 
Q 3963 3931 3569 4081 
Q 3175 4231 2741 4231 
Q 1884 4231 1454 3753 
Q 1025 3275 1025 2328 
Q 1025 1384 1454 906 
Q 1884 428 2741 428 
Q 3075 428 3337 486 
Q 3600 544 3809 666 
z
" transform="scale(0.015625)"/>
        <path id="DejaVuSans-4a" d="M 2906 1791 
Q 2906 2416 2648 2759 
Q 2391 3103 1925 3103 
Q 1463 3103 1205 2759 
Q 947 2416 947 1791 
Q 947 1169 1205 825 
Q 1463 481 1925 481 
Q 2391 481 2648 825 
Q 2906 1169 2906 1791 
z
M 3481 434 
Q 3481 -459 3084 -895 
Q 2688 -1331 1869 -1331 
Q 1566 -1331 1297 -1286 
Q 1028 -1241 775 -1147 
L 775 -588 
Q 1028 -725 1275 -790 
Q 1522 -856 1778 -856 
Q 2344 -856 2625 -561 
Q 2906 -266 2906 331 
L 2906 616 
Q 2728 306 2450 153 
Q 2172 0 1784 0 
Q 1141 0 747 490 
Q 353 981 353 1791 
Q 353 2603 747 3093 
Q 1141 3584 1784 3584 
Q 2172 3584 2450 3431 
Q 2728 3278 2906 2969 
L 2906 3500 
L 3481 3500 
L 3481 434 
z
" transform="scale(0.015625)"/>
       </defs>
       <use xlink:href="#DejaVuSans-26"/>
       <use xlink:href="#DejaVuSans-27" transform="translate(69.828125 0)"/>
       <use xlink:href="#DejaVuSans-2a" transform="translate(146.828125 0)"/>
       <use xlink:href="#DejaVuSans-3" transform="translate(224.3125 0)"/>
       <use xlink:href="#DejaVuSans-3" transform="translate(256.09375 0)"/>
       <use xlink:href="#DejaVuSans-b" transform="translate(287.875 0)"/>
       <use xlink:href="#DejaVuSans-44" transform="translate(326.890625 0)"/>
       <use xlink:href="#DejaVuSans-4f" transform="translate(388.171875 0)"/>
       <use xlink:href="#DejaVuSans-4c" transform="translate(415.953125 0)"/>
       <use xlink:href="#DejaVuSans-4a" transform="translate(443.734375 0)"/>
       <use xlink:href="#DejaVuSans-51" transform="translate(507.21875 0)"/>
       <use xlink:href="#DejaVuSans-48" transform="translate(570.59375 0)"/>
       <use xlink:href="#DejaVuSans-47" transform="translate(632.125 0)"/>
       <use xlink:href="#DejaVuSans-c" transform="translate(695.609375 0)"/>
      </g>
     </g>
    </g>
    <g id="ytick_2">
     <g id="line2d_8">
      <g>
       <use xlink:href="#mc30877b2f9" x="126.007812" y="106.826617" style="fill: #444444; stroke: #444444; stroke-width: 0.8"/>
      </g>
     </g>
     <g id="text_9">
      <!-- ring-with-chords -->
      <g style="fill: #444444" transform="translate(37.554688 110.625836) scale(0.1 -0.1)">
       <defs>
        <path id="DejaVuSans-10" d="M 313 2009 
L 1997 2009 
L 1997 1497 
L 313 1497 
L 313 2009 
z
" transform="scale(0.015625)"/>
        <path id="DejaVuSans-4b" d="M 3513 2113 
L 3513 0 
L 2938 0 
L 2938 2094 
Q 2938 2591 2744 2837 
Q 2550 3084 2163 3084 
Q 1697 3084 1428 2787 
Q 1159 2491 1159 1978 
L 1159 0 
L 581 0 
L 581 4863 
L 1159 4863 
L 1159 2956 
Q 1366 3272 1645 3428 
Q 1925 3584 2291 3584 
Q 2894 3584 3203 3211 
Q 3513 2838 3513 2113 
z
" transform="scale(0.015625)"/>
       </defs>
       <use xlink:href="#DejaVuSans-55"/>
       <use xlink:href="#DejaVuSans-4c" transform="translate(41.109375 0)"/>
       <use xlink:href="#DejaVuSans-51" transform="translate(68.890625 0)"/>
       <use xlink:href="#DejaVuSans-4a" transform="translate(132.265625 0)"/>
       <use xlink:href="#DejaVuSans-10" transform="translate(195.75 0)"/>
       <use xlink:href="#DejaVuSans-5a" transform="translate(231.828125 0)"/>
       <use xlink:href="#DejaVuSans-4c" transform="translate(313.609375 0)"/>
       <use xlink:href="#DejaVuSans-57" transform="translate(341.390625 0)"/>
       <use xlink:href="#DejaVuSans-4b" transform="translate(380.59375 0)"/>
       <use xlink:href="#DejaVuSans-10" transform="translate(443.96875 0)"/>
       <use xlink:href="#DejaVuSans-46" transform="translate(480.046875 0)"/>
       <use xlink:href="#DejaVuSans-4b" transform="translate(535.03125 0)"/>
       <use xlink:href="#DejaVuSans-52" transform="translate(598.40625 0)"/>
       <use xlink:href="#DejaVuSans-55" transform="translate(659.59375 0)"/>
       <use xlink:href="#DejaVuSans-47" transform="translate(698.953125 0)"/>
       <use xlink:href="#DejaVuSans-56" transform="translate(762.4375 0)"/>
      </g>
     </g>
    </g>
    <g id="ytick_3">
     <g id="line2d_9">
      <g>
       <use xlink:href="#mc30877b2f9" x="126.007812" y="131.679031" style="fill: #444444; stroke: #444444; stroke-width: 0.8"/>
      </g>
     </g>
     <g id="text_10">
      <!-- permuted 0 -->
      <g style="fill: #444444" transform="translate(60.529687 135.478249) scale(0.1 -0.1)">
       <defs>
        <path id="DejaVuSans-50" d="M 3328 2828 
Q 3544 3216 3844 3400 
Q 4144 3584 4550 3584 
Q 5097 3584 5394 3201 
Q 5691 2819 5691 2113 
L 5691 0 
L 5113 0 
L 5113 2094 
Q 5113 2597 4934 2840 
Q 4756 3084 4391 3084 
Q 3944 3084 3684 2787 
Q 3425 2491 3425 1978 
L 3425 0 
L 2847 0 
L 2847 2094 
Q 2847 2600 2669 2842 
Q 2491 3084 2119 3084 
Q 1678 3084 1418 2786 
Q 1159 2488 1159 1978 
L 1159 0 
L 581 0 
L 581 3500 
L 1159 3500 
L 1159 2956 
Q 1356 3278 1631 3431 
Q 1906 3584 2284 3584 
Q 2666 3584 2933 3390 
Q 3200 3197 3328 2828 
z
" transform="scale(0.015625)"/>
        <path id="DejaVuSans-58" d="M 544 1381 
L 544 3500 
L 1119 3500 
L 1119 1403 
Q 1119 906 1312 657 
Q 1506 409 1894 409 
Q 2359 409 2629 706 
Q 2900 1003 2900 1516 
L 2900 3500 
L 3475 3500 
L 3475 0 
L 2900 0 
L 2900 538 
Q 2691 219 2414 64 
Q 2138 -91 1772 -91 
Q 1169 -91 856 284 
Q 544 659 544 1381 
z
M 1991 3584 
L 1991 3584 
z
" transform="scale(0.015625)"/>
       </defs>
       <use xlink:href="#DejaVuSans-53"/>
       <use xlink:href="#DejaVuSans-48" transform="translate(63.484375 0)"/>
       <use xlink:href="#DejaVuSans-55" transform="translate(125.015625 0)"/>
       <use xlink:href="#DejaVuSans-50" transform="translate(164.375 0)"/>
       <use xlink:href="#DejaVuSans-58" transform="translate(261.78125 0)"/>
       <use xlink:href="#DejaVuSans-57" transform="translate(325.15625 0)"/>
       <use xlink:href="#DejaVuSans-48" transform="translate(364.359375 0)"/>
       <use xlink:href="#DejaVuSans-47" transform="translate(425.890625 0)"/>
       <use xlink:href="#DejaVuSans-3" transform="translate(489.375 0)"/>
       <use xlink:href="#DejaVuSans-13" transform="translate(521.15625 0)"/>
      </g>
     </g>
    </g>
    <g id="ytick_4">
     <g id="line2d_10">
      <g>
       <use xlink:href="#mc30877b2f9" x="126.007812" y="156.531445" style="fill: #444444; stroke: #444444; stroke-width: 0.8"/>
      </g>
     </g>
     <g id="text_11">
      <!-- distmatched 2 -->
      <g style="fill: #444444" transform="translate(47.084375 160.330663) scale(0.1 -0.1)">
       <use xlink:href="#DejaVuSans-47"/>
       <use xlink:href="#DejaVuSans-4c" transform="translate(63.484375 0)"/>
       <use xlink:href="#DejaVuSans-56" transform="translate(91.265625 0)"/>
       <use xlink:href="#DejaVuSans-57" transform="translate(143.359375 0)"/>
       <use xlink:href="#DejaVuSans-50" transform="translate(182.5625 0)"/>
       <use xlink:href="#DejaVuSans-44" transform="translate(279.96875 0)"/>
       <use xlink:href="#DejaVuSans-57" transform="translate(341.25 0)"/>
       <use xlink:href="#DejaVuSans-46" transform="translate(380.453125 0)"/>
       <use xlink:href="#DejaVuSans-4b" transform="translate(435.4375 0)"/>
       <use xlink:href="#DejaVuSans-48" transform="translate(498.8125 0)"/>
       <use xlink:href="#DejaVuSans-47" transform="translate(560.34375 0)"/>
       <use xlink:href="#DejaVuSans-3" transform="translate(623.828125 0)"/>
       <use xlink:href="#DejaVuSans-15" transform="translate(655.609375 0)"/>
      </g>
     </g>
    </g>
    <g id="ytick_5">
     <g id="line2d_11">
      <g>
       <use xlink:href="#mc30877b2f9" x="126.007812" y="181.383858" style="fill: #444444; stroke: #444444; stroke-width: 0.8"/>
      </g>
     </g>
     <g id="text_12">
      <!-- permuted 1 -->
      <g style="fill: #444444" transform="translate(60.529687 185.183077) scale(0.1 -0.1)">
       <use xlink:href="#DejaVuSans-53"/>
       <use xlink:href="#DejaVuSans-48" transform="translate(63.484375 0)"/>
       <use xlink:href="#DejaVuSans-55" transform="translate(125.015625 0)"/>
       <use xlink:href="#DejaVuSans-50" transform="translate(164.375 0)"/>
       <use xlink:href="#DejaVuSans-58" transform="translate(261.78125 0)"/>
       <use xlink:href="#DejaVuSans-57" transform="translate(325.15625 0)"/>
       <use xlink:href="#DejaVuSans-48" transform="translate(364.359375 0)"/>
       <use xlink:href="#DejaVuSans-47" transform="translate(425.890625 0)"/>
       <use xlink:href="#DejaVuSans-3" transform="translate(489.375 0)"/>
       <use xlink:href="#DejaVuSans-14" transform="translate(521.15625 0)"/>
      </g>
     </g>
    </g>
    <g id="ytick_6">
     <g id="line2d_12">
      <g>
       <use xlink:href="#mc30877b2f9" x="126.007812" y="206.236272" style="fill: #444444; stroke: #444444; stroke-width: 0.8"/>
      </g>
     </g>
     <g id="text_13">
      <!-- rewired (degree-pres.) -->
      <g style="fill: #444444" transform="translate(7.2 210.035491) scale(0.1 -0.1)">
       <use xlink:href="#DejaVuSans-55"/>
       <use xlink:href="#DejaVuSans-48" transform="translate(38.90625 0)"/>
       <use xlink:href="#DejaVuSans-5a" transform="translate(100.4375 0)"/>
       <use xlink:href="#DejaVuSans-4c" transform="translate(182.21875 0)"/>
       <use xlink:href="#DejaVuSans-55" transform="translate(210 0)"/>
       <use xlink:href="#DejaVuSans-48" transform="translate(248.90625 0)"/>
       <use xlink:href="#DejaVuSans-47" transform="translate(310.4375 0)"/>
       <use xlink:href="#DejaVuSans-3" transform="translate(373.921875 0)"/>
       <use xlink:href="#DejaVuSans-b" transform="translate(405.703125 0)"/>
       <use xlink:href="#DejaVuSans-47" transform="translate(444.71875 0)"/>
       <use xlink:href="#DejaVuSans-48" transform="translate(508.203125 0)"/>
       <use xlink:href="#DejaVuSans-4a" transform="translate(569.734375 0)"/>
       <use xlink:href="#DejaVuSans-55" transform="translate(633.21875 0)"/>
       <use xlink:href="#DejaVuSans-48" transform="translate(672.125 0)"/>
       <use xlink:href="#DejaVuSans-48" transform="translate(733.65625 0)"/>
       <use xlink:href="#DejaVuSans-10" transform="translate(795.1875 0)"/>
       <use xlink:href="#DejaVuSans-53" transform="translate(831.265625 0)"/>
       <use xlink:href="#DejaVuSans-55" transform="translate(894.75 0)"/>
       <use xlink:href="#DejaVuSans-48" transform="translate(933.65625 0)"/>
       <use xlink:href="#DejaVuSans-56" transform="translate(995.1875 0)"/>
       <use xlink:href="#DejaVuSans-11" transform="translate(1047.28125 0)"/>
       <use xlink:href="#DejaVuSans-c" transform="translate(1079.0625 0)"/>
      </g>
     </g>
    </g>
    <g id="ytick_7">
     <g id="line2d_13">
      <g>
       <use xlink:href="#mc30877b2f9" x="126.007812" y="231.088686" style="fill: #444444; stroke: #444444; stroke-width: 0.8"/>
      </g>
     </g>
     <g id="text_14">
      <!-- distmatched 0 -->
      <g style="fill: #444444" transform="translate(47.084375 234.887905) scale(0.1 -0.1)">
       <use xlink:href="#DejaVuSans-47"/>
       <use xlink:href="#DejaVuSans-4c" transform="translate(63.484375 0)"/>
       <use xlink:href="#DejaVuSans-56" transform="translate(91.265625 0)"/>
       <use xlink:href="#DejaVuSans-57" transform="translate(143.359375 0)"/>
       <use xlink:href="#DejaVuSans-50" transform="translate(182.5625 0)"/>
       <use xlink:href="#DejaVuSans-44" transform="translate(279.96875 0)"/>
       <use xlink:href="#DejaVuSans-57" transform="translate(341.25 0)"/>
       <use xlink:href="#DejaVuSans-46" transform="translate(380.453125 0)"/>
       <use xlink:href="#DejaVuSans-4b" transform="translate(435.4375 0)"/>
       <use xlink:href="#DejaVuSans-48" transform="translate(498.8125 0)"/>
       <use xlink:href="#DejaVuSans-47" transform="translate(560.34375 0)"/>
       <use xlink:href="#DejaVuSans-3" transform="translate(623.828125 0)"/>
       <use xlink:href="#DejaVuSans-13" transform="translate(655.609375 0)"/>
      </g>
     </g>
    </g>
    <g id="ytick_8">
     <g id="line2d_14">
      <g>
       <use xlink:href="#mc30877b2f9" x="126.007812" y="255.9411" style="fill: #444444; stroke: #444444; stroke-width: 0.8"/>
      </g>
     </g>
     <g id="text_15">
      <!-- no_entangle -->
      <g style="fill: #444444" transform="translate(57.395312 259.740318) scale(0.1 -0.1)">
       <defs>
        <path id="DejaVuSans-42" d="M 3263 -1063 
L 3263 -1509 
L -63 -1509 
L -63 -1063 
L 3263 -1063 
z
" transform="scale(0.015625)"/>
       </defs>
       <use xlink:href="#DejaVuSans-51"/>
       <use xlink:href="#DejaVuSans-52" transform="translate(63.375 0)"/>
       <use xlink:href="#DejaVuSans-42" transform="translate(124.5625 0)"/>
       <use xlink:href="#DejaVuSans-48" transform="translate(174.5625 0)"/>
       <use xlink:href="#DejaVuSans-51" transform="translate(236.09375 0)"/>
       <use xlink:href="#DejaVuSans-57" transform="translate(299.46875 0)"/>
       <use xlink:href="#DejaVuSans-44" transform="translate(338.671875 0)"/>
       <use xlink:href="#DejaVuSans-51" transform="translate(399.953125 0)"/>
       <use xlink:href="#DejaVuSans-4a" transform="translate(463.328125 0)"/>
       <use xlink:href="#DejaVuSans-4f" transform="translate(526.8125 0)"/>
       <use xlink:href="#DejaVuSans-48" transform="translate(554.59375 0)"/>
      </g>
     </g>
    </g>
    <g id="ytick_9">
     <g id="line2d_15">
      <g>
       <use xlink:href="#mc30877b2f9" x="126.007812" y="280.793513" style="fill: #444444; stroke: #444444; stroke-width: 0.8"/>
      </g>
     </g>
     <g id="text_16">
      <!-- distmatched 1 -->
      <g style="fill: #444444" transform="translate(47.084375 284.592732) scale(0.1 -0.1)">
       <use xlink:href="#DejaVuSans-47"/>
       <use xlink:href="#DejaVuSans-4c" transform="translate(63.484375 0)"/>
       <use xlink:href="#DejaVuSans-56" transform="translate(91.265625 0)"/>
       <use xlink:href="#DejaVuSans-57" transform="translate(143.359375 0)"/>
       <use xlink:href="#DejaVuSans-50" transform="translate(182.5625 0)"/>
       <use xlink:href="#DejaVuSans-44" transform="translate(279.96875 0)"/>
       <use xlink:href="#DejaVuSans-57" transform="translate(341.25 0)"/>
       <use xlink:href="#DejaVuSans-46" transform="translate(380.453125 0)"/>
       <use xlink:href="#DejaVuSans-4b" transform="translate(435.4375 0)"/>
       <use xlink:href="#DejaVuSans-48" transform="translate(498.8125 0)"/>
       <use xlink:href="#DejaVuSans-47" transform="translate(560.34375 0)"/>
       <use xlink:href="#DejaVuSans-3" transform="translate(623.828125 0)"/>
       <use xlink:href="#DejaVuSans-14" transform="translate(655.609375 0)"/>
      </g>
     </g>
    </g>
    <g id="ytick_10">
     <g id="line2d_16">
      <g>
       <use xlink:href="#mc30877b2f9" x="126.007812" y="305.645927" style="fill: #444444; stroke: #444444; stroke-width: 0.8"/>
      </g>
     </g>
     <g id="text_17">
      <!-- permuted 2 -->
      <g style="fill: #444444" transform="translate(60.529687 309.445146) scale(0.1 -0.1)">
       <use xlink:href="#DejaVuSans-53"/>
       <use xlink:href="#DejaVuSans-48" transform="translate(63.484375 0)"/>
       <use xlink:href="#DejaVuSans-55" transform="translate(125.015625 0)"/>
       <use xlink:href="#DejaVuSans-50" transform="translate(164.375 0)"/>
       <use xlink:href="#DejaVuSans-58" transform="translate(261.78125 0)"/>
       <use xlink:href="#DejaVuSans-57" transform="translate(325.15625 0)"/>
       <use xlink:href="#DejaVuSans-48" transform="translate(364.359375 0)"/>
       <use xlink:href="#DejaVuSans-47" transform="translate(425.890625 0)"/>
       <use xlink:href="#DejaVuSans-3" transform="translate(489.375 0)"/>
       <use xlink:href="#DejaVuSans-15" transform="translate(521.15625 0)"/>
      </g>
     </g>
    </g>
   </g>
   <g id="line2d_17">
    <path d="M 586.482325 334.226203 
L 586.482325 45.938203 
" clip-path="url(#p787182877b)" style="fill: none; stroke-dasharray: 5.18,2.24; stroke-dashoffset: 0; stroke: #c0392b; stroke-width: 1.4"/>
   </g>
   <g id="line2d_18">
    <path d="M 272.655746 334.226203 
L 272.655746 45.938203 
" clip-path="url(#p787182877b)" style="fill: none; stroke-dasharray: 1.2,1.98; stroke-dashoffset: 0; stroke: #666666; stroke-width: 1.2"/>
   </g>
   <g id="line2d_19">
    <path d="M 194.443515 334.226203 
L 194.443515 45.938203 
" clip-path="url(#p787182877b)" style="fill: none; stroke: #666666; stroke-width: 1.2; stroke-linecap: square"/>
   </g>
   <g id="patch_4">
    <path d="M 126.007812 334.226203 
L 126.007812 45.938203 
" style="fill: none; stroke: #444444; stroke-width: 0.8; stroke-linejoin: miter; stroke-linecap: square"/>
   </g>
   <g id="patch_5">
    <path d="M 126.007812 334.226203 
L 717.487813 334.226203 
" style="fill: none; stroke: #444444; stroke-width: 0.8; stroke-linejoin: miter; stroke-linecap: square"/>
   </g>
   <g id="patch_6">
    <path d="M 126.007812 90.1755 
L 514.958869 90.1755 
L 514.958869 73.772907 
L 126.007812 73.772907 
z
" clip-path="url(#p787182877b)" style="fill: #2e8b57"/>
   </g>
   <g id="patch_7">
    <path d="M 126.007812 115.027913 
L 546.017272 115.027913 
L 546.017272 98.62532 
L 126.007812 98.62532 
z
" clip-path="url(#p787182877b)" style="fill: #2c6fbb"/>
   </g>
   <g id="patch_8">
    <path d="M 126.007812 139.880327 
L 555.839424 139.880327 
L 555.839424 123.477734 
L 126.007812 123.477734 
z
" clip-path="url(#p787182877b)" style="fill: #2c6fbb"/>
   </g>
   <g id="patch_9">
    <path d="M 126.007812 164.732741 
L 569.23164 164.732741 
L 569.23164 148.330148 
L 126.007812 148.330148 
z
" clip-path="url(#p787182877b)" style="fill: #2c6fbb"/>
   </g>
   <g id="patch_10">
    <path d="M 126.007812 189.585155 
L 578.949509 189.585155 
L 578.949509 173.182562 
L 126.007812 173.182562 
z
" clip-path="url(#p787182877b)" style="fill: #2c6fbb"/>
   </g>
   <g id="patch_11">
    <path d="M 126.007812 214.437569 
L 588.898757 214.437569 
L 588.898757 198.034976 
L 126.007812 198.034976 
z
" clip-path="url(#p787182877b)" style="fill: #2c6fbb"/>
   </g>
   <g id="patch_12">
    <path d="M 126.007812 239.289982 
L 596.821004 239.289982 
L 596.821004 222.887389 
L 126.007812 222.887389 
z
" clip-path="url(#p787182877b)" style="fill: #2c6fbb"/>
   </g>
   <g id="patch_13">
    <path d="M 126.007812 264.142396 
L 598.316813 264.142396 
L 598.316813 247.739803 
L 126.007812 247.739803 
z
" clip-path="url(#p787182877b)" style="fill: #8a8a8a"/>
   </g>
   <g id="patch_14">
    <path d="M 126.007812 288.99481 
L 604.735104 288.99481 
L 604.735104 272.592217 
L 126.007812 272.592217 
z
" clip-path="url(#p787182877b)" style="fill: #2c6fbb"/>
   </g>
   <g id="patch_15">
    <path d="M 126.007812 313.847224 
L 607.071695 313.847224 
L 607.071695 297.444631 
L 126.007812 297.444631 
z
" clip-path="url(#p787182877b)" style="fill: #2c6fbb"/>
   </g>
   <g id="text_18">
    <!-- 0.0796 -->
    <g style="fill: #2e8b57" transform="translate(653.940374 84.441977) scale(0.095 -0.095)">
     <defs>
      <path id="DejaVuSans-Bold-13" d="M 2944 2338 
Q 2944 3213 2780 3570 
Q 2616 3928 2228 3928 
Q 1841 3928 1675 3570 
Q 1509 3213 1509 2338 
Q 1509 1453 1675 1090 
Q 1841 728 2228 728 
Q 2613 728 2778 1090 
Q 2944 1453 2944 2338 
z
M 4147 2328 
Q 4147 1169 3647 539 
Q 3147 -91 2228 -91 
Q 1306 -91 806 539 
Q 306 1169 306 2328 
Q 306 3491 806 4120 
Q 1306 4750 2228 4750 
Q 3147 4750 3647 4120 
Q 4147 3491 4147 2328 
z
" transform="scale(0.015625)"/>
      <path id="DejaVuSans-Bold-11" d="M 653 1209 
L 1778 1209 
L 1778 0 
L 653 0 
L 653 1209 
z
" transform="scale(0.015625)"/>
      <path id="DejaVuSans-Bold-1a" d="M 428 4666 
L 3944 4666 
L 3944 3988 
L 2125 0 
L 953 0 
L 2675 3781 
L 428 3781 
L 428 4666 
z
" transform="scale(0.015625)"/>
      <path id="DejaVuSans-Bold-1c" d="M 641 103 
L 641 966 
Q 928 831 1190 764 
Q 1453 697 1709 697 
Q 2247 697 2547 995 
Q 2847 1294 2900 1881 
Q 2688 1725 2447 1647 
Q 2206 1569 1925 1569 
Q 1209 1569 770 1986 
Q 331 2403 331 3084 
Q 331 3838 820 4291 
Q 1309 4744 2131 4744 
Q 3044 4744 3544 4128 
Q 4044 3513 4044 2388 
Q 4044 1231 3459 570 
Q 2875 -91 1856 -91 
Q 1528 -91 1228 -42 
Q 928 6 641 103 
z
M 2125 2350 
Q 2441 2350 2600 2554 
Q 2759 2759 2759 3169 
Q 2759 3575 2600 3781 
Q 2441 3988 2125 3988 
Q 1809 3988 1650 3781 
Q 1491 3575 1491 3169 
Q 1491 2759 1650 2554 
Q 1809 2350 2125 2350 
z
" transform="scale(0.015625)"/>
      <path id="DejaVuSans-Bold-19" d="M 2316 2303 
Q 2000 2303 1842 2098 
Q 1684 1894 1684 1484 
Q 1684 1075 1842 870 
Q 2000 666 2316 666 
Q 2634 666 2792 870 
Q 2950 1075 2950 1484 
Q 2950 1894 2792 2098 
Q 2634 2303 2316 2303 
z
M 3803 4544 
L 3803 3681 
Q 3506 3822 3243 3889 
Q 2981 3956 2731 3956 
Q 2194 3956 1894 3657 
Q 1594 3359 1544 2772 
Q 1750 2925 1990 3001 
Q 2231 3078 2516 3078 
Q 3231 3078 3670 2659 
Q 4109 2241 4109 1563 
Q 4109 813 3618 361 
Q 3128 -91 2303 -91 
Q 1394 -91 895 523 
Q 397 1138 397 2266 
Q 397 3422 980 4083 
Q 1563 4744 2578 4744 
Q 2900 4744 3203 4694 
Q 3506 4644 3803 4544 
z
" transform="scale(0.015625)"/>
     </defs>
     <use xlink:href="#DejaVuSans-Bold-13"/>
     <use xlink:href="#DejaVuSans-Bold-11" transform="translate(69.578125 0)"/>
     <use xlink:href="#DejaVuSans-Bold-13" transform="translate(107.5625 0)"/>
     <use xlink:href="#DejaVuSans-Bold-1a" transform="translate(177.140625 0)"/>
     <use xlink:href="#DejaVuSans-Bold-1c" transform="translate(246.71875 0)"/>
     <use xlink:href="#DejaVuSans-Bold-19" transform="translate(316.296875 0)"/>
    </g>
   </g>
   <g id="text_19">
    <!-- 0.0859 -->
    <g style="fill: #333333" transform="translate(653.940374 109.29439) scale(0.095 -0.095)">
     <defs>
      <path id="DejaVuSans-18" d="M 691 4666 
L 3169 4666 
L 3169 4134 
L 1269 4134 
L 1269 2991 
Q 1406 3038 1543 3061 
Q 1681 3084 1819 3084 
Q 2600 3084 3056 2656 
Q 3513 2228 3513 1497 
Q 3513 744 3044 326 
Q 2575 -91 1722 -91 
Q 1428 -91 1123 -41 
Q 819 9 494 109 
L 494 744 
Q 775 591 1075 516 
Q 1375 441 1709 441 
Q 2250 441 2565 725 
Q 2881 1009 2881 1497 
Q 2881 1984 2565 2268 
Q 2250 2553 1709 2553 
Q 1456 2553 1204 2497 
Q 953 2441 691 2322 
L 691 4666 
z
" transform="scale(0.015625)"/>
      <path id="DejaVuSans-1c" d="M 703 97 
L 703 672 
Q 941 559 1184 500 
Q 1428 441 1663 441 
Q 2288 441 2617 861 
Q 2947 1281 2994 2138 
Q 2813 1869 2534 1725 
Q 2256 1581 1919 1581 
Q 1219 1581 811 2004 
Q 403 2428 403 3163 
Q 403 3881 828 4315 
Q 1253 4750 1959 4750 
Q 2769 4750 3195 4129 
Q 3622 3509 3622 2328 
Q 3622 1225 3098 567 
Q 2575 -91 1691 -91 
Q 1453 -91 1209 -44 
Q 966 3 703 97 
z
M 1959 2075 
Q 2384 2075 2632 2365 
Q 2881 2656 2881 3163 
Q 2881 3666 2632 3958 
Q 2384 4250 1959 4250 
Q 1534 4250 1286 3958 
Q 1038 3666 1038 3163 
Q 1038 2656 1286 2365 
Q 1534 2075 1959 2075 
z
" transform="scale(0.015625)"/>
     </defs>
     <use xlink:href="#DejaVuSans-13"/>
     <use xlink:href="#DejaVuSans-11" transform="translate(63.625 0)"/>
     <use xlink:href="#DejaVuSans-13" transform="translate(95.40625 0)"/>
     <use xlink:href="#DejaVuSans-1b" transform="translate(159.03125 0)"/>
     <use xlink:href="#DejaVuSans-18" transform="translate(222.65625 0)"/>
     <use xlink:href="#DejaVuSans-1c" transform="translate(286.28125 0)"/>
    </g>
   </g>
   <g id="text_20">
    <!-- 0.0879 -->
    <g style="fill: #333333" transform="translate(653.940374 134.146804) scale(0.095 -0.095)">
     <defs>
      <path id="DejaVuSans-1a" d="M 525 4666 
L 3525 4666 
L 3525 4397 
L 1831 0 
L 1172 0 
L 2766 4134 
L 525 4134 
L 525 4666 
z
" transform="scale(0.015625)"/>
     </defs>
     <use xlink:href="#DejaVuSans-13"/>
     <use xlink:href="#DejaVuSans-11" transform="translate(63.625 0)"/>
     <use xlink:href="#DejaVuSans-13" transform="translate(95.40625 0)"/>
     <use xlink:href="#DejaVuSans-1b" transform="translate(159.03125 0)"/>
     <use xlink:href="#DejaVuSans-1a" transform="translate(222.65625 0)"/>
     <use xlink:href="#DejaVuSans-1c" transform="translate(286.28125 0)"/>
    </g>
   </g>
   <g id="text_21">
    <!-- 0.0907 -->
    <g style="fill: #333333" transform="translate(653.940374 158.999218) scale(0.095 -0.095)">
     <use xlink:href="#DejaVuSans-13"/>
     <use xlink:href="#DejaVuSans-11" transform="translate(63.625 0)"/>
     <use xlink:href="#DejaVuSans-13" transform="translate(95.40625 0)"/>
     <use xlink:href="#DejaVuSans-1c" transform="translate(159.03125 0)"/>
     <use xlink:href="#DejaVuSans-13" transform="translate(222.65625 0)"/>
     <use xlink:href="#DejaVuSans-1a" transform="translate(286.28125 0)"/>
    </g>
   </g>
   <g id="text_22">
    <!-- 0.0927 -->
    <g style="fill: #333333" transform="translate(653.940374 183.851632) scale(0.095 -0.095)">
     <use xlink:href="#DejaVuSans-13"/>
     <use xlink:href="#DejaVuSans-11" transform="translate(63.625 0)"/>
     <use xlink:href="#DejaVuSans-13" transform="translate(95.40625 0)"/>
     <use xlink:href="#DejaVuSans-1c" transform="translate(159.03125 0)"/>
     <use xlink:href="#DejaVuSans-15" transform="translate(222.65625 0)"/>
     <use xlink:href="#DejaVuSans-1a" transform="translate(286.28125 0)"/>
    </g>
   </g>
   <g id="text_23">
    <!-- 0.0947 -->
    <g style="fill: #333333" transform="translate(653.940374 208.704046) scale(0.095 -0.095)">
     <use xlink:href="#DejaVuSans-13"/>
     <use xlink:href="#DejaVuSans-11" transform="translate(63.625 0)"/>
     <use xlink:href="#DejaVuSans-13" transform="translate(95.40625 0)"/>
     <use xlink:href="#DejaVuSans-1c" transform="translate(159.03125 0)"/>
     <use xlink:href="#DejaVuSans-17" transform="translate(222.65625 0)"/>
     <use xlink:href="#DejaVuSans-1a" transform="translate(286.28125 0)"/>
    </g>
   </g>
   <g id="text_24">
    <!-- 0.0963 -->
    <g style="fill: #333333" transform="translate(653.940374 233.556459) scale(0.095 -0.095)">
     <defs>
      <path id="DejaVuSans-16" d="M 2597 2516 
Q 3050 2419 3304 2112 
Q 3559 1806 3559 1356 
Q 3559 666 3084 287 
Q 2609 -91 1734 -91 
Q 1441 -91 1130 -33 
Q 819 25 488 141 
L 488 750 
Q 750 597 1062 519 
Q 1375 441 1716 441 
Q 2309 441 2620 675 
Q 2931 909 2931 1356 
Q 2931 1769 2642 2001 
Q 2353 2234 1838 2234 
L 1294 2234 
L 1294 2753 
L 1863 2753 
Q 2328 2753 2575 2939 
Q 2822 3125 2822 3475 
Q 2822 3834 2567 4026 
Q 2313 4219 1838 4219 
Q 1578 4219 1281 4162 
Q 984 4106 628 3988 
L 628 4550 
Q 988 4650 1302 4700 
Q 1616 4750 1894 4750 
Q 2613 4750 3031 4423 
Q 3450 4097 3450 3541 
Q 3450 3153 3228 2886 
Q 3006 2619 2597 2516 
z
" transform="scale(0.015625)"/>
     </defs>
     <use xlink:href="#DejaVuSans-13"/>
     <use xlink:href="#DejaVuSans-11" transform="translate(63.625 0)"/>
     <use xlink:href="#DejaVuSans-13" transform="translate(95.40625 0)"/>
     <use xlink:href="#DejaVuSans-1c" transform="translate(159.03125 0)"/>
     <use xlink:href="#DejaVuSans-19" transform="translate(222.65625 0)"/>
     <use xlink:href="#DejaVuSans-16" transform="translate(286.28125 0)"/>
    </g>
   </g>
   <g id="text_25">
    <!-- 0.0966 -->
    <g style="fill: #333333" transform="translate(653.940374 258.408873) scale(0.095 -0.095)">
     <use xlink:href="#DejaVuSans-13"/>
     <use xlink:href="#DejaVuSans-11" transform="translate(63.625 0)"/>
     <use xlink:href="#DejaVuSans-13" transform="translate(95.40625 0)"/>
     <use xlink:href="#DejaVuSans-1c" transform="translate(159.03125 0)"/>
     <use xlink:href="#DejaVuSans-19" transform="translate(222.65625 0)"/>
     <use xlink:href="#DejaVuSans-19" transform="translate(286.28125 0)"/>
    </g>
   </g>
   <g id="text_26">
    <!-- 0.0979 -->
    <g style="fill: #333333" transform="translate(653.940374 283.261287) scale(0.095 -0.095)">
     <use xlink:href="#DejaVuSans-13"/>
     <use xlink:href="#DejaVuSans-11" transform="translate(63.625 0)"/>
     <use xlink:href="#DejaVuSans-13" transform="translate(95.40625 0)"/>
     <use xlink:href="#DejaVuSans-1c" transform="translate(159.03125 0)"/>
     <use xlink:href="#DejaVuSans-1a" transform="translate(222.65625 0)"/>
     <use xlink:href="#DejaVuSans-1c" transform="translate(286.28125 0)"/>
    </g>
   </g>
   <g id="text_27">
    <!-- 0.0984 -->
    <g style="fill: #333333" transform="translate(653.940374 308.113701) scale(0.095 -0.095)">
     <use xlink:href="#DejaVuSans-13"/>
     <use xlink:href="#DejaVuSans-11" transform="translate(63.625 0)"/>
     <use xlink:href="#DejaVuSans-13" transform="translate(95.40625 0)"/>
     <use xlink:href="#DejaVuSans-1c" transform="translate(159.03125 0)"/>
     <use xlink:href="#DejaVuSans-1b" transform="translate(222.65625 0)"/>
     <use xlink:href="#DejaVuSans-17" transform="translate(286.28125 0)"/>
    </g>
   </g>
   <g id="text_28">
    <!-- Corollary 1 -->
    <g style="fill: #555555" transform="translate(143.344469 55.476293) scale(0.085 -0.085)">
     <use xlink:href="#DejaVuSans-26"/>
     <use xlink:href="#DejaVuSans-52" transform="translate(69.828125 0)"/>
     <use xlink:href="#DejaVuSans-55" transform="translate(131.015625 0)"/>
     <use xlink:href="#DejaVuSans-52" transform="translate(169.921875 0)"/>
     <use xlink:href="#DejaVuSans-4f" transform="translate(231.109375 0)"/>
     <use xlink:href="#DejaVuSans-4f" transform="translate(258.890625 0)"/>
     <use xlink:href="#DejaVuSans-44" transform="translate(286.671875 0)"/>
     <use xlink:href="#DejaVuSans-55" transform="translate(347.953125 0)"/>
     <use xlink:href="#DejaVuSans-5c" transform="translate(389.0625 0)"/>
     <use xlink:href="#DejaVuSans-3" transform="translate(448.25 0)"/>
     <use xlink:href="#DejaVuSans-14" transform="translate(480.03125 0)"/>
    </g>
    <!-- bound 0.0140 -->
    <g style="fill: #555555" transform="translate(130.344782 68.19973) scale(0.085 -0.085)">
     <use xlink:href="#DejaVuSans-45"/>
     <use xlink:href="#DejaVuSans-52" transform="translate(63.484375 0)"/>
     <use xlink:href="#DejaVuSans-58" transform="translate(124.671875 0)"/>
     <use xlink:href="#DejaVuSans-51" transform="translate(188.046875 0)"/>
     <use xlink:href="#DejaVuSans-47" transform="translate(251.421875 0)"/>
     <use xlink:href="#DejaVuSans-3" transform="translate(314.90625 0)"/>
     <use xlink:href="#DejaVuSans-13" transform="translate(346.6875 0)"/>
     <use xlink:href="#DejaVuSans-11" transform="translate(410.3125 0)"/>
     <use xlink:href="#DejaVuSans-13" transform="translate(442.09375 0)"/>
     <use xlink:href="#DejaVuSans-14" transform="translate(505.71875 0)"/>
     <use xlink:href="#DejaVuSans-17" transform="translate(569.34375 0)"/>
     <use xlink:href="#DejaVuSans-13" transform="translate(632.96875 0)"/>
    </g>
   </g>
   <g id="text_29">
    <!-- ceiling 0.0300 -->
    <g style="fill: #555555" transform="translate(277.544011 55.476293) scale(0.085 -0.085)">
     <use xlink:href="#DejaVuSans-46"/>
     <use xlink:href="#DejaVuSans-48" transform="translate(54.984375 0)"/>
     <use xlink:href="#DejaVuSans-4c" transform="translate(116.515625 0)"/>
     <use xlink:href="#DejaVuSans-4f" transform="translate(144.296875 0)"/>
     <use xlink:href="#DejaVuSans-4c" transform="translate(172.078125 0)"/>
     <use xlink:href="#DejaVuSans-51" transform="translate(199.859375 0)"/>
     <use xlink:href="#DejaVuSans-4a" transform="translate(263.234375 0)"/>
     <use xlink:href="#DejaVuSans-3" transform="translate(326.71875 0)"/>
     <use xlink:href="#DejaVuSans-13" transform="translate(358.5 0)"/>
     <use xlink:href="#DejaVuSans-11" transform="translate(422.125 0)"/>
     <use xlink:href="#DejaVuSans-13" transform="translate(453.90625 0)"/>
     <use xlink:href="#DejaVuSans-16" transform="translate(517.53125 0)"/>
     <use xlink:href="#DejaVuSans-13" transform="translate(581.15625 0)"/>
     <use xlink:href="#DejaVuSans-13" transform="translate(644.78125 0)"/>
    </g>
    <!-- (GAN removed) -->
    <g style="fill: #555555" transform="translate(277.544011 67.699691) scale(0.085 -0.085)">
     <defs>
      <path id="DejaVuSans-24" d="M 2188 4044 
L 1331 1722 
L 3047 1722 
L 2188 4044 
z
M 1831 4666 
L 2547 4666 
L 4325 0 
L 3669 0 
L 3244 1197 
L 1141 1197 
L 716 0 
L 50 0 
L 1831 4666 
z
" transform="scale(0.015625)"/>
      <path id="DejaVuSans-31" d="M 628 4666 
L 1478 4666 
L 3547 763 
L 3547 4666 
L 4159 4666 
L 4159 0 
L 3309 0 
L 1241 3903 
L 1241 0 
L 628 0 
L 628 4666 
z
" transform="scale(0.015625)"/>
     </defs>
     <use xlink:href="#DejaVuSans-b"/>
     <use xlink:href="#DejaVuSans-2a" transform="translate(39.015625 0)"/>
     <use xlink:href="#DejaVuSans-24" transform="translate(116.5 0)"/>
     <use xlink:href="#DejaVuSans-31" transform="translate(184.90625 0)"/>
     <use xlink:href="#DejaVuSans-3" transform="translate(259.71875 0)"/>
     <use xlink:href="#DejaVuSans-55" transform="translate(291.5 0)"/>
     <use xlink:href="#DejaVuSans-48" transform="translate(330.40625 0)"/>
     <use xlink:href="#DejaVuSans-50" transform="translate(391.9375 0)"/>
     <use xlink:href="#DejaVuSans-52" transform="translate(489.34375 0)"/>
     <use xlink:href="#DejaVuSans-59" transform="translate(550.53125 0)"/>
     <use xlink:href="#DejaVuSans-48" transform="translate(609.71875 0)"/>
     <use xlink:href="#DejaVuSans-47" transform="translate(671.25 0)"/>
     <use xlink:href="#DejaVuSans-c" transform="translate(734.734375 0)"/>
    </g>
   </g>
   <g id="text_30">
    <!-- honest null 0.0942 -->
    <g style="fill: #c0392b" transform="translate(499.543444 56.29973) scale(0.085 -0.085)">
     <use xlink:href="#DejaVuSans-4b"/>
     <use xlink:href="#DejaVuSans-52" transform="translate(63.375 0)"/>
     <use xlink:href="#DejaVuSans-51" transform="translate(124.5625 0)"/>
     <use xlink:href="#DejaVuSans-48" transform="translate(187.9375 0)"/>
     <use xlink:href="#DejaVuSans-56" transform="translate(249.46875 0)"/>
     <use xlink:href="#DejaVuSans-57" transform="translate(301.5625 0)"/>
     <use xlink:href="#DejaVuSans-3" transform="translate(340.765625 0)"/>
     <use xlink:href="#DejaVuSans-51" transform="translate(372.546875 0)"/>
     <use xlink:href="#DejaVuSans-58" transform="translate(435.921875 0)"/>
     <use xlink:href="#DejaVuSans-4f" transform="translate(499.296875 0)"/>
     <use xlink:href="#DejaVuSans-4f" transform="translate(527.078125 0)"/>
     <use xlink:href="#DejaVuSans-3" transform="translate(554.859375 0)"/>
     <use xlink:href="#DejaVuSans-13" transform="translate(586.640625 0)"/>
     <use xlink:href="#DejaVuSans-11" transform="translate(650.265625 0)"/>
     <use xlink:href="#DejaVuSans-13" transform="translate(682.046875 0)"/>
     <use xlink:href="#DejaVuSans-1c" transform="translate(745.671875 0)"/>
     <use xlink:href="#DejaVuSans-17" transform="translate(809.296875 0)"/>
     <use xlink:href="#DejaVuSans-15" transform="translate(872.921875 0)"/>
    </g>
    <!-- (zero dependency) -->
    <g style="fill: #c0392b" transform="translate(499.259225 67.376293) scale(0.085 -0.085)">
     <defs>
      <path id="DejaVuSans-5d" d="M 353 3500 
L 3084 3500 
L 3084 2975 
L 922 459 
L 3084 459 
L 3084 0 
L 275 0 
L 275 525 
L 2438 3041 
L 353 3041 
L 353 3500 
z
" transform="scale(0.015625)"/>
     </defs>
     <use xlink:href="#DejaVuSans-b"/>
     <use xlink:href="#DejaVuSans-5d" transform="translate(39.015625 0)"/>
     <use xlink:href="#DejaVuSans-48" transform="translate(91.5 0)"/>
     <use xlink:href="#DejaVuSans-55" transform="translate(153.03125 0)"/>
     <use xlink:href="#DejaVuSans-52" transform="translate(191.9375 0)"/>
     <use xlink:href="#DejaVuSans-3" transform="translate(253.125 0)"/>
     <use xlink:href="#DejaVuSans-47" transform="translate(284.90625 0)"/>
     <use xlink:href="#DejaVuSans-48" transform="translate(348.390625 0)"/>
     <use xlink:href="#DejaVuSans-53" transform="translate(409.921875 0)"/>
     <use xlink:href="#DejaVuSans-48" transform="translate(473.40625 0)"/>
     <use xlink:href="#DejaVuSans-51" transform="translate(534.9375 0)"/>
     <use xlink:href="#DejaVuSans-47" transform="translate(598.3125 0)"/>
     <use xlink:href="#DejaVuSans-48" transform="translate(661.796875 0)"/>
     <use xlink:href="#DejaVuSans-51" transform="translate(723.328125 0)"/>
     <use xlink:href="#DejaVuSans-46" transform="translate(786.703125 0)"/>
     <use xlink:href="#DejaVuSans-5c" transform="translate(841.6875 0)"/>
     <use xlink:href="#DejaVuSans-c" transform="translate(900.875 0)"/>
    </g>
   </g>
   <g id="text_31">
    <!-- CDG's worst seed 0.0823  &lt;  every one of the 27 control seeds (min 0.0825).  The two sets do not overlap. -->
    <g style="fill: #2e8b57" transform="translate(126.007812 329.578852) scale(0.09 -0.09)">
     <defs>
      <path id="DejaVuSans-a" d="M 1147 4666 
L 1147 2931 
L 616 2931 
L 616 4666 
L 1147 4666 
z
" transform="scale(0.015625)"/>
      <path id="DejaVuSans-1f" d="M 4684 3150 
L 1459 2003 
L 4684 863 
L 4684 294 
L 678 1747 
L 678 2266 
L 4684 3719 
L 4684 3150 
z
" transform="scale(0.015625)"/>
      <path id="DejaVuSans-49" d="M 2375 4863 
L 2375 4384 
L 1825 4384 
Q 1516 4384 1395 4259 
Q 1275 4134 1275 3809 
L 1275 3500 
L 2222 3500 
L 2222 3053 
L 1275 3053 
L 1275 0 
L 697 0 
L 697 3053 
L 147 3053 
L 147 3500 
L 697 3500 
L 697 3744 
Q 697 4328 969 4595 
Q 1241 4863 1831 4863 
L 2375 4863 
z
" transform="scale(0.015625)"/>
      <path id="DejaVuSans-37" d="M -19 4666 
L 3928 4666 
L 3928 4134 
L 2272 4134 
L 2272 0 
L 1638 0 
L 1638 4134 
L -19 4134 
L -19 4666 
z
" transform="scale(0.015625)"/>
     </defs>
     <use xlink:href="#DejaVuSans-26"/>
     <use xlink:href="#DejaVuSans-27" transform="translate(69.828125 0)"/>
     <use xlink:href="#DejaVuSans-2a" transform="translate(146.828125 0)"/>
     <use xlink:href="#DejaVuSans-a" transform="translate(224.3125 0)"/>
     <use xlink:href="#DejaVuSans-56" transform="translate(251.796875 0)"/>
     <use xlink:href="#DejaVuSans-3" transform="translate(303.890625 0)"/>
     <use xlink:href="#DejaVuSans-5a" transform="translate(335.671875 0)"/>
     <use xlink:href="#DejaVuSans-52" transform="translate(417.453125 0)"/>
     <use xlink:href="#DejaVuSans-55" transform="translate(478.640625 0)"/>
     <use xlink:href="#DejaVuSans-56" transform="translate(519.75 0)"/>
     <use xlink:href="#DejaVuSans-57" transform="translate(571.84375 0)"/>
     <use xlink:href="#DejaVuSans-3" transform="translate(611.046875 0)"/>
     <use xlink:href="#DejaVuSans-56" transform="translate(642.828125 0)"/>
     <use xlink:href="#DejaVuSans-48" transform="translate(694.921875 0)"/>
     <use xlink:href="#DejaVuSans-48" transform="translate(756.453125 0)"/>
     <use xlink:href="#DejaVuSans-47" transform="translate(817.984375 0)"/>
     <use xlink:href="#DejaVuSans-3" transform="translate(881.46875 0)"/>
     <use xlink:href="#DejaVuSans-13" transform="translate(913.25 0)"/>
     <use xlink:href="#DejaVuSans-11" transform="translate(976.875 0)"/>
     <use xlink:href="#DejaVuSans-13" transform="translate(1008.65625 0)"/>
     <use xlink:href="#DejaVuSans-1b" transform="translate(1072.28125 0)"/>
     <use xlink:href="#DejaVuSans-15" transform="translate(1135.90625 0)"/>
     <use xlink:href="#DejaVuSans-16" transform="translate(1199.53125 0)"/>
     <use xlink:href="#DejaVuSans-3" transform="translate(1263.15625 0)"/>
     <use xlink:href="#DejaVuSans-3" transform="translate(1294.9375 0)"/>
     <use xlink:href="#DejaVuSans-1f" transform="translate(1326.71875 0)"/>
     <use xlink:href="#DejaVuSans-3" transform="translate(1410.515625 0)"/>
     <use xlink:href="#DejaVuSans-3" transform="translate(1442.296875 0)"/>
     <use xlink:href="#DejaVuSans-48" transform="translate(1474.078125 0)"/>
     <use xlink:href="#DejaVuSans-59" transform="translate(1535.609375 0)"/>
     <use xlink:href="#DejaVuSans-48" transform="translate(1594.796875 0)"/>
     <use xlink:href="#DejaVuSans-55" transform="translate(1656.328125 0)"/>
     <use xlink:href="#DejaVuSans-5c" transform="translate(1697.4375 0)"/>
     <use xlink:href="#DejaVuSans-3" transform="translate(1756.625 0)"/>
     <use xlink:href="#DejaVuSans-52" transform="translate(1788.40625 0)"/>
     <use xlink:href="#DejaVuSans-51" transform="translate(1849.59375 0)"/>
     <use xlink:href="#DejaVuSans-48" transform="translate(1912.96875 0)"/>
     <use xlink:href="#DejaVuSans-3" transform="translate(1974.5 0)"/>
     <use xlink:href="#DejaVuSans-52" transform="translate(2006.28125 0)"/>
     <use xlink:href="#DejaVuSans-49" transform="translate(2067.46875 0)"/>
     <use xlink:href="#DejaVuSans-3" transform="translate(2102.671875 0)"/>
     <use xlink:href="#DejaVuSans-57" transform="translate(2134.453125 0)"/>
     <use xlink:href="#DejaVuSans-4b" transform="translate(2173.65625 0)"/>
     <use xlink:href="#DejaVuSans-48" transform="translate(2237.03125 0)"/>
     <use xlink:href="#DejaVuSans-3" transform="translate(2298.5625 0)"/>
     <use xlink:href="#DejaVuSans-15" transform="translate(2330.34375 0)"/>
     <use xlink:href="#DejaVuSans-1a" transform="translate(2393.96875 0)"/>
     <use xlink:href="#DejaVuSans-3" transform="translate(2457.59375 0)"/>
     <use xlink:href="#DejaVuSans-46" transform="translate(2489.375 0)"/>
     <use xlink:href="#DejaVuSans-52" transform="translate(2544.359375 0)"/>
     <use xlink:href="#DejaVuSans-51" transform="translate(2605.546875 0)"/>
     <use xlink:href="#DejaVuSans-57" transform="translate(2668.921875 0)"/>
     <use xlink:href="#DejaVuSans-55" transform="translate(2708.125 0)"/>
     <use xlink:href="#DejaVuSans-52" transform="translate(2747.03125 0)"/>
     <use xlink:href="#DejaVuSans-4f" transform="translate(2808.21875 0)"/>
     <use xlink:href="#DejaVuSans-3" transform="translate(2836 0)"/>
     <use xlink:href="#DejaVuSans-56" transform="translate(2867.78125 0)"/>
     <use xlink:href="#DejaVuSans-48" transform="translate(2919.875 0)"/>
     <use xlink:href="#DejaVuSans-48" transform="translate(2981.40625 0)"/>
     <use xlink:href="#DejaVuSans-47" transform="translate(3042.9375 0)"/>
     <use xlink:href="#DejaVuSans-56" transform="translate(3106.421875 0)"/>
     <use xlink:href="#DejaVuSans-3" transform="translate(3158.515625 0)"/>
     <use xlink:href="#DejaVuSans-b" transform="translate(3190.296875 0)"/>
     <use xlink:href="#DejaVuSans-50" transform="translate(3229.3125 0)"/>
     <use xlink:href="#DejaVuSans-4c" transform="translate(3326.71875 0)"/>
     <use xlink:href="#DejaVuSans-51" transform="translate(3354.5 0)"/>
     <use xlink:href="#DejaVuSans-3" transform="translate(3417.875 0)"/>
     <use xlink:href="#DejaVuSans-13" transform="translate(3449.65625 0)"/>
     <use xlink:href="#DejaVuSans-11" transform="translate(3513.28125 0)"/>
     <use xlink:href="#DejaVuSans-13" transform="translate(3545.0625 0)"/>
     <use xlink:href="#DejaVuSans-1b" transform="translate(3608.6875 0)"/>
     <use xlink:href="#DejaVuSans-15" transform="translate(3672.3125 0)"/>
     <use xlink:href="#DejaVuSans-18" transform="translate(3735.9375 0)"/>
     <use xlink:href="#DejaVuSans-c" transform="translate(3799.5625 0)"/>
     <use xlink:href="#DejaVuSans-11" transform="translate(3838.578125 0)"/>
     <use xlink:href="#DejaVuSans-3" transform="translate(3870.359375 0)"/>
     <use xlink:href="#DejaVuSans-3" transform="translate(3902.140625 0)"/>
     <use xlink:href="#DejaVuSans-37" transform="translate(3933.921875 0)"/>
     <use xlink:href="#DejaVuSans-4b" transform="translate(3995 0)"/>
     <use xlink:href="#DejaVuSans-48" transform="translate(4058.375 0)"/>
     <use xlink:href="#DejaVuSans-3" transform="translate(4119.90625 0)"/>
     <use xlink:href="#DejaVuSans-57" transform="translate(4151.6875 0)"/>
     <use xlink:href="#DejaVuSans-5a" transform="translate(4190.890625 0)"/>
     <use xlink:href="#DejaVuSans-52" transform="translate(4272.671875 0)"/>
     <use xlink:href="#DejaVuSans-3" transform="translate(4333.859375 0)"/>
     <use xlink:href="#DejaVuSans-56" transform="translate(4365.640625 0)"/>
     <use xlink:href="#DejaVuSans-48" transform="translate(4417.734375 0)"/>
     <use xlink:href="#DejaVuSans-57" transform="translate(4479.265625 0)"/>
     <use xlink:href="#DejaVuSans-56" transform="translate(4518.46875 0)"/>
     <use xlink:href="#DejaVuSans-3" transform="translate(4570.5625 0)"/>
     <use xlink:href="#DejaVuSans-47" transform="translate(4602.34375 0)"/>
     <use xlink:href="#DejaVuSans-52" transform="translate(4665.828125 0)"/>
     <use xlink:href="#DejaVuSans-3" transform="translate(4727.015625 0)"/>
     <use xlink:href="#DejaVuSans-51" transform="translate(4758.796875 0)"/>
     <use xlink:href="#DejaVuSans-52" transform="translate(4822.171875 0)"/>
     <use xlink:href="#DejaVuSans-57" transform="translate(4883.359375 0)"/>
     <use xlink:href="#DejaVuSans-3" transform="translate(4922.5625 0)"/>
     <use xlink:href="#DejaVuSans-52" transform="translate(4954.34375 0)"/>
     <use xlink:href="#DejaVuSans-59" transform="translate(5015.53125 0)"/>
     <use xlink:href="#DejaVuSans-48" transform="translate(5074.71875 0)"/>
     <use xlink:href="#DejaVuSans-55" transform="translate(5136.25 0)"/>
     <use xlink:href="#DejaVuSans-4f" transform="translate(5177.359375 0)"/>
     <use xlink:href="#DejaVuSans-44" transform="translate(5205.140625 0)"/>
     <use xlink:href="#DejaVuSans-53" transform="translate(5266.421875 0)"/>
     <use xlink:href="#DejaVuSans-11" transform="translate(5329.90625 0)"/>
    </g>
   </g>
   <g id="text_32">
    <!-- WP-2 · real MIMIC-IV (n=48,561) · same 29-edge budget, 3 seeds — only the placement differs -->
    <g style="fill: #222222" transform="translate(148.943555 15.938203) scale(0.115 -0.115)">
     <defs>
      <path id="DejaVuSans-3a" d="M 213 4666 
L 850 4666 
L 1831 722 
L 2809 4666 
L 3519 4666 
L 4500 722 
L 5478 4666 
L 6119 4666 
L 4947 0 
L 4153 0 
L 3169 4050 
L 2175 0 
L 1381 0 
L 213 4666 
z
" transform="scale(0.015625)"/>
      <path id="DejaVuSans-33" d="M 1259 4147 
L 1259 2394 
L 2053 2394 
Q 2494 2394 2734 2622 
Q 2975 2850 2975 3272 
Q 2975 3691 2734 3919 
Q 2494 4147 2053 4147 
L 1259 4147 
z
M 628 4666 
L 2053 4666 
Q 2838 4666 3239 4311 
Q 3641 3956 3641 3272 
Q 3641 2581 3239 2228 
Q 2838 1875 2053 1875 
L 1259 1875 
L 1259 0 
L 628 0 
L 628 4666 
z
" transform="scale(0.015625)"/>
      <path id="DejaVuSans-79" d="M 684 2619 
L 1344 2619 
L 1344 1825 
L 684 1825 
L 684 2619 
z
" transform="scale(0.015625)"/>
      <path id="DejaVuSans-30" d="M 628 4666 
L 1569 4666 
L 2759 1491 
L 3956 4666 
L 4897 4666 
L 4897 0 
L 4281 0 
L 4281 4097 
L 3078 897 
L 2444 897 
L 1241 4097 
L 1241 0 
L 628 0 
L 628 4666 
z
" transform="scale(0.015625)"/>
      <path id="DejaVuSans-2c" d="M 628 4666 
L 1259 4666 
L 1259 0 
L 628 0 
L 628 4666 
z
" transform="scale(0.015625)"/>
      <path id="DejaVuSans-39" d="M 1831 0 
L 50 4666 
L 709 4666 
L 2188 738 
L 3669 4666 
L 4325 4666 
L 2547 0 
L 1831 0 
z
" transform="scale(0.015625)"/>
      <path id="DejaVuSans-f" d="M 750 794 
L 1409 794 
L 1409 256 
L 897 -744 
L 494 -744 
L 750 256 
L 750 794 
z
" transform="scale(0.015625)"/>
      <path id="DejaVuSans-af6" d="M 313 1978 
L 6088 1978 
L 6088 1528 
L 313 1528 
L 313 1978 
z
" transform="scale(0.015625)"/>
      <path id="DejaVuSans-13ae" d="M 4531 4863 
L 4531 4384 
L 3981 4384 
Q 3672 4384 3551 4259 
Q 3431 4134 3431 3809 
L 3431 3500 
L 4378 3500 
L 4378 3053 
L 3431 3053 
L 3431 0 
L 2853 0 
L 2853 3053 
L 1275 3053 
L 1275 0 
L 697 0 
L 697 3053 
L 147 3053 
L 147 3500 
L 697 3500 
L 697 3744 
Q 697 4328 969 4595 
Q 1241 4863 1831 4863 
L 2375 4863 
L 2375 4384 
L 1825 4384 
Q 1516 4384 1394 4259 
Q 1275 4134 1275 3809 
L 1275 3500 
L 2853 3500 
L 2853 3744 
Q 2853 4328 3125 4595 
Q 3397 4863 3988 4863 
L 4531 4863 
z
" transform="scale(0.015625)"/>
     </defs>
     <use xlink:href="#DejaVuSans-3a"/>
     <use xlink:href="#DejaVuSans-33" transform="translate(98.875 0)"/>
     <use xlink:href="#DejaVuSans-10" transform="translate(156.96875 0)"/>
     <use xlink:href="#DejaVuSans-15" transform="translate(193.046875 0)"/>
     <use xlink:href="#DejaVuSans-3" transform="translate(256.671875 0)"/>
     <use xlink:href="#DejaVuSans-79" transform="translate(288.453125 0)"/>
     <use xlink:href="#DejaVuSans-3" transform="translate(320.234375 0)"/>
     <use xlink:href="#DejaVuSans-55" transform="translate(352.015625 0)"/>
     <use xlink:href="#DejaVuSans-48" transform="translate(390.921875 0)"/>
     <use xlink:href="#DejaVuSans-44" transform="translate(452.453125 0)"/>
     <use xlink:href="#DejaVuSans-4f" transform="translate(513.734375 0)"/>
     <use xlink:href="#DejaVuSans-3" transform="translate(541.515625 0)"/>
     <use xlink:href="#DejaVuSans-30" transform="translate(573.296875 0)"/>
     <use xlink:href="#DejaVuSans-2c" transform="translate(659.578125 0)"/>
     <use xlink:href="#DejaVuSans-30" transform="translate(689.078125 0)"/>
     <use xlink:href="#DejaVuSans-2c" transform="translate(775.359375 0)"/>
     <use xlink:href="#DejaVuSans-26" transform="translate(804.859375 0)"/>
     <use xlink:href="#DejaVuSans-10" transform="translate(874.6875 0)"/>
     <use xlink:href="#DejaVuSans-2c" transform="translate(910.765625 0)"/>
     <use xlink:href="#DejaVuSans-39" transform="translate(940.265625 0)"/>
     <use xlink:href="#DejaVuSans-3" transform="translate(1008.671875 0)"/>
     <use xlink:href="#DejaVuSans-b" transform="translate(1040.453125 0)"/>
     <use xlink:href="#DejaVuSans-51" transform="translate(1079.46875 0)"/>
     <use xlink:href="#DejaVuSans-20" transform="translate(1142.84375 0)"/>
     <use xlink:href="#DejaVuSans-17" transform="translate(1226.640625 0)"/>
     <use xlink:href="#DejaVuSans-1b" transform="translate(1290.265625 0)"/>
     <use xlink:href="#DejaVuSans-f" transform="translate(1353.890625 0)"/>
     <use xlink:href="#DejaVuSans-18" transform="translate(1385.671875 0)"/>
     <use xlink:href="#DejaVuSans-19" transform="translate(1449.296875 0)"/>
     <use xlink:href="#DejaVuSans-14" transform="translate(1512.921875 0)"/>
     <use xlink:href="#DejaVuSans-c" transform="translate(1576.546875 0)"/>
     <use xlink:href="#DejaVuSans-3" transform="translate(1615.5625 0)"/>
     <use xlink:href="#DejaVuSans-79" transform="translate(1647.34375 0)"/>
     <use xlink:href="#DejaVuSans-3" transform="translate(1679.125 0)"/>
     <use xlink:href="#DejaVuSans-56" transform="translate(1710.90625 0)"/>
     <use xlink:href="#DejaVuSans-44" transform="translate(1763 0)"/>
     <use xlink:href="#DejaVuSans-50" transform="translate(1824.28125 0)"/>
     <use xlink:href="#DejaVuSans-48" transform="translate(1921.6875 0)"/>
     <use xlink:href="#DejaVuSans-3" transform="translate(1983.21875 0)"/>
     <use xlink:href="#DejaVuSans-15" transform="translate(2015 0)"/>
     <use xlink:href="#DejaVuSans-1c" transform="translate(2078.625 0)"/>
     <use xlink:href="#DejaVuSans-10" transform="translate(2142.25 0)"/>
     <use xlink:href="#DejaVuSans-48" transform="translate(2178.328125 0)"/>
     <use xlink:href="#DejaVuSans-47" transform="translate(2239.859375 0)"/>
     <use xlink:href="#DejaVuSans-4a" transform="translate(2303.34375 0)"/>
     <use xlink:href="#DejaVuSans-48" transform="translate(2366.828125 0)"/>
     <use xlink:href="#DejaVuSans-3" transform="translate(2428.359375 0)"/>
     <use xlink:href="#DejaVuSans-45" transform="translate(2460.140625 0)"/>
     <use xlink:href="#DejaVuSans-58" transform="translate(2523.625 0)"/>
     <use xlink:href="#DejaVuSans-47" transform="translate(2587 0)"/>
     <use xlink:href="#DejaVuSans-4a" transform="translate(2650.484375 0)"/>
     <use xlink:href="#DejaVuSans-48" transform="translate(2713.96875 0)"/>
     <use xlink:href="#DejaVuSans-57" transform="translate(2775.5 0)"/>
     <use xlink:href="#DejaVuSans-f" transform="translate(2814.703125 0)"/>
     <use xlink:href="#DejaVuSans-3" transform="translate(2846.484375 0)"/>
     <use xlink:href="#DejaVuSans-16" transform="translate(2878.265625 0)"/>
     <use xlink:href="#DejaVuSans-3" transform="translate(2941.890625 0)"/>
     <use xlink:href="#DejaVuSans-56" transform="translate(2973.671875 0)"/>
     <use xlink:href="#DejaVuSans-48" transform="translate(3025.765625 0)"/>
     <use xlink:href="#DejaVuSans-48" transform="translate(3087.296875 0)"/>
     <use xlink:href="#DejaVuSans-47" transform="translate(3148.828125 0)"/>
     <use xlink:href="#DejaVuSans-56" transform="translate(3212.3125 0)"/>
     <use xlink:href="#DejaVuSans-3" transform="translate(3264.40625 0)"/>
     <use xlink:href="#DejaVuSans-af6" transform="translate(3296.1875 0)"/>
     <use xlink:href="#DejaVuSans-3" transform="translate(3396.1875 0)"/>
     <use xlink:href="#DejaVuSans-52" transform="translate(3427.96875 0)"/>
     <use xlink:href="#DejaVuSans-51" transform="translate(3489.15625 0)"/>
     <use xlink:href="#DejaVuSans-4f" transform="translate(3552.53125 0)"/>
     <use xlink:href="#DejaVuSans-5c" transform="translate(3580.3125 0)"/>
     <use xlink:href="#DejaVuSans-3" transform="translate(3639.5 0)"/>
     <use xlink:href="#DejaVuSans-57" transform="translate(3671.28125 0)"/>
     <use xlink:href="#DejaVuSans-4b" transform="translate(3710.484375 0)"/>
     <use xlink:href="#DejaVuSans-48" transform="translate(3773.859375 0)"/>
     <use xlink:href="#DejaVuSans-3" transform="translate(3835.390625 0)"/>
     <use xlink:href="#DejaVuSans-53" transform="translate(3867.171875 0)"/>
     <use xlink:href="#DejaVuSans-4f" transform="translate(3930.65625 0)"/>
     <use xlink:href="#DejaVuSans-44" transform="translate(3958.4375 0)"/>
     <use xlink:href="#DejaVuSans-46" transform="translate(4019.71875 0)"/>
     <use xlink:href="#DejaVuSans-48" transform="translate(4074.703125 0)"/>
     <use xlink:href="#DejaVuSans-50" transform="translate(4136.234375 0)"/>
     <use xlink:href="#DejaVuSans-48" transform="translate(4233.640625 0)"/>
     <use xlink:href="#DejaVuSans-51" transform="translate(4295.171875 0)"/>
     <use xlink:href="#DejaVuSans-57" transform="translate(4358.546875 0)"/>
     <use xlink:href="#DejaVuSans-3" transform="translate(4397.75 0)"/>
     <use xlink:href="#DejaVuSans-47" transform="translate(4429.53125 0)"/>
     <use xlink:href="#DejaVuSans-4c" transform="translate(4493.015625 0)"/>
     <use xlink:href="#DejaVuSans-13ae" transform="translate(4520.796875 0)"/>
     <use xlink:href="#DejaVuSans-48" transform="translate(4589.6875 0)"/>
     <use xlink:href="#DejaVuSans-55" transform="translate(4651.21875 0)"/>
     <use xlink:href="#DejaVuSans-56" transform="translate(4692.328125 0)"/>
    </g>
   </g>
   <g id="LineCollection_1">
    <path d="M 498.076128 81.974203 
L 531.84161 81.974203 
" clip-path="url(#p787182877b)" style="fill: none; stroke: #555555; stroke-width: 1.2"/>
    <path d="M 531.459461 106.826617 
L 560.575082 106.826617 
" clip-path="url(#p787182877b)" style="fill: none; stroke: #555555; stroke-width: 1.2"/>
    <path d="M 536.790577 131.679031 
L 574.888272 131.679031 
" clip-path="url(#p787182877b)" style="fill: none; stroke: #555555; stroke-width: 1.2"/>
    <path d="M 549.600436 156.531445 
L 588.862843 156.531445 
" clip-path="url(#p787182877b)" style="fill: none; stroke: #555555; stroke-width: 1.2"/>
    <path d="M 573.401293 181.383858 
L 584.497726 181.383858 
" clip-path="url(#p787182877b)" style="fill: none; stroke: #555555; stroke-width: 1.2"/>
    <path d="M 581.859898 206.236272 
L 595.937616 206.236272 
" clip-path="url(#p787182877b)" style="fill: none; stroke: #555555; stroke-width: 1.2"/>
    <path d="M 590.887214 231.088686 
L 602.754795 231.088686 
" clip-path="url(#p787182877b)" style="fill: none; stroke: #555555; stroke-width: 1.2"/>
    <path d="M 596.157945 255.9411 
L 600.475682 255.9411 
" clip-path="url(#p787182877b)" style="fill: none; stroke: #555555; stroke-width: 1.2"/>
    <path d="M 590.962912 280.793513 
L 618.507297 280.793513 
" clip-path="url(#p787182877b)" style="fill: none; stroke: #555555; stroke-width: 1.2"/>
    <path d="M 593.861896 305.645927 
L 620.281494 305.645927 
" clip-path="url(#p787182877b)" style="fill: none; stroke: #555555; stroke-width: 1.2"/>
   </g>
   <g id="line2d_20">
    <defs>
     <path id="mef3ff13661" d="M 0 3 
L 0 -3 
" style="stroke: #555555"/>
    </defs>
    <g clip-path="url(#p787182877b)">
     <use xlink:href="#mef3ff13661" x="498.076128" y="81.974203" style="fill: #1f77b4; stroke: #555555"/>
     <use xlink:href="#mef3ff13661" x="531.459461" y="106.826617" style="fill: #1f77b4; stroke: #555555"/>
     <use xlink:href="#mef3ff13661" x="536.790577" y="131.679031" style="fill: #1f77b4; stroke: #555555"/>
     <use xlink:href="#mef3ff13661" x="549.600436" y="156.531445" style="fill: #1f77b4; stroke: #555555"/>
     <use xlink:href="#mef3ff13661" x="573.401293" y="181.383858" style="fill: #1f77b4; stroke: #555555"/>
     <use xlink:href="#mef3ff13661" x="581.859898" y="206.236272" style="fill: #1f77b4; stroke: #555555"/>
     <use xlink:href="#mef3ff13661" x="590.887214" y="231.088686" style="fill: #1f77b4; stroke: #555555"/>
     <use xlink:href="#mef3ff13661" x="596.157945" y="255.9411" style="fill: #1f77b4; stroke: #555555"/>
     <use xlink:href="#mef3ff13661" x="590.962912" y="280.793513" style="fill: #1f77b4; stroke: #555555"/>
     <use xlink:href="#mef3ff13661" x="593.861896" y="305.645927" style="fill: #1f77b4; stroke: #555555"/>
    </g>
   </g>
   <g id="line2d_21">
    <g clip-path="url(#p787182877b)">
     <use xlink:href="#mef3ff13661" x="531.84161" y="81.974203" style="fill: #1f77b4; stroke: #555555"/>
     <use xlink:href="#mef3ff13661" x="560.575082" y="106.826617" style="fill: #1f77b4; stroke: #555555"/>
     <use xlink:href="#mef3ff13661" x="574.888272" y="131.679031" style="fill: #1f77b4; stroke: #555555"/>
     <use xlink:href="#mef3ff13661" x="588.862843" y="156.531445" style="fill: #1f77b4; stroke: #555555"/>
     <use xlink:href="#mef3ff13661" x="584.497726" y="181.383858" style="fill: #1f77b4; stroke: #555555"/>
     <use xlink:href="#mef3ff13661" x="595.937616" y="206.236272" style="fill: #1f77b4; stroke: #555555"/>
     <use xlink:href="#mef3ff13661" x="602.754795" y="231.088686" style="fill: #1f77b4; stroke: #555555"/>
     <use xlink:href="#mef3ff13661" x="600.475682" y="255.9411" style="fill: #1f77b4; stroke: #555555"/>
     <use xlink:href="#mef3ff13661" x="618.507297" y="280.793513" style="fill: #1f77b4; stroke: #555555"/>
     <use xlink:href="#mef3ff13661" x="620.281494" y="305.645927" style="fill: #1f77b4; stroke: #555555"/>
    </g>
   </g>
   <g id="line2d_22">
    <defs>
     <path id="m3034a0a6d0" d="M 0 1.7 
C 0.450845 1.7 0.883286 1.520877 1.202082 1.202082 
C 1.520877 0.883286 1.7 0.450845 1.7 0 
C 1.7 -0.450845 1.520877 -0.883286 1.202082 -1.202082 
C 0.883286 -1.520877 0.450845 -1.7 0 -1.7 
C -0.450845 -1.7 -0.883286 -1.520877 -1.202082 -1.202082 
C -1.520877 -0.883286 -1.7 -0.450845 -1.7 0 
C -1.7 0.450845 -1.520877 0.883286 -1.202082 1.202082 
C -0.883286 1.520877 -0.450845 1.7 0 1.7 
z
" style="stroke: #333333; stroke-width: 0.9"/>
    </defs>
    <g clip-path="url(#p787182877b)">
     <use xlink:href="#m3034a0a6d0" x="525.242148" y="81.974203" style="fill: #ffffff; stroke: #333333; stroke-width: 0.9"/>
     <use xlink:href="#m3034a0a6d0" x="528.478179" y="81.974203" style="fill: #ffffff; stroke: #333333; stroke-width: 0.9"/>
     <use xlink:href="#m3034a0a6d0" x="491.15628" y="81.974203" style="fill: #ffffff; stroke: #333333; stroke-width: 0.9"/>
    </g>
   </g>
   <g id="line2d_23">
    <g clip-path="url(#p787182877b)">
     <use xlink:href="#m3034a0a6d0" x="530.775663" y="106.826617" style="fill: #ffffff; stroke: #333333; stroke-width: 0.9"/>
     <use xlink:href="#m3034a0a6d0" x="565.6241" y="106.826617" style="fill: #ffffff; stroke: #333333; stroke-width: 0.9"/>
     <use xlink:href="#m3034a0a6d0" x="541.652052" y="106.826617" style="fill: #ffffff; stroke: #333333; stroke-width: 0.9"/>
    </g>
   </g>
   <g id="line2d_24">
    <g clip-path="url(#p787182877b)">
     <use xlink:href="#m3034a0a6d0" x="571.90552" y="131.679031" style="fill: #ffffff; stroke: #333333; stroke-width: 0.9"/>
     <use xlink:href="#m3034a0a6d0" x="566.533318" y="131.679031" style="fill: #ffffff; stroke: #333333; stroke-width: 0.9"/>
     <use xlink:href="#m3034a0a6d0" x="529.079435" y="131.679031" style="fill: #ffffff; stroke: #333333; stroke-width: 0.9"/>
    </g>
   </g>
   <g id="line2d_25">
    <g clip-path="url(#p787182877b)">
     <use xlink:href="#m3034a0a6d0" x="594.929246" y="156.531445" style="fill: #ffffff; stroke: #333333; stroke-width: 0.9"/>
     <use xlink:href="#m3034a0a6d0" x="565.482341" y="156.531445" style="fill: #ffffff; stroke: #333333; stroke-width: 0.9"/>
     <use xlink:href="#m3034a0a6d0" x="547.283332" y="156.531445" style="fill: #ffffff; stroke: #333333; stroke-width: 0.9"/>
    </g>
   </g>
   <g id="line2d_26">
    <g clip-path="url(#p787182877b)">
     <use xlink:href="#m3034a0a6d0" x="586.765844" y="181.383858" style="fill: #ffffff; stroke: #333333; stroke-width: 0.9"/>
     <use xlink:href="#m3034a0a6d0" x="574.447418" y="181.383858" style="fill: #ffffff; stroke: #333333; stroke-width: 0.9"/>
     <use xlink:href="#m3034a0a6d0" x="575.635266" y="181.383858" style="fill: #ffffff; stroke: #333333; stroke-width: 0.9"/>
    </g>
   </g>
   <g id="line2d_27">
    <g clip-path="url(#p787182877b)">
     <use xlink:href="#m3034a0a6d0" x="596.024217" y="206.236272" style="fill: #ffffff; stroke: #333333; stroke-width: 0.9"/>
     <use xlink:href="#m3034a0a6d0" x="591.355925" y="206.236272" style="fill: #ffffff; stroke: #333333; stroke-width: 0.9"/>
     <use xlink:href="#m3034a0a6d0" x="579.316129" y="206.236272" style="fill: #ffffff; stroke: #333333; stroke-width: 0.9"/>
    </g>
   </g>
   <g id="line2d_28">
    <g clip-path="url(#p787182877b)">
     <use xlink:href="#m3034a0a6d0" x="598.165277" y="231.088686" style="fill: #ffffff; stroke: #333333; stroke-width: 0.9"/>
     <use xlink:href="#m3034a0a6d0" x="588.97534" y="231.088686" style="fill: #ffffff; stroke: #333333; stroke-width: 0.9"/>
     <use xlink:href="#m3034a0a6d0" x="603.322396" y="231.088686" style="fill: #ffffff; stroke: #333333; stroke-width: 0.9"/>
    </g>
   </g>
   <g id="line2d_29">
    <g clip-path="url(#p787182877b)">
     <use xlink:href="#m3034a0a6d0" x="598.766533" y="255.9411" style="fill: #ffffff; stroke: #333333; stroke-width: 0.9"/>
     <use xlink:href="#m3034a0a6d0" x="600.707174" y="255.9411" style="fill: #ffffff; stroke: #333333; stroke-width: 0.9"/>
     <use xlink:href="#m3034a0a6d0" x="595.476732" y="255.9411" style="fill: #ffffff; stroke: #333333; stroke-width: 0.9"/>
    </g>
   </g>
   <g id="line2d_30">
    <g clip-path="url(#p787182877b)">
     <use xlink:href="#m3034a0a6d0" x="605.096836" y="280.793513" style="fill: #ffffff; stroke: #333333; stroke-width: 0.9"/>
     <use xlink:href="#m3034a0a6d0" x="621.418751" y="280.793513" style="fill: #ffffff; stroke: #333333; stroke-width: 0.9"/>
     <use xlink:href="#m3034a0a6d0" x="587.689726" y="280.793513" style="fill: #ffffff; stroke: #333333; stroke-width: 0.9"/>
    </g>
   </g>
   <g id="line2d_31">
    <g clip-path="url(#p787182877b)">
     <use xlink:href="#m3034a0a6d0" x="609.589151" y="305.645927" style="fill: #ffffff; stroke: #333333; stroke-width: 0.9"/>
     <use xlink:href="#m3034a0a6d0" x="621.84403" y="305.645927" style="fill: #ffffff; stroke: #333333; stroke-width: 0.9"/>
     <use xlink:href="#m3034a0a6d0" x="589.781903" y="305.645927" style="fill: #ffffff; stroke: #333333; stroke-width: 0.9"/>
    </g>
   </g>
  </g>
 </g>
 <defs>
  <clipPath id="p787182877b">
   <rect x="126.007812" y="45.938203" width="591.48" height="288.288"/>
  </clipPath>
 </defs>
</svg>
